G75*
%MOIN*%
%OFA0B0*%
%FSLAX24Y24*%
%IPPOS*%
%LPD*%
%AMOC8*
5,1,8,0,0,1.08239X$1,22.5*
%
%ADD10C,0.1260*%
%ADD11R,0.0394X0.0433*%
%ADD12R,0.0217X0.0610*%
%ADD13R,0.0610X0.0217*%
%ADD14R,0.0354X0.0276*%
%ADD15R,0.0276X0.0354*%
%ADD16R,0.0472X0.0315*%
%ADD17C,0.0660*%
%ADD18R,0.0413X0.0236*%
%ADD19C,0.0531*%
%ADD20C,0.1181*%
%ADD21R,0.0217X0.0472*%
%ADD22R,0.0157X0.0591*%
%ADD23R,0.0709X0.0846*%
%ADD24R,0.0591X0.0512*%
%ADD25R,0.0236X0.0787*%
%ADD26C,0.0394*%
%ADD27C,0.0886*%
%ADD28R,0.0197X0.0787*%
%ADD29R,0.0433X0.0394*%
%ADD30R,0.0433X0.0354*%
%ADD31OC8,0.0650*%
%ADD32C,0.0600*%
%ADD33C,0.0630*%
%ADD34R,0.1004X0.0945*%
%ADD35R,0.1083X0.1142*%
%ADD36R,0.0236X0.0394*%
%ADD37OC8,0.0709*%
%ADD38C,0.0760*%
%ADD39C,0.0197*%
%ADD40C,0.0295*%
D10*
X017420Y009356D03*
X017420Y028057D03*
X030806Y028057D03*
D11*
X030717Y029471D03*
X030717Y030141D03*
X029036Y036912D03*
X028367Y036912D03*
X017393Y022478D03*
X017393Y021808D03*
D12*
X024091Y019655D03*
X024406Y019655D03*
X024721Y019655D03*
X025036Y019655D03*
X025351Y019655D03*
X025666Y019655D03*
X025981Y019655D03*
X026296Y019655D03*
X026611Y019655D03*
X026926Y019655D03*
X027241Y019655D03*
X027241Y024183D03*
X026926Y024183D03*
X026611Y024183D03*
X026296Y024183D03*
X025981Y024183D03*
X025666Y024183D03*
X025351Y024183D03*
X025036Y024183D03*
X024721Y024183D03*
X024406Y024183D03*
X024091Y024183D03*
D13*
X023402Y023494D03*
X023402Y023179D03*
X023402Y022864D03*
X023402Y022549D03*
X023402Y022234D03*
X023402Y021919D03*
X023402Y021604D03*
X023402Y021289D03*
X023402Y020974D03*
X023402Y020659D03*
X023402Y020344D03*
X027930Y020344D03*
X027930Y020659D03*
X027930Y020974D03*
X027930Y021289D03*
X027930Y021604D03*
X027930Y021919D03*
X027930Y022234D03*
X027930Y022549D03*
X027930Y022864D03*
X027930Y023179D03*
X027930Y023494D03*
D14*
X024721Y025178D03*
X024721Y025690D03*
X023631Y027558D03*
X023631Y028070D03*
X025441Y031026D03*
X025441Y031538D03*
X025071Y034376D03*
X025071Y034888D03*
X023881Y035138D03*
X023881Y034626D03*
X030057Y030077D03*
X030057Y029565D03*
X026611Y018840D03*
X026611Y018328D03*
D15*
X025975Y015821D03*
X025463Y015821D03*
X024135Y015821D03*
X023623Y015821D03*
X022299Y015822D03*
X021788Y015822D03*
X020499Y015857D03*
X019988Y015857D03*
X019980Y013048D03*
X020492Y013048D03*
X021780Y013004D03*
X022292Y013004D03*
X023563Y013001D03*
X024075Y013001D03*
X025463Y013001D03*
X025975Y013001D03*
X027283Y013001D03*
X027795Y013001D03*
X027795Y015821D03*
X027283Y015821D03*
X022166Y021927D03*
X021654Y021927D03*
X021535Y024266D03*
X022047Y024266D03*
X027480Y025369D03*
X027992Y025369D03*
X028950Y022549D03*
X029462Y022549D03*
X035963Y022701D03*
X036475Y022701D03*
X036475Y021801D03*
X035963Y021801D03*
X035963Y020901D03*
X036475Y020901D03*
X036475Y020061D03*
X035963Y020061D03*
X035963Y019161D03*
X036475Y019161D03*
X036475Y018261D03*
X035963Y018261D03*
X035963Y015861D03*
X036475Y015861D03*
X034258Y014202D03*
X033746Y014202D03*
X033704Y013077D03*
X034215Y013077D03*
X034244Y012255D03*
X033733Y012255D03*
X033988Y011507D03*
X035264Y013077D03*
X035775Y013077D03*
X035963Y023601D03*
X036475Y023601D03*
X036475Y024501D03*
X035963Y024501D03*
X035963Y025401D03*
X036475Y025401D03*
X027633Y030326D03*
X027121Y030326D03*
X027170Y034747D03*
X027682Y034747D03*
X028430Y036082D03*
X028942Y036082D03*
X023122Y035222D03*
X022610Y035222D03*
X015810Y032505D03*
X015298Y032505D03*
X015298Y029305D03*
X015810Y029305D03*
X015810Y026395D03*
X015298Y026395D03*
X015298Y023195D03*
X015810Y023195D03*
X015810Y019466D03*
X015298Y019466D03*
X015298Y016266D03*
X015810Y016266D03*
X015810Y012307D03*
X015298Y012307D03*
X015298Y009107D03*
X015810Y009107D03*
D16*
X034265Y015861D03*
X035053Y015861D03*
X035053Y018261D03*
X034265Y018261D03*
X034265Y019161D03*
X035053Y019161D03*
X035053Y020061D03*
X034265Y020061D03*
X034265Y020901D03*
X035053Y020901D03*
X035053Y021801D03*
X034265Y021801D03*
X034265Y022701D03*
X035053Y022701D03*
X035053Y023601D03*
X034265Y023601D03*
X034265Y024501D03*
X035053Y024501D03*
X035053Y025401D03*
X034265Y025401D03*
X013473Y036462D03*
X012686Y036462D03*
D17*
X021816Y028219D03*
X021816Y027219D03*
X021816Y026219D03*
X021816Y025219D03*
D18*
X028239Y029587D03*
X028239Y030335D03*
X029305Y030335D03*
X029305Y029961D03*
X029305Y029587D03*
D19*
X013351Y030805D03*
X013351Y031805D03*
X013351Y024780D03*
X013351Y023780D03*
X013351Y017755D03*
X013351Y016755D03*
X013351Y010742D03*
X013351Y009742D03*
D20*
X011351Y008742D03*
X011351Y012742D03*
X011351Y015755D03*
X011351Y019755D03*
X011351Y022780D03*
X011351Y026780D03*
X011351Y029805D03*
X011351Y033805D03*
D21*
X015180Y031416D03*
X015554Y031416D03*
X015928Y031416D03*
X015928Y030393D03*
X015180Y030393D03*
X015180Y025307D03*
X015554Y025307D03*
X015928Y025307D03*
X015928Y024283D03*
X015180Y024283D03*
X015180Y018378D03*
X015554Y018378D03*
X015928Y018378D03*
X015928Y017354D03*
X015180Y017354D03*
X019862Y014970D03*
X020610Y014970D03*
X021662Y014925D03*
X022410Y014925D03*
X022410Y013902D03*
X022036Y013902D03*
X021662Y013902D03*
X020610Y013947D03*
X020236Y013947D03*
X019862Y013947D03*
X023505Y013870D03*
X023879Y013870D03*
X024253Y013870D03*
X025345Y013870D03*
X025719Y013870D03*
X026093Y013870D03*
X026093Y014893D03*
X025345Y014893D03*
X024253Y014893D03*
X023505Y014893D03*
X027165Y014893D03*
X027913Y014893D03*
X027913Y013870D03*
X027539Y013870D03*
X027165Y013870D03*
X015928Y011219D03*
X015554Y011219D03*
X015180Y011219D03*
X015180Y010195D03*
X015928Y010195D03*
D22*
X021068Y030550D03*
X021324Y030550D03*
X021580Y030550D03*
X021836Y030550D03*
X022091Y030550D03*
X022347Y030550D03*
X022603Y030550D03*
X022859Y030550D03*
X023115Y030550D03*
X023371Y030550D03*
X023627Y030550D03*
X023883Y030550D03*
X024139Y030550D03*
X024395Y030550D03*
X024395Y033404D03*
X024139Y033404D03*
X023883Y033404D03*
X023627Y033404D03*
X023371Y033404D03*
X023115Y033404D03*
X022859Y033404D03*
X022603Y033404D03*
X022347Y033404D03*
X022091Y033404D03*
X021836Y033404D03*
X021580Y033404D03*
X021324Y033404D03*
X021068Y033404D03*
D23*
X023131Y036656D03*
X023131Y037817D03*
D24*
X027051Y032331D03*
X027051Y031583D03*
D25*
X026415Y033341D03*
X026041Y033341D03*
X025667Y033341D03*
X025667Y034562D03*
X026041Y034562D03*
X026415Y034562D03*
D26*
X026570Y036867D03*
X025192Y036867D03*
D27*
X024444Y036080D03*
X024444Y038166D03*
X027318Y038166D03*
X027318Y036080D03*
D28*
X026511Y035981D03*
X026196Y035981D03*
X025881Y035981D03*
X025566Y035981D03*
X025251Y035981D03*
D29*
X027568Y028946D03*
X028237Y028946D03*
D30*
X022154Y023485D03*
X021366Y023485D03*
X021366Y022658D03*
X022154Y022658D03*
D31*
X021915Y008172D03*
X023293Y008172D03*
X024671Y008172D03*
X026049Y008172D03*
X027427Y008172D03*
X028804Y008172D03*
X020537Y008172D03*
X019159Y008172D03*
D32*
X010966Y010232D02*
X010366Y010232D01*
X010366Y011232D02*
X010966Y011232D01*
X010966Y017221D02*
X010366Y017221D01*
X010366Y018221D02*
X010966Y018221D01*
X010966Y024270D02*
X010366Y024270D01*
X010366Y025270D02*
X010966Y025270D01*
X010966Y031300D02*
X010366Y031300D01*
X010366Y032300D02*
X010966Y032300D01*
D33*
X018939Y034139D03*
X018939Y036895D03*
D34*
X017492Y037328D03*
X020386Y036580D03*
D35*
X017532Y033667D03*
D36*
X035519Y012231D03*
X035264Y011523D03*
X035775Y011523D03*
D37*
X036327Y008179D03*
X037705Y008179D03*
X034949Y008179D03*
X033571Y008179D03*
X032193Y008179D03*
X030815Y008179D03*
D38*
X011551Y036437D03*
X010381Y036437D03*
D39*
X031449Y035723D02*
X031451Y035742D01*
X031456Y035761D01*
X031466Y035777D01*
X031478Y035792D01*
X031493Y035804D01*
X031509Y035814D01*
X031528Y035819D01*
X031547Y035821D01*
X031566Y035819D01*
X031585Y035814D01*
X031601Y035804D01*
X031616Y035792D01*
X031628Y035777D01*
X031638Y035761D01*
X031643Y035742D01*
X031645Y035723D01*
X031643Y035704D01*
X031638Y035685D01*
X031628Y035669D01*
X031616Y035654D01*
X031601Y035642D01*
X031585Y035632D01*
X031566Y035627D01*
X031547Y035625D01*
X031528Y035627D01*
X031509Y035632D01*
X031493Y035642D01*
X031478Y035654D01*
X031466Y035669D01*
X031456Y035685D01*
X031451Y035704D01*
X031449Y035723D01*
X038536Y011313D02*
X038538Y011332D01*
X038543Y011351D01*
X038553Y011367D01*
X038565Y011382D01*
X038580Y011394D01*
X038596Y011404D01*
X038615Y011409D01*
X038634Y011411D01*
X038653Y011409D01*
X038672Y011404D01*
X038688Y011394D01*
X038703Y011382D01*
X038715Y011367D01*
X038725Y011351D01*
X038730Y011332D01*
X038732Y011313D01*
X038730Y011294D01*
X038725Y011275D01*
X038715Y011259D01*
X038703Y011244D01*
X038688Y011232D01*
X038672Y011222D01*
X038653Y011217D01*
X038634Y011215D01*
X038615Y011217D01*
X038596Y011222D01*
X038580Y011232D01*
X038565Y011244D01*
X038553Y011259D01*
X038543Y011275D01*
X038538Y011294D01*
X038536Y011313D01*
X016489Y007770D02*
X016491Y007789D01*
X016496Y007808D01*
X016506Y007824D01*
X016518Y007839D01*
X016533Y007851D01*
X016549Y007861D01*
X016568Y007866D01*
X016587Y007868D01*
X016606Y007866D01*
X016625Y007861D01*
X016641Y007851D01*
X016656Y007839D01*
X016668Y007824D01*
X016678Y007808D01*
X016683Y007789D01*
X016685Y007770D01*
X016683Y007751D01*
X016678Y007732D01*
X016668Y007716D01*
X016656Y007701D01*
X016641Y007689D01*
X016625Y007679D01*
X016606Y007674D01*
X016587Y007672D01*
X016568Y007674D01*
X016549Y007679D01*
X016533Y007689D01*
X016518Y007701D01*
X016506Y007716D01*
X016496Y007732D01*
X016491Y007751D01*
X016489Y007770D01*
D40*
X025647Y021919D03*
M02*
