G75*
%MOIN*%
%OFA0B0*%
%FSLAX24Y24*%
%IPPOS*%
%LPD*%
%AMOC8*
5,1,8,0,0,1.08239X$1,22.5*
%
%ADD10C,0.0090*%
%ADD11C,0.0080*%
%ADD12C,0.0000*%
%ADD13C,0.0070*%
%ADD14C,0.0060*%
%ADD15C,0.0040*%
%ADD16C,0.0079*%
%ADD17C,0.0394*%
%ADD18C,0.0197*%
%ADD19C,0.0030*%
%ADD20C,0.0050*%
%ADD21C,0.0992*%
%ADD22C,0.0348*%
%ADD23C,0.0100*%
%ADD24C,0.0111*%
%ADD25R,0.0590X0.0010*%
%ADD26R,0.0600X0.0010*%
%ADD27R,0.0610X0.0010*%
%ADD28R,0.0620X0.0010*%
%ADD29R,0.0630X0.0010*%
%ADD30R,0.0640X0.0010*%
%ADD31R,0.0650X0.0010*%
%ADD32R,0.0660X0.0010*%
%ADD33R,0.0670X0.0010*%
%ADD34R,0.0680X0.0010*%
%ADD35R,0.0690X0.0010*%
%ADD36R,0.0700X0.0010*%
%ADD37R,0.0710X0.0010*%
%ADD38R,0.0720X0.0010*%
%ADD39R,0.0730X0.0010*%
%ADD40R,0.0740X0.0010*%
%ADD41R,0.0750X0.0010*%
%ADD42R,0.0760X0.0010*%
%ADD43R,0.0770X0.0010*%
%ADD44R,0.0780X0.0010*%
%ADD45R,0.0790X0.0010*%
%ADD46R,0.0800X0.0010*%
%ADD47R,0.0820X0.0010*%
%ADD48R,0.0830X0.0010*%
%ADD49R,0.0840X0.0010*%
%ADD50R,0.0860X0.0010*%
%ADD51R,0.0870X0.0010*%
%ADD52R,0.0260X0.0010*%
%ADD53R,0.0890X0.0010*%
%ADD54R,0.0400X0.0010*%
%ADD55R,0.0910X0.0010*%
%ADD56R,0.0500X0.0010*%
%ADD57R,0.0930X0.0010*%
%ADD58R,0.0950X0.0010*%
%ADD59R,0.0480X0.0010*%
%ADD60R,0.0170X0.0010*%
%ADD61R,0.0970X0.0010*%
%ADD62R,0.1000X0.0010*%
%ADD63R,0.1030X0.0010*%
%ADD64R,0.1080X0.0010*%
%ADD65R,0.0900X0.0010*%
%ADD66R,0.1440X0.0010*%
%ADD67R,0.0940X0.0010*%
%ADD68R,0.0980X0.0010*%
%ADD69R,0.1020X0.0010*%
%ADD70R,0.1060X0.0010*%
%ADD71R,0.1100X0.0010*%
%ADD72R,0.1140X0.0010*%
%ADD73R,0.1190X0.0010*%
%ADD74R,0.1420X0.0010*%
%ADD75R,0.1230X0.0010*%
%ADD76R,0.1410X0.0010*%
%ADD77R,0.1250X0.0010*%
%ADD78R,0.1390X0.0010*%
%ADD79R,0.1290X0.0010*%
%ADD80R,0.1380X0.0010*%
%ADD81R,0.1310X0.0010*%
%ADD82R,0.1360X0.0010*%
%ADD83R,0.1350X0.0010*%
%ADD84R,0.1370X0.0010*%
%ADD85R,0.1330X0.0010*%
%ADD86R,0.1320X0.0010*%
%ADD87R,0.1430X0.0010*%
%ADD88R,0.1450X0.0010*%
%ADD89R,0.1490X0.0010*%
%ADD90R,0.1280X0.0010*%
%ADD91R,0.1510X0.0010*%
%ADD92R,0.1270X0.0010*%
%ADD93R,0.1530X0.0010*%
%ADD94R,0.1260X0.0010*%
%ADD95R,0.1550X0.0010*%
%ADD96R,0.1580X0.0010*%
%ADD97R,0.1240X0.0010*%
%ADD98R,0.1600X0.0010*%
%ADD99R,0.1220X0.0010*%
%ADD100R,0.1630X0.0010*%
%ADD101R,0.1210X0.0010*%
%ADD102R,0.1650X0.0010*%
%ADD103R,0.1200X0.0010*%
%ADD104R,0.1670X0.0010*%
%ADD105R,0.1680X0.0010*%
%ADD106R,0.0040X0.0010*%
%ADD107R,0.1300X0.0010*%
%ADD108R,0.1660X0.0010*%
%ADD109R,0.1340X0.0010*%
%ADD110R,0.1640X0.0010*%
%ADD111R,0.1400X0.0010*%
%ADD112R,0.1620X0.0010*%
%ADD113R,0.1110X0.0010*%
%ADD114R,0.0520X0.0010*%
%ADD115R,0.1050X0.0010*%
%ADD116R,0.0450X0.0010*%
%ADD117R,0.1010X0.0010*%
%ADD118R,0.0850X0.0010*%
%ADD119R,0.0360X0.0010*%
%ADD120R,0.0960X0.0010*%
%ADD121R,0.0070X0.0010*%
%ADD122R,0.0320X0.0010*%
%ADD123R,0.0810X0.0010*%
%ADD124R,0.0290X0.0010*%
%ADD125R,0.0920X0.0010*%
%ADD126R,0.0230X0.0010*%
%ADD127R,0.0880X0.0010*%
%ADD128R,0.0200X0.0010*%
%ADD129R,0.0180X0.0010*%
%ADD130R,0.0150X0.0010*%
%ADD131R,0.0130X0.0010*%
%ADD132R,0.0110X0.0010*%
%ADD133R,0.0080X0.0010*%
%ADD134R,0.0060X0.0010*%
%ADD135R,0.0020X0.0010*%
%ADD136R,0.0010X0.0010*%
%ADD137R,0.0580X0.0010*%
%ADD138R,0.0090X0.0010*%
%ADD139R,0.0100X0.0010*%
%ADD140R,0.0160X0.0010*%
%ADD141R,0.0210X0.0010*%
%ADD142R,0.0330X0.0010*%
%ADD143R,0.0440X0.0010*%
%ADD144R,0.0510X0.0010*%
%ADD145R,0.1690X0.0010*%
%ADD146R,0.1610X0.0010*%
%ADD147R,0.1560X0.0010*%
%ADD148R,0.1540X0.0010*%
%ADD149R,0.1520X0.0010*%
%ADD150R,0.1500X0.0010*%
%ADD151R,0.1480X0.0010*%
%ADD152R,0.1460X0.0010*%
%ADD153R,0.1180X0.0010*%
%ADD154R,0.1160X0.0010*%
%ADD155R,0.1130X0.0010*%
%ADD156R,0.1090X0.0010*%
%ADD157R,0.0530X0.0010*%
%ADD158R,0.0420X0.0010*%
%ADD159R,0.0310X0.0010*%
%ADD160R,0.0280X0.0010*%
%ADD161C,0.0039*%
%ADD162C,0.0197*%
D10*
X011094Y013874D02*
X011265Y013874D01*
X011179Y013874D02*
X011179Y014384D01*
X011094Y014384D02*
X011265Y014384D01*
X011463Y014384D02*
X011803Y013874D01*
X011803Y014384D01*
X012015Y014384D02*
X012270Y014384D01*
X012355Y014299D01*
X012355Y014129D01*
X012270Y014044D01*
X012015Y014044D01*
X012015Y013874D02*
X012015Y014384D01*
X011463Y014384D02*
X011463Y013874D01*
X012568Y013959D02*
X012653Y013874D01*
X012823Y013874D01*
X012908Y013959D01*
X012908Y014384D01*
X013120Y014384D02*
X013460Y014384D01*
X013290Y014384D02*
X013290Y013874D01*
X013673Y013959D02*
X013758Y013874D01*
X013928Y013874D01*
X014013Y013959D01*
X014013Y014044D01*
X013928Y014129D01*
X013843Y014129D01*
X013928Y014129D02*
X014013Y014214D01*
X014013Y014299D01*
X013928Y014384D01*
X013758Y014384D01*
X013673Y014299D01*
X012568Y014384D02*
X012568Y013959D01*
X018869Y010392D02*
X018869Y010137D01*
X019379Y010137D01*
X019379Y010392D01*
X019294Y010477D01*
X018954Y010477D01*
X018869Y010392D01*
X018869Y009925D02*
X019379Y009925D01*
X018869Y009584D01*
X019379Y009584D01*
X019294Y009372D02*
X019124Y009372D01*
X019124Y009202D01*
X019294Y009372D02*
X019379Y009287D01*
X019379Y009117D01*
X019294Y009032D01*
X018954Y009032D01*
X018869Y009117D01*
X018869Y009287D01*
X018954Y009372D01*
X020340Y009400D02*
X020850Y009740D01*
X020340Y009740D01*
X020340Y009953D02*
X020340Y010208D01*
X020425Y010293D01*
X020595Y010293D01*
X020680Y010208D01*
X020680Y009953D01*
X020850Y009953D02*
X020340Y009953D01*
X020340Y009400D02*
X020850Y009400D01*
X020850Y009202D02*
X020850Y009032D01*
X020850Y009117D02*
X020340Y009117D01*
X020340Y009032D02*
X020340Y009202D01*
X020340Y010505D02*
X020765Y010505D01*
X020850Y010590D01*
X020850Y010760D01*
X020765Y010845D01*
X020340Y010845D01*
X020340Y011058D02*
X020340Y011398D01*
X020340Y011228D02*
X020850Y011228D01*
X020595Y011610D02*
X020340Y011865D01*
X020850Y011865D01*
X020595Y011950D02*
X020595Y011610D01*
X021669Y011610D02*
X021924Y011610D01*
X021839Y011780D01*
X021839Y011865D01*
X021924Y011950D01*
X022094Y011950D01*
X022179Y011865D01*
X022179Y011695D01*
X022094Y011610D01*
X022179Y011228D02*
X021669Y011228D01*
X021669Y011058D02*
X021669Y011398D01*
X021669Y011610D02*
X021669Y011950D01*
X021669Y010845D02*
X022094Y010845D01*
X022179Y010760D01*
X022179Y010590D01*
X022094Y010505D01*
X021669Y010505D01*
X021754Y010293D02*
X021924Y010293D01*
X022009Y010208D01*
X022009Y009953D01*
X022179Y009953D02*
X021669Y009953D01*
X021669Y010208D01*
X021754Y010293D01*
X021669Y009740D02*
X022179Y009740D01*
X021669Y009400D01*
X022179Y009400D01*
X022179Y009202D02*
X022179Y009032D01*
X022179Y009117D02*
X021669Y009117D01*
X021669Y009032D02*
X021669Y009202D01*
X023092Y009280D02*
X023092Y009110D01*
X023177Y009025D01*
X023517Y009025D01*
X023602Y009110D01*
X023602Y009280D01*
X023517Y009365D01*
X023347Y009365D01*
X023347Y009195D01*
X023177Y009365D02*
X023092Y009280D01*
X023092Y009577D02*
X023602Y009918D01*
X023092Y009918D01*
X023092Y010130D02*
X023092Y010385D01*
X023177Y010470D01*
X023517Y010470D01*
X023602Y010385D01*
X023602Y010130D01*
X023092Y010130D01*
X023092Y009577D02*
X023602Y009577D01*
X024469Y009740D02*
X024979Y009740D01*
X024469Y009400D01*
X024979Y009400D01*
X024979Y009202D02*
X024979Y009032D01*
X024979Y009117D02*
X024469Y009117D01*
X024469Y009032D02*
X024469Y009202D01*
X024469Y009953D02*
X024469Y010208D01*
X024554Y010293D01*
X024724Y010293D01*
X024809Y010208D01*
X024809Y009953D01*
X024979Y009953D02*
X024469Y009953D01*
X024469Y010505D02*
X024894Y010505D01*
X024979Y010590D01*
X024979Y010760D01*
X024894Y010845D01*
X024469Y010845D01*
X024469Y011058D02*
X024469Y011398D01*
X024469Y011228D02*
X024979Y011228D01*
X024894Y011610D02*
X024979Y011695D01*
X024979Y011865D01*
X024894Y011950D01*
X024809Y011950D01*
X024724Y011865D01*
X024724Y011610D01*
X024894Y011610D01*
X024724Y011610D02*
X024554Y011780D01*
X024469Y011950D01*
X025869Y011950D02*
X025954Y011950D01*
X026294Y011610D01*
X026379Y011610D01*
X026379Y011228D02*
X025869Y011228D01*
X025869Y011058D02*
X025869Y011398D01*
X025869Y011610D02*
X025869Y011950D01*
X025869Y010845D02*
X026294Y010845D01*
X026379Y010760D01*
X026379Y010590D01*
X026294Y010505D01*
X025869Y010505D01*
X025954Y010293D02*
X026124Y010293D01*
X026209Y010208D01*
X026209Y009953D01*
X026379Y009953D02*
X025869Y009953D01*
X025869Y010208D01*
X025954Y010293D01*
X025869Y009740D02*
X026379Y009740D01*
X025869Y009400D01*
X026379Y009400D01*
X026379Y009202D02*
X026379Y009032D01*
X026379Y009117D02*
X025869Y009117D01*
X025869Y009032D02*
X025869Y009202D01*
X027169Y009202D02*
X027169Y009032D01*
X027169Y009117D02*
X027679Y009117D01*
X027679Y009032D02*
X027679Y009202D01*
X027679Y009400D02*
X027169Y009400D01*
X027679Y009740D01*
X027169Y009740D01*
X027169Y009953D02*
X027169Y010208D01*
X027254Y010293D01*
X027424Y010293D01*
X027509Y010208D01*
X027509Y009953D01*
X027679Y009953D02*
X027169Y009953D01*
X027169Y010505D02*
X027594Y010505D01*
X027679Y010590D01*
X027679Y010760D01*
X027594Y010845D01*
X027169Y010845D01*
X027169Y011058D02*
X027169Y011398D01*
X027169Y011228D02*
X027679Y011228D01*
X027594Y011610D02*
X027509Y011610D01*
X027424Y011695D01*
X027424Y011865D01*
X027509Y011950D01*
X027594Y011950D01*
X027679Y011865D01*
X027679Y011695D01*
X027594Y011610D01*
X027424Y011695D02*
X027339Y011610D01*
X027254Y011610D01*
X027169Y011695D01*
X027169Y011865D01*
X027254Y011950D01*
X027339Y011950D01*
X027424Y011865D01*
X028654Y010477D02*
X028569Y010392D01*
X028569Y010137D01*
X029079Y010137D01*
X029079Y010392D01*
X028994Y010477D01*
X028654Y010477D01*
X028569Y009925D02*
X029079Y009925D01*
X028569Y009584D01*
X029079Y009584D01*
X028994Y009372D02*
X028824Y009372D01*
X028824Y009202D01*
X028994Y009372D02*
X029079Y009287D01*
X029079Y009117D01*
X028994Y009032D01*
X028654Y009032D01*
X028569Y009117D01*
X028569Y009287D01*
X028654Y009372D01*
X030562Y009287D02*
X030562Y009117D01*
X030647Y009032D01*
X030987Y009032D01*
X031072Y009117D01*
X031072Y009287D01*
X030987Y009372D01*
X030817Y009372D01*
X030817Y009202D01*
X030647Y009372D02*
X030562Y009287D01*
X030562Y009584D02*
X031072Y009925D01*
X030562Y009925D01*
X030562Y010137D02*
X030562Y010392D01*
X030647Y010477D01*
X030987Y010477D01*
X031072Y010392D01*
X031072Y010137D01*
X030562Y010137D01*
X030562Y009584D02*
X031072Y009584D01*
X032033Y009584D02*
X032458Y009584D01*
X032543Y009669D01*
X032543Y009839D01*
X032458Y009925D01*
X032033Y009925D01*
X032033Y010137D02*
X032033Y010477D01*
X032033Y010307D02*
X032543Y010307D01*
X032543Y010689D02*
X032033Y010689D01*
X032033Y010944D01*
X032118Y011030D01*
X032288Y011030D01*
X032373Y010944D01*
X032373Y010689D01*
X032458Y011242D02*
X032033Y011242D01*
X032033Y011582D02*
X032458Y011582D01*
X032543Y011497D01*
X032543Y011327D01*
X032458Y011242D01*
X032033Y011794D02*
X032033Y012134D01*
X032033Y011964D02*
X032543Y011964D01*
X032458Y012347D02*
X032118Y012347D01*
X032033Y012432D01*
X032033Y012602D01*
X032118Y012687D01*
X032458Y012347D01*
X032543Y012432D01*
X032543Y012602D01*
X032458Y012687D01*
X032118Y012687D01*
X033430Y010470D02*
X033345Y010385D01*
X033345Y010130D01*
X033855Y010130D01*
X033855Y010385D01*
X033770Y010470D01*
X033430Y010470D01*
X033345Y009918D02*
X033855Y009918D01*
X033345Y009577D01*
X033855Y009577D01*
X033770Y009365D02*
X033600Y009365D01*
X033600Y009195D01*
X033770Y009365D02*
X033855Y009280D01*
X033855Y009110D01*
X033770Y009025D01*
X033430Y009025D01*
X033345Y009110D01*
X033345Y009280D01*
X033430Y009365D01*
X032543Y009287D02*
X032543Y009117D01*
X032458Y009032D01*
X032118Y009032D01*
X032033Y009117D01*
X032033Y009287D01*
X032118Y009372D01*
X032458Y009372D01*
X032543Y009287D01*
X034722Y009287D02*
X034722Y009117D01*
X034807Y009032D01*
X034977Y009202D02*
X034977Y009287D01*
X035062Y009372D01*
X035147Y009372D01*
X035232Y009287D01*
X035232Y009117D01*
X035147Y009032D01*
X034977Y009287D02*
X034892Y009372D01*
X034807Y009372D01*
X034722Y009287D01*
X034722Y009584D02*
X035062Y009584D01*
X035232Y009754D01*
X035062Y009925D01*
X034722Y009925D01*
X036105Y009918D02*
X036615Y009918D01*
X036105Y009577D01*
X036615Y009577D01*
X036530Y009365D02*
X036360Y009365D01*
X036360Y009195D01*
X036530Y009365D02*
X036615Y009280D01*
X036615Y009110D01*
X036530Y009025D01*
X036190Y009025D01*
X036105Y009110D01*
X036105Y009280D01*
X036190Y009365D01*
X036105Y010130D02*
X036105Y010385D01*
X036190Y010470D01*
X036530Y010470D01*
X036615Y010385D01*
X036615Y010130D01*
X036105Y010130D01*
X037442Y009925D02*
X037782Y009925D01*
X037952Y009754D01*
X037782Y009584D01*
X037442Y009584D01*
X037442Y009372D02*
X037442Y009032D01*
X037697Y009032D01*
X037612Y009202D01*
X037612Y009287D01*
X037697Y009372D01*
X037867Y009372D01*
X037952Y009287D01*
X037952Y009117D01*
X037867Y009032D01*
X037830Y030989D02*
X038000Y031330D01*
X038212Y031330D02*
X038382Y031500D01*
X038382Y030989D01*
X038212Y030989D02*
X038553Y030989D01*
X038765Y030989D02*
X038850Y030989D01*
X038850Y031075D01*
X038765Y031075D01*
X038765Y030989D01*
X039041Y030989D02*
X039381Y030989D01*
X039211Y030989D02*
X039211Y031500D01*
X039041Y031330D01*
X037830Y030989D02*
X037660Y031330D01*
X036902Y031330D02*
X036817Y031330D01*
X036647Y031160D01*
X036647Y031330D02*
X036647Y030989D01*
X036435Y031160D02*
X036094Y031160D01*
X036094Y031245D02*
X036180Y031330D01*
X036350Y031330D01*
X036435Y031245D01*
X036435Y031160D01*
X036350Y030989D02*
X036180Y030989D01*
X036094Y031075D01*
X036094Y031245D01*
X035882Y031330D02*
X035542Y030989D01*
X035882Y030989D01*
X035882Y031330D02*
X035542Y031330D01*
X035259Y031330D02*
X035259Y030989D01*
X035174Y030989D02*
X035344Y030989D01*
X035259Y031330D02*
X035174Y031330D01*
X035259Y031500D02*
X035259Y031585D01*
X034962Y031245D02*
X034962Y030989D01*
X034962Y031245D02*
X034876Y031330D01*
X034621Y031330D01*
X034621Y030989D01*
X034409Y031075D02*
X034409Y031245D01*
X034324Y031330D01*
X034154Y031330D01*
X034069Y031245D01*
X034069Y031075D01*
X034154Y030989D01*
X034324Y030989D01*
X034409Y031075D01*
X033864Y031330D02*
X033779Y031330D01*
X033608Y031160D01*
X033608Y031330D02*
X033608Y030989D01*
X033396Y030989D02*
X033396Y031245D01*
X033311Y031330D01*
X033141Y031330D01*
X033056Y031245D01*
X032844Y031330D02*
X032589Y031330D01*
X032503Y031245D01*
X032503Y031075D01*
X032589Y030989D01*
X032844Y030989D01*
X033056Y030989D02*
X033056Y031500D01*
X032291Y031245D02*
X032291Y030989D01*
X032291Y031245D02*
X032206Y031330D01*
X031951Y031330D01*
X031951Y030989D01*
X031739Y030989D02*
X031484Y030989D01*
X031398Y031075D01*
X031398Y031330D01*
X031186Y031330D02*
X030931Y031330D01*
X030846Y031245D01*
X030931Y031160D01*
X031101Y031160D01*
X031186Y031075D01*
X031101Y030989D01*
X030846Y030989D01*
X031569Y030819D02*
X031654Y030819D01*
X031739Y030904D01*
X031739Y031330D01*
X014013Y027912D02*
X013673Y027912D01*
X013843Y027912D02*
X013843Y028423D01*
X013673Y028253D01*
X013460Y028423D02*
X013120Y028423D01*
X013290Y028423D02*
X013290Y027912D01*
X012908Y027998D02*
X012908Y028423D01*
X012568Y028423D02*
X012568Y027998D01*
X012653Y027912D01*
X012823Y027912D01*
X012908Y027998D01*
X012355Y028168D02*
X012355Y028338D01*
X012270Y028423D01*
X012015Y028423D01*
X012015Y027912D01*
X012015Y028083D02*
X012270Y028083D01*
X012355Y028168D01*
X011803Y027912D02*
X011803Y028423D01*
X011463Y028423D02*
X011803Y027912D01*
X011463Y027912D02*
X011463Y028423D01*
X011265Y028423D02*
X011094Y028423D01*
X011179Y028423D02*
X011179Y027912D01*
X011094Y027912D02*
X011265Y027912D01*
X011265Y021398D02*
X011094Y021398D01*
X011179Y021398D02*
X011179Y020888D01*
X011094Y020888D02*
X011265Y020888D01*
X011463Y020888D02*
X011463Y021398D01*
X011803Y020888D01*
X011803Y021398D01*
X012015Y021398D02*
X012270Y021398D01*
X012355Y021313D01*
X012355Y021143D01*
X012270Y021058D01*
X012015Y021058D01*
X012015Y020888D02*
X012015Y021398D01*
X012568Y021398D02*
X012568Y020973D01*
X012653Y020888D01*
X012823Y020888D01*
X012908Y020973D01*
X012908Y021398D01*
X013120Y021398D02*
X013460Y021398D01*
X013290Y021398D02*
X013290Y020888D01*
X013673Y020888D02*
X014013Y021228D01*
X014013Y021313D01*
X013928Y021398D01*
X013758Y021398D01*
X013673Y021313D01*
X013673Y020888D02*
X014013Y020888D01*
X013928Y034937D02*
X013758Y034937D01*
X013673Y035022D01*
X014013Y035362D01*
X014013Y035022D01*
X013928Y034937D01*
X013673Y035022D02*
X013673Y035362D01*
X013758Y035447D01*
X013928Y035447D01*
X014013Y035362D01*
X013460Y035447D02*
X013120Y035447D01*
X013290Y035447D02*
X013290Y034937D01*
X012908Y035022D02*
X012908Y035447D01*
X012568Y035447D02*
X012568Y035022D01*
X012653Y034937D01*
X012823Y034937D01*
X012908Y035022D01*
X012355Y035192D02*
X012270Y035107D01*
X012015Y035107D01*
X012015Y034937D02*
X012015Y035447D01*
X012270Y035447D01*
X012355Y035362D01*
X012355Y035192D01*
X011803Y034937D02*
X011803Y035447D01*
X011463Y035447D02*
X011463Y034937D01*
X011265Y034937D02*
X011094Y034937D01*
X011179Y034937D02*
X011179Y035447D01*
X011094Y035447D02*
X011265Y035447D01*
X011463Y035447D02*
X011803Y034937D01*
D11*
X014057Y034669D02*
X008486Y034669D01*
X008486Y028940D01*
X014057Y028940D01*
X014057Y034669D01*
X011893Y032270D02*
X011506Y032270D01*
X011699Y031513D02*
X011699Y031126D01*
X011506Y031320D02*
X011893Y031320D01*
X014994Y031224D02*
X014994Y030586D01*
X015031Y030586D01*
X015357Y031101D02*
X015357Y031220D01*
X015357Y031101D02*
X015751Y031101D01*
X015751Y031216D01*
X016076Y031224D02*
X016114Y031224D01*
X016114Y030586D01*
X016076Y030586D01*
X015031Y031224D02*
X014994Y031224D01*
X017969Y031955D02*
X018039Y031885D01*
X018179Y031885D01*
X018249Y031955D01*
X018430Y031885D02*
X018430Y032305D01*
X018249Y032235D02*
X018179Y032305D01*
X018039Y032305D01*
X017969Y032235D01*
X017969Y031955D01*
X018430Y031885D02*
X018710Y031885D01*
X018890Y031885D02*
X018890Y032305D01*
X018960Y032095D02*
X019170Y031885D01*
X019350Y031885D02*
X019490Y031885D01*
X019420Y031885D02*
X019420Y032305D01*
X019350Y032305D02*
X019490Y032305D01*
X019657Y032305D02*
X019937Y031885D01*
X019937Y032305D01*
X019657Y032305D02*
X019657Y031885D01*
X019170Y032305D02*
X018890Y032025D01*
X020723Y033000D02*
X020723Y030953D01*
X024739Y030953D01*
X024739Y033000D01*
X020723Y033000D01*
X014057Y027644D02*
X008486Y027644D01*
X008486Y021916D01*
X014057Y021916D01*
X014057Y027644D01*
X011893Y025250D02*
X011506Y025250D01*
X011699Y024494D02*
X011699Y024107D01*
X011506Y024300D02*
X011893Y024300D01*
X014994Y024476D02*
X015031Y024476D01*
X014994Y024476D02*
X014994Y025114D01*
X015031Y025114D01*
X015357Y025110D02*
X015357Y024992D01*
X015751Y024992D01*
X015751Y025106D01*
X016076Y025114D02*
X016114Y025114D01*
X016114Y024476D01*
X016076Y024476D01*
X014057Y020620D02*
X008486Y020620D01*
X008486Y014891D01*
X014057Y014891D01*
X014057Y020620D01*
X014994Y018185D02*
X015031Y018185D01*
X014994Y018185D02*
X014994Y017547D01*
X015031Y017547D01*
X015357Y018063D02*
X015357Y018181D01*
X015357Y018063D02*
X015751Y018063D01*
X015751Y018177D01*
X016076Y018185D02*
X016114Y018185D01*
X016114Y017547D01*
X016076Y017547D01*
X018171Y017627D02*
X018241Y017557D01*
X018381Y017557D01*
X018451Y017627D01*
X018451Y017768D01*
X018381Y017838D01*
X018241Y017838D01*
X018171Y017768D01*
X018171Y017627D01*
X018631Y017557D02*
X018631Y017838D01*
X018841Y017838D01*
X018911Y017768D01*
X018911Y017557D01*
X018841Y018307D02*
X018911Y018377D01*
X018911Y018518D01*
X018841Y018588D01*
X018701Y018588D01*
X018631Y018518D01*
X018631Y018377D01*
X018701Y018307D01*
X018841Y018307D01*
X019162Y018377D02*
X019232Y018307D01*
X019162Y018377D02*
X019162Y018658D01*
X019092Y018588D02*
X019232Y018588D01*
X019399Y018518D02*
X019469Y018588D01*
X019609Y018588D01*
X019679Y018518D01*
X019679Y018448D01*
X019399Y018448D01*
X019399Y018518D02*
X019399Y018377D01*
X019469Y018307D01*
X019609Y018307D01*
X019859Y018307D02*
X019859Y018377D01*
X019929Y018377D01*
X019929Y018307D01*
X019859Y018307D01*
X019859Y018518D02*
X019859Y018588D01*
X019929Y018588D01*
X019929Y018518D01*
X019859Y018518D01*
X020012Y017978D02*
X020082Y017978D01*
X020082Y017557D01*
X020012Y017557D02*
X020153Y017557D01*
X020319Y017557D02*
X020459Y017557D01*
X020389Y017557D02*
X020389Y017978D01*
X020319Y017978D01*
X020620Y018307D02*
X020550Y018377D01*
X020620Y018307D02*
X020760Y018307D01*
X020830Y018377D01*
X020830Y018518D01*
X020760Y018588D01*
X020690Y018588D01*
X020550Y018518D01*
X020550Y018728D01*
X020830Y018728D01*
X021010Y018728D02*
X021010Y018448D01*
X021150Y018307D01*
X021290Y018448D01*
X021290Y018728D01*
X021157Y018048D02*
X021157Y017978D01*
X021157Y017838D02*
X021157Y017557D01*
X021087Y017557D02*
X021227Y017557D01*
X021394Y017557D02*
X021394Y017838D01*
X021604Y017838D01*
X021674Y017768D01*
X021674Y017557D01*
X021854Y017557D02*
X022064Y017557D01*
X022134Y017627D01*
X022134Y017768D01*
X022064Y017838D01*
X021854Y017838D01*
X021854Y017417D01*
X022314Y017627D02*
X022384Y017557D01*
X022595Y017557D01*
X022595Y017838D01*
X022775Y017838D02*
X022915Y017838D01*
X022845Y017908D02*
X022845Y017627D01*
X022915Y017557D01*
X023082Y017557D02*
X023292Y017557D01*
X023362Y017627D01*
X023292Y017698D01*
X023152Y017698D01*
X023082Y017768D01*
X023152Y017838D01*
X023362Y017838D01*
X023132Y018307D02*
X022852Y018588D01*
X022671Y018518D02*
X022671Y018307D01*
X022461Y018307D01*
X022391Y018377D01*
X022461Y018448D01*
X022671Y018448D01*
X022671Y018518D02*
X022601Y018588D01*
X022461Y018588D01*
X022211Y018518D02*
X022211Y018307D01*
X022071Y018307D02*
X022071Y018518D01*
X022141Y018588D01*
X022211Y018518D01*
X022071Y018518D02*
X022001Y018588D01*
X021931Y018588D01*
X021931Y018307D01*
X022314Y017838D02*
X022314Y017627D01*
X022852Y018307D02*
X023132Y018588D01*
X021157Y017838D02*
X021087Y017838D01*
X019832Y017768D02*
X019832Y017557D01*
X019622Y017557D01*
X019552Y017627D01*
X019622Y017698D01*
X019832Y017698D01*
X019832Y017768D02*
X019762Y017838D01*
X019622Y017838D01*
X018451Y018307D02*
X018451Y018728D01*
X018171Y018728D02*
X018451Y018307D01*
X018171Y018307D02*
X018171Y018728D01*
X019676Y014778D02*
X019713Y014778D01*
X019676Y014778D02*
X019676Y014139D01*
X019713Y014139D01*
X020039Y014147D02*
X020039Y014262D01*
X020433Y014262D01*
X020433Y014143D01*
X020759Y014139D02*
X020796Y014139D01*
X020796Y014778D01*
X020759Y014778D01*
X021476Y014733D02*
X021476Y014095D01*
X021513Y014095D01*
X021839Y014103D02*
X021839Y014217D01*
X022233Y014217D01*
X022233Y014099D01*
X022559Y014095D02*
X022596Y014095D01*
X022596Y014733D01*
X022559Y014733D01*
X023319Y014700D02*
X023319Y014062D01*
X023356Y014062D01*
X023682Y014070D02*
X023682Y014185D01*
X024076Y014185D01*
X024076Y014066D01*
X024402Y014062D02*
X024439Y014062D01*
X024439Y014700D01*
X024402Y014700D01*
X025159Y014700D02*
X025159Y014062D01*
X025196Y014062D01*
X025522Y014070D02*
X025522Y014185D01*
X025916Y014185D01*
X025916Y014066D01*
X026242Y014062D02*
X026279Y014062D01*
X026279Y014700D01*
X026242Y014700D01*
X026979Y014700D02*
X026979Y014062D01*
X027016Y014062D01*
X027342Y014070D02*
X027342Y014185D01*
X027736Y014185D01*
X027736Y014066D01*
X028062Y014062D02*
X028099Y014062D01*
X028099Y014700D01*
X028062Y014700D01*
X027016Y014700D02*
X026979Y014700D01*
X025196Y014700D02*
X025159Y014700D01*
X023356Y014700D02*
X023319Y014700D01*
X021513Y014733D02*
X021476Y014733D01*
X016114Y011026D02*
X016114Y010388D01*
X016076Y010388D01*
X015751Y010904D02*
X015357Y010904D01*
X015357Y011022D01*
X015031Y011026D02*
X014994Y011026D01*
X014994Y010388D01*
X015031Y010388D01*
X015751Y010904D02*
X015751Y011018D01*
X016076Y011026D02*
X016114Y011026D01*
X014057Y013606D02*
X008486Y013606D01*
X008486Y007877D01*
X014057Y007877D01*
X014057Y013606D01*
X011893Y011222D02*
X011506Y011222D01*
X011699Y010416D02*
X011699Y010029D01*
X011506Y010222D02*
X011893Y010222D01*
X008447Y008222D02*
X005042Y008222D01*
X005042Y013261D01*
X008457Y013261D01*
X008447Y015236D02*
X005042Y015236D01*
X005042Y020275D01*
X008457Y020275D01*
X008447Y022260D02*
X005042Y022260D01*
X005042Y027300D01*
X008457Y027300D01*
X008447Y029285D02*
X005042Y029285D01*
X005042Y034324D01*
X008457Y034324D01*
X005002Y033734D02*
X000140Y033734D01*
X000140Y029875D01*
X004992Y029875D01*
X005002Y026709D02*
X000140Y026709D01*
X000140Y022851D01*
X004992Y022851D01*
X005002Y019685D02*
X000140Y019685D01*
X000140Y015826D01*
X004992Y015826D01*
X005002Y012671D02*
X000140Y012671D01*
X000140Y008812D01*
X004992Y008812D01*
X011699Y017037D02*
X011699Y017424D01*
X011506Y017231D02*
X011893Y017231D01*
X011893Y018231D02*
X011506Y018231D01*
X031219Y029765D02*
X031219Y030245D01*
X031219Y030005D02*
X031539Y030005D01*
X031539Y030245D02*
X031539Y029765D01*
X031735Y029845D02*
X031815Y029925D01*
X032055Y029925D01*
X032055Y030005D02*
X032055Y029765D01*
X031815Y029765D01*
X031735Y029845D01*
X031815Y030085D02*
X031975Y030085D01*
X032055Y030005D01*
X032250Y030085D02*
X032250Y029765D01*
X032250Y029925D02*
X032410Y030085D01*
X032490Y030085D01*
X032680Y030005D02*
X032680Y029845D01*
X032760Y029765D01*
X033000Y029765D01*
X033000Y030245D01*
X033000Y030085D02*
X032760Y030085D01*
X032680Y030005D01*
X033196Y030085D02*
X033196Y029845D01*
X033276Y029765D01*
X033356Y029845D01*
X033436Y029765D01*
X033516Y029845D01*
X033516Y030085D01*
X033791Y030085D02*
X033951Y030085D01*
X034031Y030005D01*
X034031Y029765D01*
X033791Y029765D01*
X033711Y029845D01*
X033791Y029925D01*
X034031Y029925D01*
X034227Y029925D02*
X034387Y030085D01*
X034467Y030085D01*
X034657Y030005D02*
X034737Y030085D01*
X034897Y030085D01*
X034977Y030005D01*
X034977Y029925D01*
X034657Y029925D01*
X034657Y029845D02*
X034657Y030005D01*
X034657Y029845D02*
X034737Y029765D01*
X034897Y029765D01*
X034724Y029498D02*
X034644Y029418D01*
X034644Y029017D01*
X034564Y029258D02*
X034724Y029258D01*
X034908Y029258D02*
X035228Y029258D01*
X035424Y029258D02*
X035504Y029338D01*
X035664Y029338D01*
X035744Y029258D01*
X035744Y029017D01*
X035939Y029097D02*
X035939Y029338D01*
X035939Y029097D02*
X036019Y029017D01*
X036099Y029097D01*
X036180Y029017D01*
X036260Y029097D01*
X036260Y029338D01*
X036455Y029097D02*
X036535Y029097D01*
X036535Y029017D01*
X036455Y029017D01*
X036455Y029097D01*
X036713Y029097D02*
X036713Y029258D01*
X036793Y029338D01*
X036953Y029338D01*
X037033Y029258D01*
X037033Y029097D01*
X036953Y029017D01*
X036793Y029017D01*
X036713Y029097D01*
X037228Y029017D02*
X037228Y029338D01*
X037228Y029178D02*
X037389Y029338D01*
X037469Y029338D01*
X037658Y029258D02*
X037658Y029097D01*
X037738Y029017D01*
X037978Y029017D01*
X037978Y028937D02*
X037978Y029338D01*
X037738Y029338D01*
X037658Y029258D01*
X037818Y028857D02*
X037898Y028857D01*
X037978Y028937D01*
X037991Y029765D02*
X037830Y029765D01*
X037750Y029845D01*
X037750Y030005D01*
X037830Y030085D01*
X037991Y030085D01*
X038071Y030005D01*
X038071Y029845D01*
X037991Y029765D01*
X038266Y029765D02*
X038266Y030085D01*
X038266Y029925D02*
X038426Y030085D01*
X038506Y030085D01*
X038696Y030085D02*
X038776Y030085D01*
X038856Y030005D01*
X038936Y030085D01*
X039016Y030005D01*
X039016Y029765D01*
X038856Y029765D02*
X038856Y030005D01*
X038696Y030085D02*
X038696Y029765D01*
X037567Y030005D02*
X037407Y030005D01*
X037487Y030165D02*
X037567Y030245D01*
X037487Y030165D02*
X037487Y029765D01*
X037223Y029765D02*
X037143Y029845D01*
X037143Y030165D01*
X037063Y030085D02*
X037223Y030085D01*
X036867Y030005D02*
X036867Y029765D01*
X036627Y029765D01*
X036547Y029845D01*
X036627Y029925D01*
X036867Y029925D01*
X036867Y030005D02*
X036787Y030085D01*
X036627Y030085D01*
X036284Y030245D02*
X036284Y029765D01*
X036364Y029765D02*
X036203Y029765D01*
X036008Y030005D02*
X035928Y029925D01*
X035688Y029925D01*
X035688Y029765D02*
X035688Y030245D01*
X035928Y030245D01*
X036008Y030165D01*
X036008Y030005D01*
X036203Y030245D02*
X036284Y030245D01*
X035424Y029498D02*
X035424Y029017D01*
X034369Y029017D02*
X034129Y029017D01*
X034049Y029097D01*
X034049Y029258D01*
X034129Y029338D01*
X034369Y029338D01*
X034227Y029765D02*
X034227Y030085D01*
X033595Y029338D02*
X033595Y029097D01*
X033515Y029017D01*
X033435Y029097D01*
X033355Y029017D01*
X033275Y029097D01*
X033275Y029338D01*
X033080Y029338D02*
X033080Y029097D01*
X033000Y029017D01*
X032920Y029097D01*
X032840Y029017D01*
X032760Y029097D01*
X032760Y029338D01*
X032564Y029338D02*
X032564Y029097D01*
X032484Y029017D01*
X032404Y029097D01*
X032324Y029017D01*
X032244Y029097D01*
X032244Y029338D01*
X033791Y029097D02*
X033871Y029097D01*
X033871Y029017D01*
X033791Y029017D01*
X033791Y029097D01*
X033707Y026564D02*
X033567Y026564D01*
X033637Y026564D02*
X033637Y026143D01*
X033567Y026143D02*
X033707Y026143D01*
X033874Y026143D02*
X033874Y026424D01*
X034084Y026424D01*
X034154Y026354D01*
X034154Y026143D01*
X034334Y026143D02*
X034544Y026143D01*
X034614Y026214D01*
X034614Y026354D01*
X034544Y026424D01*
X034334Y026424D01*
X034334Y026003D01*
X034795Y026214D02*
X034795Y026424D01*
X034795Y026214D02*
X034865Y026143D01*
X035075Y026143D01*
X035075Y026424D01*
X035255Y026424D02*
X035395Y026424D01*
X035325Y026494D02*
X035325Y026214D01*
X035395Y026143D01*
X035562Y026143D02*
X035772Y026143D01*
X035842Y026214D01*
X035772Y026284D01*
X035632Y026284D01*
X035562Y026354D01*
X035632Y026424D01*
X035842Y026424D01*
X033367Y025534D02*
X033087Y025254D01*
X033157Y025183D01*
X033297Y025183D01*
X033367Y025254D01*
X033367Y025534D01*
X033297Y025604D01*
X033157Y025604D01*
X033087Y025534D01*
X033087Y025254D01*
X033227Y024704D02*
X033227Y024283D01*
X033087Y024283D02*
X033367Y024283D01*
X033087Y024564D02*
X033227Y024704D01*
X033297Y023804D02*
X033157Y023804D01*
X033087Y023734D01*
X033297Y023804D02*
X033367Y023734D01*
X033367Y023664D01*
X033087Y023383D01*
X033367Y023383D01*
X033297Y022904D02*
X033367Y022834D01*
X033367Y022764D01*
X033297Y022694D01*
X033367Y022624D01*
X033367Y022554D01*
X033297Y022483D01*
X033157Y022483D01*
X033087Y022554D01*
X033227Y022694D02*
X033297Y022694D01*
X033297Y022904D02*
X033157Y022904D01*
X033087Y022834D01*
X033297Y022004D02*
X033087Y021794D01*
X033367Y021794D01*
X033297Y022004D02*
X033297Y021583D01*
X033367Y021104D02*
X033087Y021104D01*
X033087Y020894D01*
X033227Y020964D01*
X033297Y020964D01*
X033367Y020894D01*
X033367Y020754D01*
X033297Y020683D01*
X033157Y020683D01*
X033087Y020754D01*
X033367Y020264D02*
X033227Y020194D01*
X033087Y020054D01*
X033297Y020054D01*
X033367Y019984D01*
X033367Y019914D01*
X033297Y019843D01*
X033157Y019843D01*
X033087Y019914D01*
X033087Y020054D01*
X033087Y019364D02*
X033367Y019364D01*
X033367Y019294D01*
X033087Y019014D01*
X033087Y018943D01*
X033157Y018464D02*
X033297Y018464D01*
X033367Y018394D01*
X033367Y018324D01*
X033297Y018254D01*
X033157Y018254D01*
X033087Y018324D01*
X033087Y018394D01*
X033157Y018464D01*
X033157Y018254D02*
X033087Y018184D01*
X033087Y018114D01*
X033157Y018043D01*
X033297Y018043D01*
X033367Y018114D01*
X033367Y018184D01*
X033297Y018254D01*
X033637Y016874D02*
X033567Y016804D01*
X033567Y016524D01*
X033637Y016453D01*
X033777Y016453D01*
X033847Y016524D01*
X033847Y016804D01*
X033777Y016874D01*
X033637Y016874D01*
X034027Y016734D02*
X034027Y016524D01*
X034097Y016453D01*
X034307Y016453D01*
X034307Y016734D01*
X034488Y016734D02*
X034628Y016734D01*
X034558Y016804D02*
X034558Y016524D01*
X034628Y016453D01*
X034795Y016453D02*
X035005Y016453D01*
X035075Y016524D01*
X035075Y016664D01*
X035005Y016734D01*
X034795Y016734D01*
X034795Y016313D01*
X035255Y016524D02*
X035325Y016453D01*
X035535Y016453D01*
X035535Y016734D01*
X035715Y016734D02*
X035855Y016734D01*
X035785Y016804D02*
X035785Y016524D01*
X035855Y016453D01*
X036022Y016453D02*
X036232Y016453D01*
X036303Y016524D01*
X036232Y016594D01*
X036092Y016594D01*
X036022Y016664D01*
X036092Y016734D01*
X036303Y016734D01*
X035255Y016734D02*
X035255Y016524D01*
X033367Y015994D02*
X033087Y015714D01*
X033157Y015643D01*
X033297Y015643D01*
X033367Y015714D01*
X033367Y015994D01*
X033297Y016064D01*
X033157Y016064D01*
X033087Y015994D01*
X033087Y015714D01*
X033437Y011920D02*
X033437Y011605D01*
X033673Y011605D01*
X034303Y011605D02*
X034540Y011605D01*
X034540Y011920D01*
D12*
X039861Y007283D02*
X039859Y007225D01*
X039853Y007168D01*
X039844Y007111D01*
X039831Y007055D01*
X039814Y007000D01*
X039794Y006946D01*
X039770Y006894D01*
X039743Y006843D01*
X039713Y006794D01*
X039679Y006747D01*
X039643Y006703D01*
X039603Y006661D01*
X039561Y006621D01*
X039517Y006585D01*
X039470Y006551D01*
X039421Y006521D01*
X039370Y006494D01*
X039318Y006470D01*
X039264Y006450D01*
X039209Y006433D01*
X039153Y006420D01*
X039096Y006411D01*
X039039Y006405D01*
X038981Y006403D01*
X038842Y006403D01*
X038815Y006401D01*
X038788Y006396D01*
X038762Y006387D01*
X038738Y006375D01*
X038715Y006360D01*
X038695Y006342D01*
X038677Y006322D01*
X038662Y006299D01*
X038650Y006275D01*
X038641Y006249D01*
X038636Y006222D01*
X038634Y006195D01*
X038634Y005801D01*
X038632Y005746D01*
X038626Y005691D01*
X038616Y005636D01*
X038603Y005582D01*
X038585Y005530D01*
X038564Y005479D01*
X038539Y005429D01*
X038511Y005381D01*
X038479Y005336D01*
X038444Y005293D01*
X038407Y005252D01*
X038366Y005215D01*
X038323Y005180D01*
X038278Y005148D01*
X038230Y005120D01*
X038180Y005095D01*
X038129Y005074D01*
X038077Y005056D01*
X038023Y005043D01*
X037968Y005033D01*
X037913Y005027D01*
X037858Y005025D01*
X018938Y005025D01*
X018883Y005027D01*
X018828Y005033D01*
X018773Y005043D01*
X018719Y005056D01*
X018667Y005074D01*
X018616Y005095D01*
X018566Y005120D01*
X018518Y005148D01*
X018473Y005180D01*
X018430Y005215D01*
X018389Y005252D01*
X018352Y005293D01*
X018317Y005336D01*
X018285Y005381D01*
X018257Y005429D01*
X018232Y005479D01*
X018211Y005530D01*
X018193Y005582D01*
X018180Y005636D01*
X018170Y005691D01*
X018164Y005746D01*
X018162Y005801D01*
X018162Y006195D01*
X018160Y006222D01*
X018155Y006249D01*
X018146Y006275D01*
X018134Y006299D01*
X018119Y006322D01*
X018101Y006342D01*
X018081Y006360D01*
X018058Y006375D01*
X018034Y006387D01*
X018008Y006396D01*
X017981Y006401D01*
X017954Y006403D01*
X009152Y006403D01*
X009098Y006405D01*
X009045Y006410D01*
X008992Y006419D01*
X008940Y006432D01*
X008888Y006448D01*
X008838Y006468D01*
X008790Y006491D01*
X008743Y006518D01*
X008698Y006547D01*
X008655Y006580D01*
X008615Y006615D01*
X008577Y006653D01*
X008542Y006693D01*
X008509Y006736D01*
X008480Y006781D01*
X008453Y006828D01*
X008430Y006876D01*
X008410Y006926D01*
X008394Y006978D01*
X008381Y007030D01*
X008372Y007083D01*
X008367Y007136D01*
X008365Y007190D01*
X008365Y037019D01*
X008367Y037077D01*
X008373Y037134D01*
X008382Y037191D01*
X008395Y037247D01*
X008412Y037302D01*
X008432Y037356D01*
X008456Y037408D01*
X008483Y037459D01*
X008513Y037508D01*
X008547Y037555D01*
X008583Y037599D01*
X008623Y037641D01*
X008665Y037681D01*
X008709Y037717D01*
X008756Y037751D01*
X008805Y037781D01*
X008856Y037808D01*
X008908Y037832D01*
X008962Y037852D01*
X009017Y037869D01*
X009073Y037882D01*
X009130Y037891D01*
X009187Y037897D01*
X009245Y037899D01*
X016928Y037899D01*
X016928Y038837D01*
X016930Y038878D01*
X016935Y038918D01*
X016945Y038957D01*
X016958Y038996D01*
X016974Y039033D01*
X016994Y039069D01*
X017017Y039102D01*
X017043Y039133D01*
X017072Y039162D01*
X017103Y039188D01*
X017136Y039211D01*
X017172Y039231D01*
X017209Y039247D01*
X017248Y039260D01*
X017287Y039270D01*
X017327Y039275D01*
X017368Y039277D01*
X028200Y039277D01*
X028241Y039275D01*
X028281Y039270D01*
X028320Y039260D01*
X028359Y039247D01*
X028396Y039231D01*
X028432Y039211D01*
X028465Y039188D01*
X028496Y039162D01*
X028525Y039133D01*
X028551Y039102D01*
X028574Y039069D01*
X028594Y039033D01*
X028610Y038996D01*
X028623Y038957D01*
X028633Y038918D01*
X028638Y038878D01*
X028640Y038837D01*
X028640Y037899D01*
X038981Y037899D01*
X039039Y037897D01*
X039096Y037891D01*
X039153Y037882D01*
X039209Y037869D01*
X039264Y037852D01*
X039318Y037832D01*
X039370Y037808D01*
X039421Y037781D01*
X039470Y037751D01*
X039517Y037717D01*
X039561Y037681D01*
X039603Y037641D01*
X039643Y037599D01*
X039679Y037555D01*
X039713Y037508D01*
X039743Y037459D01*
X039770Y037408D01*
X039794Y037356D01*
X039814Y037302D01*
X039831Y037247D01*
X039844Y037191D01*
X039853Y037134D01*
X039859Y037077D01*
X039861Y037019D01*
X039861Y007283D01*
X030176Y028057D02*
X030178Y028107D01*
X030184Y028157D01*
X030194Y028206D01*
X030208Y028254D01*
X030225Y028301D01*
X030246Y028346D01*
X030271Y028390D01*
X030299Y028431D01*
X030331Y028470D01*
X030365Y028507D01*
X030402Y028541D01*
X030442Y028571D01*
X030484Y028598D01*
X030528Y028622D01*
X030574Y028643D01*
X030621Y028659D01*
X030669Y028672D01*
X030719Y028681D01*
X030768Y028686D01*
X030819Y028687D01*
X030869Y028684D01*
X030918Y028677D01*
X030967Y028666D01*
X031015Y028651D01*
X031061Y028633D01*
X031106Y028611D01*
X031149Y028585D01*
X031190Y028556D01*
X031229Y028524D01*
X031265Y028489D01*
X031297Y028451D01*
X031327Y028411D01*
X031354Y028368D01*
X031377Y028324D01*
X031396Y028278D01*
X031412Y028230D01*
X031424Y028181D01*
X031432Y028132D01*
X031436Y028082D01*
X031436Y028032D01*
X031432Y027982D01*
X031424Y027933D01*
X031412Y027884D01*
X031396Y027836D01*
X031377Y027790D01*
X031354Y027746D01*
X031327Y027703D01*
X031297Y027663D01*
X031265Y027625D01*
X031229Y027590D01*
X031190Y027558D01*
X031149Y027529D01*
X031106Y027503D01*
X031061Y027481D01*
X031015Y027463D01*
X030967Y027448D01*
X030918Y027437D01*
X030869Y027430D01*
X030819Y027427D01*
X030768Y027428D01*
X030719Y027433D01*
X030669Y027442D01*
X030621Y027455D01*
X030574Y027471D01*
X030528Y027492D01*
X030484Y027516D01*
X030442Y027543D01*
X030402Y027573D01*
X030365Y027607D01*
X030331Y027644D01*
X030299Y027683D01*
X030271Y027724D01*
X030246Y027768D01*
X030225Y027813D01*
X030208Y027860D01*
X030194Y027908D01*
X030184Y027957D01*
X030178Y028007D01*
X030176Y028057D01*
X026373Y036867D02*
X026375Y036894D01*
X026381Y036921D01*
X026390Y036947D01*
X026403Y036971D01*
X026419Y036994D01*
X026438Y037013D01*
X026460Y037030D01*
X026484Y037044D01*
X026509Y037054D01*
X026536Y037061D01*
X026563Y037064D01*
X026591Y037063D01*
X026618Y037058D01*
X026644Y037050D01*
X026668Y037038D01*
X026691Y037022D01*
X026712Y037004D01*
X026729Y036983D01*
X026744Y036959D01*
X026755Y036934D01*
X026763Y036908D01*
X026767Y036881D01*
X026767Y036853D01*
X026763Y036826D01*
X026755Y036800D01*
X026744Y036775D01*
X026729Y036751D01*
X026712Y036730D01*
X026691Y036712D01*
X026669Y036696D01*
X026644Y036684D01*
X026618Y036676D01*
X026591Y036671D01*
X026563Y036670D01*
X026536Y036673D01*
X026509Y036680D01*
X026484Y036690D01*
X026460Y036704D01*
X026438Y036721D01*
X026419Y036740D01*
X026403Y036763D01*
X026390Y036787D01*
X026381Y036813D01*
X026375Y036840D01*
X026373Y036867D01*
X024995Y036867D02*
X024997Y036894D01*
X025003Y036921D01*
X025012Y036947D01*
X025025Y036971D01*
X025041Y036994D01*
X025060Y037013D01*
X025082Y037030D01*
X025106Y037044D01*
X025131Y037054D01*
X025158Y037061D01*
X025185Y037064D01*
X025213Y037063D01*
X025240Y037058D01*
X025266Y037050D01*
X025290Y037038D01*
X025313Y037022D01*
X025334Y037004D01*
X025351Y036983D01*
X025366Y036959D01*
X025377Y036934D01*
X025385Y036908D01*
X025389Y036881D01*
X025389Y036853D01*
X025385Y036826D01*
X025377Y036800D01*
X025366Y036775D01*
X025351Y036751D01*
X025334Y036730D01*
X025313Y036712D01*
X025291Y036696D01*
X025266Y036684D01*
X025240Y036676D01*
X025213Y036671D01*
X025185Y036670D01*
X025158Y036673D01*
X025131Y036680D01*
X025106Y036690D01*
X025082Y036704D01*
X025060Y036721D01*
X025041Y036740D01*
X025025Y036763D01*
X025012Y036787D01*
X025003Y036813D01*
X024997Y036840D01*
X024995Y036867D01*
X018624Y036895D02*
X018626Y036930D01*
X018632Y036965D01*
X018642Y036999D01*
X018655Y037032D01*
X018672Y037063D01*
X018693Y037091D01*
X018716Y037118D01*
X018743Y037141D01*
X018771Y037162D01*
X018802Y037179D01*
X018835Y037192D01*
X018869Y037202D01*
X018904Y037208D01*
X018939Y037210D01*
X018974Y037208D01*
X019009Y037202D01*
X019043Y037192D01*
X019076Y037179D01*
X019107Y037162D01*
X019135Y037141D01*
X019162Y037118D01*
X019185Y037091D01*
X019206Y037063D01*
X019223Y037032D01*
X019236Y036999D01*
X019246Y036965D01*
X019252Y036930D01*
X019254Y036895D01*
X019252Y036860D01*
X019246Y036825D01*
X019236Y036791D01*
X019223Y036758D01*
X019206Y036727D01*
X019185Y036699D01*
X019162Y036672D01*
X019135Y036649D01*
X019107Y036628D01*
X019076Y036611D01*
X019043Y036598D01*
X019009Y036588D01*
X018974Y036582D01*
X018939Y036580D01*
X018904Y036582D01*
X018869Y036588D01*
X018835Y036598D01*
X018802Y036611D01*
X018771Y036628D01*
X018743Y036649D01*
X018716Y036672D01*
X018693Y036699D01*
X018672Y036727D01*
X018655Y036758D01*
X018642Y036791D01*
X018632Y036825D01*
X018626Y036860D01*
X018624Y036895D01*
X018624Y034139D02*
X018626Y034174D01*
X018632Y034209D01*
X018642Y034243D01*
X018655Y034276D01*
X018672Y034307D01*
X018693Y034335D01*
X018716Y034362D01*
X018743Y034385D01*
X018771Y034406D01*
X018802Y034423D01*
X018835Y034436D01*
X018869Y034446D01*
X018904Y034452D01*
X018939Y034454D01*
X018974Y034452D01*
X019009Y034446D01*
X019043Y034436D01*
X019076Y034423D01*
X019107Y034406D01*
X019135Y034385D01*
X019162Y034362D01*
X019185Y034335D01*
X019206Y034307D01*
X019223Y034276D01*
X019236Y034243D01*
X019246Y034209D01*
X019252Y034174D01*
X019254Y034139D01*
X019252Y034104D01*
X019246Y034069D01*
X019236Y034035D01*
X019223Y034002D01*
X019206Y033971D01*
X019185Y033943D01*
X019162Y033916D01*
X019135Y033893D01*
X019107Y033872D01*
X019076Y033855D01*
X019043Y033842D01*
X019009Y033832D01*
X018974Y033826D01*
X018939Y033824D01*
X018904Y033826D01*
X018869Y033832D01*
X018835Y033842D01*
X018802Y033855D01*
X018771Y033872D01*
X018743Y033893D01*
X018716Y033916D01*
X018693Y033943D01*
X018672Y033971D01*
X018655Y034002D01*
X018642Y034035D01*
X018632Y034069D01*
X018626Y034104D01*
X018624Y034139D01*
X016790Y028057D02*
X016792Y028107D01*
X016798Y028157D01*
X016808Y028206D01*
X016822Y028254D01*
X016839Y028301D01*
X016860Y028346D01*
X016885Y028390D01*
X016913Y028431D01*
X016945Y028470D01*
X016979Y028507D01*
X017016Y028541D01*
X017056Y028571D01*
X017098Y028598D01*
X017142Y028622D01*
X017188Y028643D01*
X017235Y028659D01*
X017283Y028672D01*
X017333Y028681D01*
X017382Y028686D01*
X017433Y028687D01*
X017483Y028684D01*
X017532Y028677D01*
X017581Y028666D01*
X017629Y028651D01*
X017675Y028633D01*
X017720Y028611D01*
X017763Y028585D01*
X017804Y028556D01*
X017843Y028524D01*
X017879Y028489D01*
X017911Y028451D01*
X017941Y028411D01*
X017968Y028368D01*
X017991Y028324D01*
X018010Y028278D01*
X018026Y028230D01*
X018038Y028181D01*
X018046Y028132D01*
X018050Y028082D01*
X018050Y028032D01*
X018046Y027982D01*
X018038Y027933D01*
X018026Y027884D01*
X018010Y027836D01*
X017991Y027790D01*
X017968Y027746D01*
X017941Y027703D01*
X017911Y027663D01*
X017879Y027625D01*
X017843Y027590D01*
X017804Y027558D01*
X017763Y027529D01*
X017720Y027503D01*
X017675Y027481D01*
X017629Y027463D01*
X017581Y027448D01*
X017532Y027437D01*
X017483Y027430D01*
X017433Y027427D01*
X017382Y027428D01*
X017333Y027433D01*
X017283Y027442D01*
X017235Y027455D01*
X017188Y027471D01*
X017142Y027492D01*
X017098Y027516D01*
X017056Y027543D01*
X017016Y027573D01*
X016979Y027607D01*
X016945Y027644D01*
X016913Y027683D01*
X016885Y027724D01*
X016860Y027768D01*
X016839Y027813D01*
X016822Y027860D01*
X016808Y027908D01*
X016798Y027957D01*
X016792Y028007D01*
X016790Y028057D01*
X011171Y036437D02*
X011173Y036475D01*
X011179Y036513D01*
X011188Y036551D01*
X011202Y036587D01*
X011219Y036621D01*
X011239Y036654D01*
X011263Y036685D01*
X011289Y036712D01*
X011318Y036737D01*
X011350Y036759D01*
X011384Y036778D01*
X011419Y036793D01*
X011456Y036805D01*
X011493Y036813D01*
X011532Y036817D01*
X011570Y036817D01*
X011609Y036813D01*
X011646Y036805D01*
X011683Y036793D01*
X011718Y036778D01*
X011752Y036759D01*
X011784Y036737D01*
X011813Y036712D01*
X011839Y036685D01*
X011863Y036654D01*
X011883Y036621D01*
X011900Y036587D01*
X011914Y036551D01*
X011923Y036513D01*
X011929Y036475D01*
X011931Y036437D01*
X011929Y036399D01*
X011923Y036361D01*
X011914Y036323D01*
X011900Y036287D01*
X011883Y036253D01*
X011863Y036220D01*
X011839Y036189D01*
X011813Y036162D01*
X011784Y036137D01*
X011752Y036115D01*
X011718Y036096D01*
X011683Y036081D01*
X011646Y036069D01*
X011609Y036061D01*
X011570Y036057D01*
X011532Y036057D01*
X011493Y036061D01*
X011456Y036069D01*
X011419Y036081D01*
X011384Y036096D01*
X011350Y036115D01*
X011318Y036137D01*
X011289Y036162D01*
X011263Y036189D01*
X011239Y036220D01*
X011219Y036253D01*
X011202Y036287D01*
X011188Y036323D01*
X011179Y036361D01*
X011173Y036399D01*
X011171Y036437D01*
X010001Y036437D02*
X010003Y036475D01*
X010009Y036513D01*
X010018Y036551D01*
X010032Y036587D01*
X010049Y036621D01*
X010069Y036654D01*
X010093Y036685D01*
X010119Y036712D01*
X010148Y036737D01*
X010180Y036759D01*
X010214Y036778D01*
X010249Y036793D01*
X010286Y036805D01*
X010323Y036813D01*
X010362Y036817D01*
X010400Y036817D01*
X010439Y036813D01*
X010476Y036805D01*
X010513Y036793D01*
X010548Y036778D01*
X010582Y036759D01*
X010614Y036737D01*
X010643Y036712D01*
X010669Y036685D01*
X010693Y036654D01*
X010713Y036621D01*
X010730Y036587D01*
X010744Y036551D01*
X010753Y036513D01*
X010759Y036475D01*
X010761Y036437D01*
X010759Y036399D01*
X010753Y036361D01*
X010744Y036323D01*
X010730Y036287D01*
X010713Y036253D01*
X010693Y036220D01*
X010669Y036189D01*
X010643Y036162D01*
X010614Y036137D01*
X010582Y036115D01*
X010548Y036096D01*
X010513Y036081D01*
X010476Y036069D01*
X010439Y036061D01*
X010400Y036057D01*
X010362Y036057D01*
X010323Y036061D01*
X010286Y036069D01*
X010249Y036081D01*
X010214Y036096D01*
X010180Y036115D01*
X010148Y036137D01*
X010119Y036162D01*
X010093Y036189D01*
X010069Y036220D01*
X010049Y036253D01*
X010032Y036287D01*
X010018Y036323D01*
X010009Y036361D01*
X010003Y036399D01*
X010001Y036437D01*
X016790Y009356D02*
X016792Y009406D01*
X016798Y009456D01*
X016808Y009505D01*
X016822Y009553D01*
X016839Y009600D01*
X016860Y009645D01*
X016885Y009689D01*
X016913Y009730D01*
X016945Y009769D01*
X016979Y009806D01*
X017016Y009840D01*
X017056Y009870D01*
X017098Y009897D01*
X017142Y009921D01*
X017188Y009942D01*
X017235Y009958D01*
X017283Y009971D01*
X017333Y009980D01*
X017382Y009985D01*
X017433Y009986D01*
X017483Y009983D01*
X017532Y009976D01*
X017581Y009965D01*
X017629Y009950D01*
X017675Y009932D01*
X017720Y009910D01*
X017763Y009884D01*
X017804Y009855D01*
X017843Y009823D01*
X017879Y009788D01*
X017911Y009750D01*
X017941Y009710D01*
X017968Y009667D01*
X017991Y009623D01*
X018010Y009577D01*
X018026Y009529D01*
X018038Y009480D01*
X018046Y009431D01*
X018050Y009381D01*
X018050Y009331D01*
X018046Y009281D01*
X018038Y009232D01*
X018026Y009183D01*
X018010Y009135D01*
X017991Y009089D01*
X017968Y009045D01*
X017941Y009002D01*
X017911Y008962D01*
X017879Y008924D01*
X017843Y008889D01*
X017804Y008857D01*
X017763Y008828D01*
X017720Y008802D01*
X017675Y008780D01*
X017629Y008762D01*
X017581Y008747D01*
X017532Y008736D01*
X017483Y008729D01*
X017433Y008726D01*
X017382Y008727D01*
X017333Y008732D01*
X017283Y008741D01*
X017235Y008754D01*
X017188Y008770D01*
X017142Y008791D01*
X017098Y008815D01*
X017056Y008842D01*
X017016Y008872D01*
X016979Y008906D01*
X016945Y008943D01*
X016913Y008982D01*
X016885Y009023D01*
X016860Y009067D01*
X016839Y009112D01*
X016822Y009159D01*
X016808Y009207D01*
X016798Y009256D01*
X016792Y009306D01*
X016790Y009356D01*
D13*
X008310Y000473D02*
X008415Y000368D01*
X008625Y000368D01*
X008730Y000473D01*
X008955Y000473D02*
X009060Y000368D01*
X009270Y000368D01*
X009375Y000473D01*
X009375Y000684D01*
X009270Y000789D01*
X009060Y000789D01*
X008955Y000684D01*
X008955Y000473D01*
X008730Y000894D02*
X008625Y000999D01*
X008415Y000999D01*
X008310Y000894D01*
X008310Y000473D01*
X009599Y000368D02*
X009914Y000368D01*
X010019Y000473D01*
X010019Y000684D01*
X009914Y000789D01*
X009599Y000789D01*
X009599Y000158D01*
X010244Y000473D02*
X010349Y000368D01*
X010664Y000368D01*
X010664Y000263D02*
X010559Y000158D01*
X010454Y000158D01*
X010664Y000263D02*
X010664Y000789D01*
X010888Y000789D02*
X010888Y000368D01*
X010888Y000579D02*
X011098Y000789D01*
X011204Y000789D01*
X011425Y000789D02*
X011530Y000789D01*
X011530Y000368D01*
X011425Y000368D02*
X011636Y000368D01*
X011855Y000473D02*
X011960Y000368D01*
X012275Y000368D01*
X012275Y000263D02*
X012275Y000789D01*
X011960Y000789D01*
X011855Y000684D01*
X011855Y000473D01*
X012065Y000158D02*
X012170Y000158D01*
X012275Y000263D01*
X012500Y000368D02*
X012500Y000999D01*
X012605Y000789D02*
X012500Y000684D01*
X012605Y000789D02*
X012815Y000789D01*
X012920Y000684D01*
X012920Y000368D01*
X013249Y000473D02*
X013354Y000368D01*
X013249Y000473D02*
X013249Y000894D01*
X013144Y000789D02*
X013354Y000789D01*
X014218Y000894D02*
X014324Y000999D01*
X014534Y000999D01*
X014639Y000894D01*
X014639Y000789D01*
X014218Y000368D01*
X014639Y000368D01*
X014863Y000473D02*
X015283Y000894D01*
X015283Y000473D01*
X015178Y000368D01*
X014968Y000368D01*
X014863Y000473D01*
X014863Y000894D01*
X014968Y000999D01*
X015178Y000999D01*
X015283Y000894D01*
X015508Y000789D02*
X015718Y000999D01*
X015718Y000368D01*
X015508Y000368D02*
X015928Y000368D01*
X016152Y000473D02*
X016257Y000368D01*
X016467Y000368D01*
X016572Y000473D01*
X016572Y000894D01*
X016467Y000999D01*
X016257Y000999D01*
X016152Y000894D01*
X016152Y000789D01*
X016257Y000684D01*
X016572Y000684D01*
X017441Y000684D02*
X017862Y000684D01*
X017862Y000789D02*
X017862Y000368D01*
X018086Y000368D02*
X018086Y000789D01*
X018086Y000579D02*
X018296Y000789D01*
X018401Y000789D01*
X018623Y000789D02*
X018833Y000789D01*
X018728Y000894D02*
X018728Y000473D01*
X018833Y000368D01*
X019053Y000473D02*
X019158Y000368D01*
X019473Y000368D01*
X019473Y000789D01*
X019697Y000789D02*
X019697Y000368D01*
X019697Y000579D02*
X019907Y000789D01*
X020012Y000789D01*
X020879Y000789D02*
X020984Y000684D01*
X021194Y000684D01*
X021299Y000579D01*
X021299Y000473D01*
X021194Y000368D01*
X020984Y000368D01*
X020879Y000473D01*
X020879Y000789D02*
X020879Y000894D01*
X020984Y000999D01*
X021194Y000999D01*
X021299Y000894D01*
X021523Y000789D02*
X021628Y000789D01*
X021628Y000368D01*
X021523Y000368D02*
X021733Y000368D01*
X021953Y000368D02*
X022163Y000368D01*
X022058Y000368D02*
X022058Y000999D01*
X021953Y000999D01*
X021628Y000999D02*
X021628Y001104D01*
X022383Y000789D02*
X022593Y000368D01*
X022803Y000789D01*
X023132Y000789D02*
X023343Y000789D01*
X023448Y000684D01*
X023448Y000368D01*
X023132Y000368D01*
X023027Y000473D01*
X023132Y000579D01*
X023448Y000579D01*
X024316Y000473D02*
X024421Y000368D01*
X024737Y000368D01*
X024737Y000684D01*
X024632Y000789D01*
X024421Y000789D01*
X024421Y000579D02*
X024737Y000579D01*
X024961Y000789D02*
X025276Y000789D01*
X025381Y000684D01*
X025381Y000368D01*
X025605Y000473D02*
X025711Y000368D01*
X026026Y000368D01*
X026026Y000999D01*
X026026Y000789D02*
X025711Y000789D01*
X025605Y000684D01*
X025605Y000473D01*
X024961Y000368D02*
X024961Y000789D01*
X024421Y000579D02*
X024316Y000473D01*
X025493Y002258D02*
X025598Y002258D01*
X025704Y002363D01*
X025704Y002889D01*
X025388Y002889D01*
X025283Y002784D01*
X025283Y002573D01*
X025388Y002468D01*
X025704Y002468D01*
X025928Y002468D02*
X026348Y003099D01*
X026572Y002994D02*
X026572Y002573D01*
X026677Y002468D01*
X026888Y002468D01*
X026993Y002573D01*
X026993Y002994D01*
X026888Y003099D01*
X026677Y003099D01*
X026572Y002994D01*
X027217Y003099D02*
X027217Y002468D01*
X027217Y002784D02*
X027637Y002784D01*
X027637Y003099D02*
X027637Y002468D01*
X027861Y002468D02*
X027861Y003099D01*
X027861Y002468D02*
X028282Y002468D01*
X028506Y002468D02*
X028716Y002679D01*
X028716Y002889D01*
X028506Y003099D01*
X028504Y001104D02*
X028504Y000999D01*
X028504Y000789D02*
X028504Y000368D01*
X028399Y000368D02*
X028609Y000368D01*
X028828Y000368D02*
X029143Y000368D01*
X029249Y000473D01*
X029249Y000684D01*
X029143Y000789D01*
X028828Y000789D01*
X028828Y000158D01*
X028504Y000789D02*
X028399Y000789D01*
X028074Y000999D02*
X028074Y000368D01*
X027969Y000368D02*
X028179Y000368D01*
X027749Y000368D02*
X027539Y000368D01*
X027644Y000368D02*
X027644Y000789D01*
X027539Y000789D01*
X027644Y000999D02*
X027644Y001104D01*
X027969Y000999D02*
X028074Y000999D01*
X027315Y000999D02*
X026895Y000999D01*
X026895Y000368D01*
X026895Y000684D02*
X027105Y000684D01*
X029473Y000684D02*
X029578Y000789D01*
X029788Y000789D01*
X029893Y000684D01*
X029893Y000579D01*
X029473Y000579D01*
X029473Y000684D02*
X029473Y000473D01*
X029578Y000368D01*
X029788Y000368D01*
X030762Y000473D02*
X030867Y000368D01*
X031077Y000368D01*
X031182Y000473D01*
X031406Y000473D02*
X031511Y000579D01*
X031827Y000579D01*
X031827Y000684D02*
X031827Y000368D01*
X031511Y000368D01*
X031406Y000473D01*
X031511Y000789D02*
X031722Y000789D01*
X031827Y000684D01*
X032051Y000789D02*
X032051Y000368D01*
X032051Y000579D02*
X032261Y000789D01*
X032366Y000789D01*
X032588Y000789D02*
X032798Y000368D01*
X033008Y000789D01*
X033338Y000789D02*
X033548Y000789D01*
X033653Y000684D01*
X033653Y000368D01*
X033338Y000368D01*
X033233Y000473D01*
X033338Y000579D01*
X033653Y000579D01*
X033877Y000368D02*
X034087Y000368D01*
X033982Y000368D02*
X033982Y000999D01*
X033877Y000999D01*
X034307Y000999D02*
X034307Y000368D01*
X034307Y000684D02*
X034412Y000789D01*
X034622Y000789D01*
X034727Y000684D01*
X034727Y000368D01*
X034951Y000473D02*
X035057Y000368D01*
X035267Y000368D01*
X035372Y000473D01*
X035372Y000684D01*
X035267Y000789D01*
X035057Y000789D01*
X034951Y000684D01*
X034951Y000473D01*
X031182Y000894D02*
X031077Y000999D01*
X030867Y000999D01*
X030762Y000894D01*
X030762Y000473D01*
X025596Y003518D02*
X025596Y003834D01*
X025491Y003939D01*
X025176Y003939D01*
X025176Y003518D01*
X024952Y003729D02*
X024531Y003729D01*
X024531Y003834D02*
X024636Y003939D01*
X024846Y003939D01*
X024952Y003834D01*
X024952Y003729D01*
X024846Y003518D02*
X024636Y003518D01*
X024531Y003623D01*
X024531Y003834D01*
X024307Y003834D02*
X024307Y003623D01*
X024202Y003518D01*
X023887Y003518D01*
X023887Y003308D02*
X023887Y003939D01*
X024202Y003939D01*
X024307Y003834D01*
X023662Y003623D02*
X023662Y004044D01*
X023557Y004149D01*
X023347Y004149D01*
X023242Y004044D01*
X023242Y003623D01*
X023347Y003518D01*
X023557Y003518D01*
X023662Y003623D01*
X023557Y002889D02*
X023452Y002889D01*
X023242Y002679D01*
X023242Y002889D02*
X023242Y002468D01*
X023018Y002573D02*
X022913Y002468D01*
X022598Y002468D01*
X022598Y002258D02*
X022598Y002889D01*
X022913Y002889D01*
X023018Y002784D01*
X023018Y002573D01*
X023779Y002573D02*
X023884Y002573D01*
X023884Y002468D01*
X023779Y002468D01*
X023779Y002573D01*
X024102Y002573D02*
X024207Y002468D01*
X024417Y002468D01*
X024522Y002573D01*
X024522Y002784D01*
X024417Y002889D01*
X024207Y002889D01*
X024102Y002784D01*
X024102Y002573D01*
X024746Y002468D02*
X024746Y002889D01*
X024956Y002889D02*
X025061Y002889D01*
X024956Y002889D02*
X024746Y002679D01*
X022373Y002679D02*
X022058Y002679D01*
X021953Y002573D01*
X022058Y002468D01*
X022373Y002468D01*
X022373Y002784D01*
X022268Y002889D01*
X022058Y002889D01*
X021733Y002889D02*
X021523Y002889D01*
X021628Y002994D02*
X021628Y002573D01*
X021733Y002468D01*
X021306Y002468D02*
X021201Y002468D01*
X021201Y002573D01*
X021306Y002573D01*
X021306Y002468D01*
X020977Y002573D02*
X020977Y002889D01*
X020977Y002573D02*
X020872Y002468D01*
X020767Y002573D01*
X020662Y002468D01*
X020556Y002573D01*
X020556Y002889D01*
X020332Y002889D02*
X020332Y002573D01*
X020227Y002468D01*
X020122Y002573D01*
X020017Y002468D01*
X019912Y002573D01*
X019912Y002889D01*
X019688Y002889D02*
X019688Y002573D01*
X019583Y002468D01*
X019478Y002573D01*
X019372Y002468D01*
X019267Y002573D01*
X019267Y002889D01*
X019048Y003099D02*
X018838Y002889D01*
X018838Y002679D01*
X019048Y002468D01*
X019046Y003518D02*
X018835Y003518D01*
X018730Y003623D01*
X018730Y003834D01*
X018835Y003939D01*
X019046Y003939D01*
X019151Y003834D01*
X019151Y003729D01*
X018730Y003729D01*
X018506Y003834D02*
X018506Y003518D01*
X018506Y003834D02*
X018401Y003939D01*
X018191Y003939D01*
X018086Y003834D01*
X017866Y003939D02*
X017656Y003939D01*
X017761Y004044D02*
X017761Y003623D01*
X017866Y003518D01*
X018086Y003518D02*
X018086Y004149D01*
X017864Y002889D02*
X017654Y002889D01*
X017549Y002784D01*
X017549Y002573D01*
X017654Y002468D01*
X017864Y002468D01*
X017969Y002679D02*
X017549Y002679D01*
X017324Y002573D02*
X017219Y002679D01*
X017009Y002679D01*
X016904Y002784D01*
X017009Y002889D01*
X017324Y002889D01*
X017324Y002573D02*
X017219Y002468D01*
X016904Y002468D01*
X016680Y002468D02*
X016680Y002784D01*
X016575Y002889D01*
X016259Y002889D01*
X016259Y002468D01*
X016035Y002679D02*
X015615Y002679D01*
X015615Y002784D02*
X015720Y002889D01*
X015930Y002889D01*
X016035Y002784D01*
X016035Y002679D01*
X015930Y002468D02*
X015720Y002468D01*
X015615Y002573D01*
X015615Y002784D01*
X015391Y002889D02*
X015075Y002889D01*
X014970Y002784D01*
X014970Y002573D01*
X015075Y002468D01*
X015391Y002468D01*
X014751Y002468D02*
X014541Y002468D01*
X014646Y002468D02*
X014646Y002889D01*
X014541Y002889D01*
X014646Y003099D02*
X014646Y003204D01*
X014541Y003518D02*
X014541Y003939D01*
X014856Y003939D01*
X014961Y003834D01*
X014961Y003518D01*
X015185Y003623D02*
X015290Y003518D01*
X015606Y003518D01*
X015606Y004149D01*
X015606Y003939D02*
X015290Y003939D01*
X015185Y003834D01*
X015185Y003623D01*
X015830Y003623D02*
X015935Y003518D01*
X016145Y003518D01*
X016250Y003729D02*
X015830Y003729D01*
X015830Y003834D02*
X015935Y003939D01*
X016145Y003939D01*
X016250Y003834D01*
X016250Y003729D01*
X016474Y003729D02*
X016685Y003939D01*
X016790Y003939D01*
X016474Y003939D02*
X016474Y003518D01*
X015830Y003623D02*
X015830Y003834D01*
X014316Y003939D02*
X014316Y003518D01*
X014001Y003518D01*
X013896Y003623D01*
X013896Y003939D01*
X013896Y003099D02*
X013896Y002468D01*
X014316Y002468D01*
X013027Y002679D02*
X012607Y002679D01*
X012607Y002784D02*
X012712Y002889D01*
X012922Y002889D01*
X013027Y002784D01*
X013027Y002679D01*
X012922Y002468D02*
X012712Y002468D01*
X012607Y002573D01*
X012607Y002784D01*
X012385Y002889D02*
X012280Y002889D01*
X012070Y002679D01*
X012070Y002889D02*
X012070Y002468D01*
X011846Y002468D02*
X011530Y002468D01*
X011425Y002573D01*
X011530Y002679D01*
X011846Y002679D01*
X011846Y002784D02*
X011846Y002468D01*
X011846Y002784D02*
X011741Y002889D01*
X011530Y002889D01*
X011201Y002889D02*
X011201Y002573D01*
X011096Y002468D01*
X010991Y002573D01*
X010886Y002468D01*
X010781Y002573D01*
X010781Y002889D01*
X010557Y002889D02*
X010241Y002889D01*
X010136Y002784D01*
X010136Y002573D01*
X010241Y002468D01*
X010557Y002468D01*
X010557Y003099D01*
X010673Y003518D02*
X010673Y003939D01*
X010989Y003939D01*
X011094Y003834D01*
X011094Y003518D01*
X011318Y003518D02*
X011633Y003518D01*
X011738Y003623D01*
X011633Y003729D01*
X011423Y003729D01*
X011318Y003834D01*
X011423Y003939D01*
X011738Y003939D01*
X011962Y003834D02*
X012068Y003939D01*
X012278Y003939D01*
X012383Y003834D01*
X012383Y003729D01*
X011962Y003729D01*
X011962Y003834D02*
X011962Y003623D01*
X012068Y003518D01*
X012278Y003518D01*
X012607Y003623D02*
X012607Y003834D01*
X012712Y003939D01*
X013027Y003939D01*
X013027Y004149D02*
X013027Y003518D01*
X012712Y003518D01*
X012607Y003623D01*
X010449Y003729D02*
X010029Y003729D01*
X010029Y003834D02*
X010134Y003939D01*
X010344Y003939D01*
X010449Y003834D01*
X010449Y003729D01*
X010344Y003518D02*
X010134Y003518D01*
X010029Y003623D01*
X010029Y003834D01*
X009805Y003939D02*
X009489Y003939D01*
X009384Y003834D01*
X009384Y003623D01*
X009489Y003518D01*
X009805Y003518D01*
X009809Y002889D02*
X009914Y002889D01*
X009809Y002889D02*
X009599Y002679D01*
X009599Y002889D02*
X009599Y002468D01*
X009375Y002468D02*
X009060Y002468D01*
X008955Y002573D01*
X009060Y002679D01*
X009375Y002679D01*
X009375Y002784D02*
X009375Y002468D01*
X009375Y002784D02*
X009270Y002889D01*
X009060Y002889D01*
X008730Y002784D02*
X008310Y002784D01*
X008310Y003099D02*
X008310Y002468D01*
X008730Y002468D02*
X008730Y003099D01*
X008730Y003518D02*
X008310Y003518D01*
X008310Y004149D01*
X008955Y003939D02*
X009060Y003939D01*
X009060Y003518D01*
X008955Y003518D02*
X009165Y003518D01*
X009060Y004149D02*
X009060Y004254D01*
X011530Y001104D02*
X011530Y000999D01*
X010244Y000789D02*
X010244Y000473D01*
X017441Y000368D02*
X017441Y000789D01*
X017651Y000999D01*
X017862Y000789D01*
X019053Y000789D02*
X019053Y000473D01*
X017969Y002679D02*
X017969Y002784D01*
X017864Y002889D01*
X020019Y004149D02*
X020440Y004149D01*
X020230Y004149D02*
X020230Y003518D01*
X020664Y003518D02*
X020664Y003939D01*
X020874Y004149D01*
X021084Y003939D01*
X021084Y003518D01*
X021308Y003518D02*
X021308Y004149D01*
X021624Y004149D01*
X021729Y004044D01*
X021729Y003834D01*
X021624Y003729D01*
X021308Y003729D01*
X021084Y003834D02*
X020664Y003834D01*
X021953Y003729D02*
X022268Y003729D01*
X022373Y003834D01*
X022373Y004044D01*
X022268Y004149D01*
X021953Y004149D01*
X021953Y003518D01*
X022163Y003729D02*
X022373Y003518D01*
X009188Y009958D02*
X008901Y009958D01*
X009045Y009958D02*
X009045Y010388D01*
X008901Y010244D01*
X008951Y010938D02*
X009238Y011224D01*
X009238Y011296D01*
X009166Y011368D01*
X009023Y011368D01*
X008951Y011296D01*
X008951Y010938D02*
X009238Y010938D01*
X009188Y016946D02*
X008901Y016946D01*
X009045Y016946D02*
X009045Y017377D01*
X008901Y017233D01*
X008951Y017926D02*
X009238Y018213D01*
X009238Y018285D01*
X009166Y018357D01*
X009023Y018357D01*
X008951Y018285D01*
X008951Y017926D02*
X009238Y017926D01*
X009188Y023996D02*
X008901Y023996D01*
X009045Y023996D02*
X009045Y024426D01*
X008901Y024283D01*
X008951Y024976D02*
X009238Y025263D01*
X009238Y025334D01*
X009166Y025406D01*
X009023Y025406D01*
X008951Y025334D01*
X008951Y024976D02*
X009238Y024976D01*
X009188Y031025D02*
X008901Y031025D01*
X009045Y031025D02*
X009045Y031456D01*
X008901Y031312D01*
X008951Y032005D02*
X009238Y032292D01*
X009238Y032364D01*
X009166Y032436D01*
X009023Y032436D01*
X008951Y032364D01*
X008951Y032005D02*
X009238Y032005D01*
D14*
X010365Y037322D02*
X010308Y037379D01*
X010365Y037322D02*
X010478Y037322D01*
X010535Y037379D01*
X010535Y037436D01*
X010478Y037492D01*
X010365Y037492D01*
X010308Y037549D01*
X010308Y037606D01*
X010365Y037663D01*
X010478Y037663D01*
X010535Y037606D01*
X010676Y037663D02*
X010903Y037663D01*
X010790Y037663D02*
X010790Y037322D01*
X011045Y037322D02*
X011045Y037549D01*
X011158Y037663D01*
X011272Y037549D01*
X011272Y037322D01*
X011272Y037492D02*
X011045Y037492D01*
X011413Y037663D02*
X011640Y037663D01*
X011526Y037663D02*
X011526Y037322D01*
X011781Y037322D02*
X011781Y037663D01*
X012008Y037663D01*
X011895Y037492D02*
X011781Y037492D01*
X011781Y037322D02*
X012008Y037322D01*
X028465Y030521D02*
X029080Y030521D01*
X029080Y029401D02*
X028465Y029401D01*
X032402Y036174D02*
X032288Y036288D01*
X032288Y036401D01*
X032402Y036515D01*
X032534Y036401D02*
X032534Y036231D01*
X032591Y036174D01*
X032647Y036231D01*
X032704Y036174D01*
X032761Y036231D01*
X032761Y036401D01*
X032902Y036401D02*
X032902Y036231D01*
X032959Y036174D01*
X033016Y036231D01*
X033072Y036174D01*
X033129Y036231D01*
X033129Y036401D01*
X033271Y036401D02*
X033271Y036231D01*
X033327Y036174D01*
X033384Y036231D01*
X033441Y036174D01*
X033497Y036231D01*
X033497Y036401D01*
X033639Y036231D02*
X033696Y036231D01*
X033696Y036174D01*
X033639Y036174D01*
X033639Y036231D01*
X033880Y036231D02*
X033936Y036174D01*
X033880Y036231D02*
X033880Y036458D01*
X033936Y036401D02*
X033823Y036401D01*
X034069Y036231D02*
X034125Y036288D01*
X034295Y036288D01*
X034295Y036344D02*
X034295Y036174D01*
X034125Y036174D01*
X034069Y036231D01*
X034125Y036401D02*
X034239Y036401D01*
X034295Y036344D01*
X034437Y036401D02*
X034607Y036401D01*
X034664Y036344D01*
X034664Y036231D01*
X034607Y036174D01*
X034437Y036174D01*
X034437Y036061D02*
X034437Y036401D01*
X034805Y036401D02*
X034805Y036174D01*
X034805Y036288D02*
X034919Y036401D01*
X034975Y036401D01*
X035112Y036231D02*
X035169Y036231D01*
X035169Y036174D01*
X035112Y036174D01*
X035112Y036231D01*
X035296Y036231D02*
X035353Y036174D01*
X035466Y036174D01*
X035523Y036231D01*
X035523Y036344D01*
X035466Y036401D01*
X035353Y036401D01*
X035296Y036344D01*
X035296Y036231D01*
X035665Y036288D02*
X035778Y036401D01*
X035835Y036401D01*
X035971Y036344D02*
X035971Y036231D01*
X036028Y036174D01*
X036198Y036174D01*
X036198Y036118D02*
X036198Y036401D01*
X036028Y036401D01*
X035971Y036344D01*
X036085Y036061D02*
X036142Y036061D01*
X036198Y036118D01*
X036340Y036174D02*
X036567Y036515D01*
X036708Y036458D02*
X036708Y036231D01*
X036765Y036174D01*
X036878Y036174D01*
X036935Y036231D01*
X036935Y036458D01*
X036878Y036515D01*
X036765Y036515D01*
X036708Y036458D01*
X036689Y036774D02*
X036463Y036774D01*
X036463Y037115D01*
X036545Y037374D02*
X036489Y037431D01*
X036489Y037658D01*
X036545Y037601D02*
X036432Y037601D01*
X036677Y037544D02*
X036734Y037601D01*
X036848Y037601D01*
X036904Y037544D01*
X036904Y037374D01*
X037046Y037431D02*
X037046Y037544D01*
X037102Y037601D01*
X037216Y037601D01*
X037273Y037544D01*
X037273Y037488D01*
X037046Y037488D01*
X037046Y037431D02*
X037102Y037374D01*
X037216Y037374D01*
X037133Y037001D02*
X037076Y036944D01*
X037076Y036831D01*
X037133Y036774D01*
X037303Y036774D01*
X037445Y036831D02*
X037445Y036944D01*
X037501Y037001D01*
X037615Y037001D01*
X037672Y036944D01*
X037672Y036888D01*
X037445Y036888D01*
X037445Y036831D02*
X037501Y036774D01*
X037615Y036774D01*
X037813Y036774D02*
X037813Y037001D01*
X037983Y037001D01*
X038040Y036944D01*
X038040Y036774D01*
X038181Y036774D02*
X038352Y036774D01*
X038408Y036831D01*
X038352Y036888D01*
X038238Y036888D01*
X038181Y036944D01*
X038238Y037001D01*
X038408Y037001D01*
X038550Y036944D02*
X038606Y037001D01*
X038720Y037001D01*
X038777Y036944D01*
X038777Y036888D01*
X038550Y036888D01*
X038550Y036944D02*
X038550Y036831D01*
X038606Y036774D01*
X038720Y036774D01*
X038887Y037374D02*
X038887Y037715D01*
X039057Y037715D01*
X039114Y037658D01*
X039114Y037544D01*
X039057Y037488D01*
X038887Y037488D01*
X039001Y037488D02*
X039114Y037374D01*
X038746Y037544D02*
X038689Y037488D01*
X038519Y037488D01*
X038519Y037374D02*
X038519Y037715D01*
X038689Y037715D01*
X038746Y037658D01*
X038746Y037544D01*
X038378Y037544D02*
X038151Y037544D01*
X038151Y037601D02*
X038264Y037715D01*
X038378Y037601D01*
X038378Y037374D01*
X038151Y037374D02*
X038151Y037601D01*
X038009Y037715D02*
X037782Y037715D01*
X037896Y037715D02*
X037896Y037374D01*
X037303Y037001D02*
X037133Y037001D01*
X036888Y037001D02*
X036888Y036774D01*
X036944Y036774D02*
X036831Y036774D01*
X036831Y037001D02*
X036888Y037001D01*
X036888Y037115D02*
X036888Y037171D01*
X036677Y037374D02*
X036677Y037715D01*
X035927Y037601D02*
X035870Y037601D01*
X035757Y037488D01*
X035757Y037601D02*
X035757Y037374D01*
X035615Y037488D02*
X035388Y037488D01*
X035388Y037544D02*
X035388Y037431D01*
X035445Y037374D01*
X035558Y037374D01*
X035615Y037488D02*
X035615Y037544D01*
X035558Y037601D01*
X035445Y037601D01*
X035388Y037544D01*
X035247Y037601D02*
X035077Y037601D01*
X035020Y037544D01*
X035020Y037431D01*
X035077Y037374D01*
X035247Y037374D01*
X035247Y037715D01*
X034879Y037544D02*
X034879Y037374D01*
X034879Y037544D02*
X034822Y037601D01*
X034652Y037601D01*
X034652Y037374D01*
X034510Y037374D02*
X034510Y037601D01*
X034283Y037601D02*
X034283Y037431D01*
X034340Y037374D01*
X034510Y037374D01*
X034541Y037115D02*
X034541Y036774D01*
X034371Y036774D01*
X034314Y036831D01*
X034314Y036944D01*
X034371Y037001D01*
X034541Y037001D01*
X034682Y037001D02*
X034682Y036831D01*
X034739Y036774D01*
X034796Y036831D01*
X034853Y036774D01*
X034909Y036831D01*
X034909Y037001D01*
X035107Y037001D02*
X035221Y037001D01*
X035278Y036944D01*
X035278Y036774D01*
X035107Y036774D01*
X035051Y036831D01*
X035107Y036888D01*
X035278Y036888D01*
X035419Y036888D02*
X035532Y037001D01*
X035589Y037001D01*
X035726Y036944D02*
X035783Y037001D01*
X035896Y037001D01*
X035953Y036944D01*
X035953Y036888D01*
X035726Y036888D01*
X035726Y036944D02*
X035726Y036831D01*
X035783Y036774D01*
X035896Y036774D01*
X035665Y036401D02*
X035665Y036174D01*
X035419Y036774D02*
X035419Y037001D01*
X034177Y037001D02*
X034121Y037001D01*
X034007Y036888D01*
X034007Y037001D02*
X034007Y036774D01*
X033866Y036774D02*
X033696Y036774D01*
X033639Y036831D01*
X033696Y036888D01*
X033866Y036888D01*
X033866Y036944D02*
X033866Y036774D01*
X033866Y036944D02*
X033809Y037001D01*
X033696Y037001D01*
X033497Y036944D02*
X033271Y036944D01*
X033271Y036774D02*
X033271Y037115D01*
X033497Y037115D02*
X033497Y036774D01*
X033603Y037374D02*
X033547Y037431D01*
X033547Y037544D01*
X033603Y037601D01*
X033774Y037601D01*
X033774Y037715D02*
X033774Y037374D01*
X033603Y037374D01*
X033405Y037488D02*
X033405Y037544D01*
X033349Y037601D01*
X033235Y037601D01*
X033178Y037544D01*
X033178Y037431D01*
X033235Y037374D01*
X033349Y037374D01*
X033405Y037488D02*
X033178Y037488D01*
X033037Y037431D02*
X032980Y037488D01*
X032867Y037488D01*
X032810Y037544D01*
X032867Y037601D01*
X033037Y037601D01*
X033037Y037431D02*
X032980Y037374D01*
X032810Y037374D01*
X032669Y037374D02*
X032669Y037544D01*
X032612Y037601D01*
X032442Y037601D01*
X032442Y037374D01*
X032300Y037488D02*
X032073Y037488D01*
X032073Y037544D02*
X032073Y037431D01*
X032130Y037374D01*
X032244Y037374D01*
X032300Y037488D02*
X032300Y037544D01*
X032244Y037601D01*
X032130Y037601D01*
X032073Y037544D01*
X031932Y037601D02*
X031762Y037601D01*
X031705Y037544D01*
X031705Y037431D01*
X031762Y037374D01*
X031932Y037374D01*
X031573Y037374D02*
X031460Y037374D01*
X031516Y037374D02*
X031516Y037601D01*
X031460Y037601D01*
X031516Y037715D02*
X031516Y037771D01*
X031091Y037715D02*
X031091Y037374D01*
X031318Y037374D01*
X031486Y037115D02*
X031429Y037058D01*
X031429Y036831D01*
X031486Y036774D01*
X031599Y036774D01*
X031656Y036831D01*
X031656Y037058D01*
X031599Y037115D01*
X031486Y037115D01*
X031797Y037001D02*
X031967Y037001D01*
X032024Y036944D01*
X032024Y036831D01*
X031967Y036774D01*
X031797Y036774D01*
X031797Y036661D02*
X031797Y037001D01*
X032166Y036944D02*
X032222Y037001D01*
X032336Y037001D01*
X032392Y036944D01*
X032392Y036888D01*
X032166Y036888D01*
X032166Y036944D02*
X032166Y036831D01*
X032222Y036774D01*
X032336Y036774D01*
X032534Y036774D02*
X032534Y037001D01*
X032704Y037001D01*
X032761Y036944D01*
X032761Y036774D01*
X037076Y036515D02*
X037076Y036174D01*
X037076Y036344D02*
X037303Y036344D01*
X037303Y036174D02*
X037303Y036515D01*
X037445Y036515D02*
X037445Y036174D01*
X037672Y036174D01*
X037813Y036174D02*
X037926Y036288D01*
X037926Y036401D01*
X037813Y036515D01*
D15*
X032495Y034853D02*
X032401Y034946D01*
X032294Y034900D02*
X032294Y034853D01*
X032247Y034806D01*
X032153Y034806D01*
X032107Y034853D01*
X032107Y034900D01*
X032153Y034946D01*
X032247Y034946D01*
X032294Y034900D01*
X032247Y034806D02*
X032294Y034760D01*
X032294Y034713D01*
X032247Y034666D01*
X032153Y034666D01*
X032107Y034713D01*
X032107Y034760D01*
X032153Y034806D01*
X031999Y034900D02*
X031812Y034713D01*
X031812Y034666D01*
X031812Y034946D02*
X031999Y034946D01*
X031999Y034900D01*
X032401Y034666D02*
X032495Y034760D01*
X032495Y034853D01*
X031414Y034713D02*
X031414Y034666D01*
X031368Y034666D01*
X031368Y034713D01*
X031414Y034713D01*
X031414Y034666D02*
X031321Y034573D01*
X031213Y034713D02*
X031166Y034666D01*
X031073Y034666D01*
X031026Y034713D01*
X031073Y034806D02*
X031026Y034853D01*
X031026Y034900D01*
X031073Y034946D01*
X031166Y034946D01*
X031213Y034900D01*
X031213Y034713D01*
X031213Y034806D02*
X031073Y034806D01*
X030919Y034806D02*
X030919Y034713D01*
X030872Y034666D01*
X030778Y034666D01*
X030732Y034713D01*
X030732Y034806D02*
X030825Y034853D01*
X030872Y034853D01*
X030919Y034806D01*
X030919Y034946D02*
X030732Y034946D01*
X030732Y034806D01*
X030629Y034666D02*
X030535Y034760D01*
X030535Y034853D01*
X030629Y034946D01*
X030390Y035937D02*
X030250Y035937D01*
X030250Y036217D01*
X030390Y036217D01*
X030437Y036170D01*
X030437Y036124D01*
X030390Y036077D01*
X030250Y036077D01*
X030142Y036030D02*
X030142Y035983D01*
X030096Y035937D01*
X030002Y035937D01*
X029956Y035983D01*
X030002Y036077D02*
X030096Y036077D01*
X030142Y036030D01*
X030142Y036170D02*
X030096Y036217D01*
X030002Y036217D01*
X029956Y036170D01*
X029956Y036124D01*
X030002Y036077D01*
X029848Y035983D02*
X029848Y036217D01*
X029661Y036217D02*
X029661Y035983D01*
X029708Y035937D01*
X029801Y035937D01*
X029848Y035983D01*
X029553Y035983D02*
X029506Y035937D01*
X029413Y035937D01*
X029366Y035983D01*
X029366Y036170D01*
X029413Y036217D01*
X029506Y036217D01*
X029553Y036170D01*
X029543Y036797D02*
X029450Y036890D01*
X029496Y036890D02*
X029356Y036890D01*
X029356Y036797D02*
X029356Y037077D01*
X029496Y037077D01*
X029543Y037030D01*
X029543Y036937D01*
X029496Y036890D01*
X029651Y036843D02*
X029698Y036797D01*
X029791Y036797D01*
X029838Y036843D01*
X029838Y037077D01*
X029946Y037030D02*
X029946Y036984D01*
X029992Y036937D01*
X030086Y036937D01*
X030132Y036890D01*
X030132Y036843D01*
X030086Y036797D01*
X029992Y036797D01*
X029946Y036843D01*
X029946Y037030D02*
X029992Y037077D01*
X030086Y037077D01*
X030132Y037030D01*
X030240Y037077D02*
X030380Y037077D01*
X030427Y037030D01*
X030427Y036984D01*
X030380Y036937D01*
X030240Y036937D01*
X030240Y036797D02*
X030240Y037077D01*
X030380Y036937D02*
X030427Y036890D01*
X030427Y036843D01*
X030380Y036797D01*
X030240Y036797D01*
X029651Y036843D02*
X029651Y037077D01*
X030390Y036077D02*
X030437Y036030D01*
X030437Y035983D01*
X030390Y035937D01*
X027847Y034037D02*
X027661Y034037D01*
X027754Y034037D02*
X027754Y034317D01*
X027661Y034224D01*
X027553Y034037D02*
X027366Y034037D01*
X027459Y034037D02*
X027459Y034317D01*
X027366Y034224D01*
X027258Y034270D02*
X027211Y034317D01*
X027118Y034317D01*
X027071Y034270D01*
X027071Y034083D01*
X027118Y034037D01*
X027211Y034037D01*
X027258Y034083D01*
X026407Y032775D02*
X026454Y032728D01*
X026454Y032681D01*
X026407Y032634D01*
X026454Y032588D01*
X026454Y032541D01*
X026407Y032494D01*
X026314Y032494D01*
X026267Y032541D01*
X026159Y032541D02*
X026113Y032494D01*
X026019Y032494D01*
X025972Y032541D01*
X025972Y032728D01*
X026019Y032775D01*
X026113Y032775D01*
X026159Y032728D01*
X026267Y032728D02*
X026314Y032775D01*
X026407Y032775D01*
X026407Y032634D02*
X026361Y032634D01*
X025869Y032494D02*
X025776Y032494D01*
X025823Y032494D02*
X025823Y032775D01*
X025869Y032775D02*
X025776Y032775D01*
X025833Y031714D02*
X025786Y031667D01*
X025786Y031574D01*
X025833Y031527D01*
X025833Y031714D02*
X025879Y031714D01*
X026066Y031527D01*
X026066Y031714D01*
X026066Y031419D02*
X026066Y031232D01*
X026066Y031326D02*
X025786Y031326D01*
X025879Y031232D01*
X025833Y031125D02*
X025786Y031078D01*
X025786Y030984D01*
X025833Y030938D01*
X026020Y030938D01*
X026066Y030984D01*
X026066Y031078D01*
X026020Y031125D01*
X027152Y030860D02*
X027152Y030673D01*
X027199Y030626D01*
X027292Y030626D01*
X027339Y030673D01*
X027447Y030673D02*
X027494Y030626D01*
X027587Y030626D01*
X027634Y030673D01*
X027634Y030720D01*
X027587Y030766D01*
X027540Y030766D01*
X027587Y030766D02*
X027634Y030813D01*
X027634Y030860D01*
X027587Y030906D01*
X027494Y030906D01*
X027447Y030860D01*
X027339Y030860D02*
X027292Y030906D01*
X027199Y030906D01*
X027152Y030860D01*
X027450Y031702D02*
X027731Y031702D01*
X027731Y031889D01*
X027591Y031997D02*
X027591Y032184D01*
X027731Y032137D02*
X027450Y032137D01*
X027591Y031997D01*
X028429Y030999D02*
X028522Y030999D01*
X028476Y030999D02*
X028476Y030718D01*
X028522Y030718D02*
X028429Y030718D01*
X028625Y030765D02*
X028672Y030718D01*
X028765Y030718D01*
X028812Y030765D01*
X028920Y030718D02*
X029107Y030718D01*
X029013Y030718D02*
X029013Y030999D01*
X028920Y030905D01*
X028812Y030952D02*
X028765Y030999D01*
X028672Y030999D01*
X028625Y030952D01*
X028625Y030765D01*
X029902Y030748D02*
X029949Y030701D01*
X029902Y030748D02*
X029902Y030842D01*
X029949Y030888D01*
X029995Y030888D01*
X030182Y030701D01*
X030182Y030888D01*
X030135Y030594D02*
X030182Y030547D01*
X030182Y030453D01*
X030135Y030407D01*
X029949Y030407D01*
X029902Y030453D01*
X029902Y030547D01*
X029949Y030594D01*
X030597Y030583D02*
X030644Y030537D01*
X030830Y030537D01*
X030877Y030583D01*
X030877Y030677D01*
X030830Y030724D01*
X030877Y030831D02*
X030877Y031018D01*
X030877Y030925D02*
X030597Y030925D01*
X030690Y030831D01*
X030644Y030724D02*
X030597Y030677D01*
X030597Y030583D01*
X027198Y029051D02*
X027058Y028911D01*
X027244Y028911D01*
X027198Y028771D02*
X027198Y029051D01*
X026950Y029005D02*
X026903Y029051D01*
X026810Y029051D01*
X026763Y029005D01*
X026763Y028818D01*
X026810Y028771D01*
X026903Y028771D01*
X026950Y028818D01*
X027542Y025954D02*
X027682Y025954D01*
X027729Y025907D01*
X027729Y025814D01*
X027682Y025767D01*
X027542Y025767D01*
X027542Y025674D02*
X027542Y025954D01*
X027635Y025767D02*
X027729Y025674D01*
X027837Y025674D02*
X028024Y025674D01*
X027930Y025674D02*
X027930Y025954D01*
X027837Y025861D01*
X027829Y024249D02*
X027782Y024202D01*
X027782Y024015D01*
X027829Y023968D01*
X027922Y023968D01*
X027969Y024015D01*
X028077Y023968D02*
X028264Y024155D01*
X028264Y024202D01*
X028217Y024249D01*
X028124Y024249D01*
X028077Y024202D01*
X027969Y024202D02*
X027922Y024249D01*
X027829Y024249D01*
X027679Y024249D02*
X027586Y024249D01*
X027633Y024249D02*
X027633Y023968D01*
X027679Y023968D02*
X027586Y023968D01*
X028077Y023968D02*
X028264Y023968D01*
X028998Y022229D02*
X028951Y022182D01*
X028951Y021995D01*
X028998Y021949D01*
X029091Y021949D01*
X029138Y021995D01*
X029246Y021995D02*
X029246Y021949D01*
X029246Y021995D02*
X029433Y022182D01*
X029433Y022229D01*
X029246Y022229D01*
X029138Y022182D02*
X029091Y022229D01*
X028998Y022229D01*
X026225Y018791D02*
X026178Y018791D01*
X026131Y018744D01*
X026131Y018604D01*
X026225Y018604D01*
X026271Y018651D01*
X026271Y018744D01*
X026225Y018791D01*
X026038Y018698D02*
X026131Y018604D01*
X026038Y018698D02*
X025991Y018791D01*
X026038Y018496D02*
X025991Y018450D01*
X025991Y018356D01*
X026038Y018309D01*
X026225Y018309D01*
X026271Y018356D01*
X026271Y018450D01*
X026225Y018496D01*
X026085Y016492D02*
X025992Y016445D01*
X025898Y016352D01*
X026039Y016352D01*
X026085Y016305D01*
X026085Y016258D01*
X026039Y016211D01*
X025945Y016211D01*
X025898Y016258D01*
X025898Y016352D01*
X025791Y016398D02*
X025791Y016445D01*
X025744Y016492D01*
X025650Y016492D01*
X025604Y016445D01*
X025496Y016445D02*
X025449Y016492D01*
X025356Y016492D01*
X025309Y016445D01*
X025309Y016258D01*
X025356Y016211D01*
X025449Y016211D01*
X025496Y016258D01*
X025604Y016211D02*
X025791Y016398D01*
X025791Y016211D02*
X025604Y016211D01*
X024245Y016445D02*
X024058Y016258D01*
X024058Y016211D01*
X023951Y016211D02*
X023764Y016211D01*
X023951Y016398D01*
X023951Y016445D01*
X023904Y016492D01*
X023810Y016492D01*
X023764Y016445D01*
X023656Y016445D02*
X023609Y016492D01*
X023516Y016492D01*
X023469Y016445D01*
X023469Y016258D01*
X023516Y016211D01*
X023609Y016211D01*
X023656Y016258D01*
X024058Y016492D02*
X024245Y016492D01*
X024245Y016445D01*
X024796Y014869D02*
X024842Y014869D01*
X024889Y014822D01*
X024936Y014869D01*
X024982Y014869D01*
X025029Y014822D01*
X025029Y014729D01*
X024982Y014682D01*
X025029Y014574D02*
X025029Y014388D01*
X025029Y014481D02*
X024749Y014481D01*
X024842Y014388D01*
X024796Y014280D02*
X024749Y014233D01*
X024749Y014140D01*
X024796Y014093D01*
X024982Y014093D01*
X025029Y014140D01*
X025029Y014233D01*
X024982Y014280D01*
X025029Y013990D02*
X025029Y013896D01*
X025029Y013943D02*
X024749Y013943D01*
X024749Y013896D02*
X024749Y013990D01*
X024796Y014682D02*
X024749Y014729D01*
X024749Y014822D01*
X024796Y014869D01*
X024889Y014822D02*
X024889Y014776D01*
X026569Y014822D02*
X026569Y014729D01*
X026616Y014682D01*
X026569Y014822D02*
X026616Y014869D01*
X026662Y014869D01*
X026849Y014682D01*
X026849Y014869D01*
X026849Y014574D02*
X026849Y014388D01*
X026849Y014481D02*
X026569Y014481D01*
X026662Y014388D01*
X026616Y014280D02*
X026569Y014233D01*
X026569Y014140D01*
X026616Y014093D01*
X026802Y014093D01*
X026849Y014140D01*
X026849Y014233D01*
X026802Y014280D01*
X026849Y013990D02*
X026849Y013896D01*
X026849Y013943D02*
X026569Y013943D01*
X026569Y013896D02*
X026569Y013990D01*
X026039Y012652D02*
X025945Y012652D01*
X025898Y012605D01*
X026039Y012652D02*
X026085Y012605D01*
X026085Y012558D01*
X025898Y012371D01*
X026085Y012371D01*
X025791Y012371D02*
X025604Y012371D01*
X025697Y012371D02*
X025697Y012652D01*
X025604Y012558D01*
X025496Y012512D02*
X025449Y012465D01*
X025309Y012465D01*
X025403Y012465D02*
X025496Y012371D01*
X025496Y012512D02*
X025496Y012605D01*
X025449Y012652D01*
X025309Y012652D01*
X025309Y012371D01*
X024185Y012418D02*
X024139Y012371D01*
X024045Y012371D01*
X023998Y012418D01*
X023891Y012371D02*
X023704Y012371D01*
X023797Y012371D02*
X023797Y012652D01*
X023704Y012558D01*
X023596Y012512D02*
X023549Y012465D01*
X023409Y012465D01*
X023503Y012465D02*
X023596Y012371D01*
X023596Y012512D02*
X023596Y012605D01*
X023549Y012652D01*
X023409Y012652D01*
X023409Y012371D01*
X023998Y012605D02*
X024045Y012652D01*
X024139Y012652D01*
X024185Y012605D01*
X024185Y012558D01*
X024139Y012512D01*
X024185Y012465D01*
X024185Y012418D01*
X024139Y012512D02*
X024092Y012512D01*
X023189Y013896D02*
X023189Y013990D01*
X023189Y013943D02*
X022909Y013943D01*
X022909Y013896D02*
X022909Y013990D01*
X022956Y014093D02*
X023142Y014093D01*
X023189Y014140D01*
X023189Y014233D01*
X023142Y014280D01*
X023189Y014388D02*
X023189Y014574D01*
X023189Y014481D02*
X022909Y014481D01*
X023002Y014388D01*
X022956Y014280D02*
X022909Y014233D01*
X022909Y014140D01*
X022956Y014093D01*
X023049Y014682D02*
X023049Y014869D01*
X023189Y014822D02*
X022909Y014822D01*
X023049Y014682D01*
X022333Y016142D02*
X022240Y016142D01*
X022193Y016189D01*
X022085Y016142D02*
X021898Y016142D01*
X022085Y016329D01*
X022085Y016376D01*
X022038Y016423D01*
X021945Y016423D01*
X021898Y016376D01*
X021790Y016376D02*
X021744Y016423D01*
X021650Y016423D01*
X021604Y016376D01*
X021604Y016189D01*
X021650Y016142D01*
X021744Y016142D01*
X021790Y016189D01*
X022193Y016376D02*
X022240Y016423D01*
X022333Y016423D01*
X022380Y016376D01*
X022380Y016329D01*
X022333Y016282D01*
X022380Y016236D01*
X022380Y016189D01*
X022333Y016142D01*
X022333Y016282D02*
X022286Y016282D01*
X021207Y014883D02*
X021254Y014836D01*
X021254Y014743D01*
X021207Y014696D01*
X021020Y014883D01*
X021207Y014883D01*
X021020Y014883D02*
X020974Y014836D01*
X020974Y014743D01*
X021020Y014696D01*
X021207Y014696D01*
X021254Y014588D02*
X021254Y014402D01*
X021254Y014495D02*
X020974Y014495D01*
X021067Y014402D01*
X021020Y014294D02*
X020974Y014247D01*
X020974Y014154D01*
X021020Y014107D01*
X021207Y014107D01*
X021254Y014154D01*
X021254Y014247D01*
X021207Y014294D01*
X021254Y014004D02*
X021254Y013910D01*
X021254Y013957D02*
X020974Y013957D01*
X020974Y013910D02*
X020974Y014004D01*
X019429Y014110D02*
X019429Y014204D01*
X019429Y014157D02*
X019149Y014157D01*
X019149Y014110D02*
X019149Y014204D01*
X019195Y014307D02*
X019382Y014307D01*
X019429Y014354D01*
X019429Y014447D01*
X019382Y014494D01*
X019382Y014602D02*
X019429Y014648D01*
X019429Y014742D01*
X019382Y014788D01*
X019195Y014788D01*
X019149Y014742D01*
X019149Y014648D01*
X019195Y014602D01*
X019242Y014602D01*
X019289Y014648D01*
X019289Y014788D01*
X019195Y014494D02*
X019149Y014447D01*
X019149Y014354D01*
X019195Y014307D01*
X019917Y012729D02*
X020057Y012729D01*
X020104Y012682D01*
X020104Y012589D01*
X020057Y012542D01*
X019917Y012542D01*
X020010Y012542D02*
X020104Y012448D01*
X020211Y012495D02*
X020211Y012542D01*
X020258Y012589D01*
X020351Y012589D01*
X020398Y012542D01*
X020398Y012495D01*
X020351Y012448D01*
X020258Y012448D01*
X020211Y012495D01*
X020258Y012589D02*
X020211Y012635D01*
X020211Y012682D01*
X020258Y012729D01*
X020351Y012729D01*
X020398Y012682D01*
X020398Y012635D01*
X020351Y012589D01*
X019917Y012448D02*
X019917Y012729D01*
X021717Y012684D02*
X021857Y012684D01*
X021904Y012637D01*
X021904Y012544D01*
X021857Y012497D01*
X021717Y012497D01*
X021810Y012497D02*
X021904Y012404D01*
X022011Y012450D02*
X022058Y012404D01*
X022151Y012404D01*
X022198Y012450D01*
X022198Y012637D01*
X022151Y012684D01*
X022058Y012684D01*
X022011Y012637D01*
X022011Y012590D01*
X022058Y012544D01*
X022198Y012544D01*
X021717Y012404D02*
X021717Y012684D01*
X020580Y016177D02*
X020393Y016177D01*
X020580Y016364D01*
X020580Y016411D01*
X020533Y016458D01*
X020440Y016458D01*
X020393Y016411D01*
X020285Y016411D02*
X020238Y016458D01*
X020145Y016458D01*
X020098Y016411D01*
X019990Y016411D02*
X019944Y016458D01*
X019850Y016458D01*
X019804Y016411D01*
X019804Y016224D01*
X019850Y016177D01*
X019944Y016177D01*
X019990Y016224D01*
X020098Y016177D02*
X020285Y016364D01*
X020285Y016411D01*
X020285Y016177D02*
X020098Y016177D01*
X015931Y015839D02*
X015744Y015652D01*
X015790Y015606D01*
X015884Y015606D01*
X015931Y015652D01*
X015931Y015839D01*
X015884Y015886D01*
X015790Y015886D01*
X015744Y015839D01*
X015744Y015652D01*
X015636Y015606D02*
X015449Y015606D01*
X015636Y015793D01*
X015636Y015839D01*
X015589Y015886D01*
X015496Y015886D01*
X015449Y015839D01*
X015341Y015839D02*
X015295Y015886D01*
X015201Y015886D01*
X015154Y015839D01*
X015154Y015652D01*
X015201Y015606D01*
X015295Y015606D01*
X015341Y015652D01*
X014814Y017561D02*
X014814Y017655D01*
X014814Y017608D02*
X014534Y017608D01*
X014534Y017561D02*
X014534Y017655D01*
X014581Y017758D02*
X014767Y017758D01*
X014814Y017804D01*
X014814Y017898D01*
X014767Y017944D01*
X014767Y018052D02*
X014814Y018052D01*
X014767Y018052D02*
X014581Y018239D01*
X014534Y018239D01*
X014534Y018052D01*
X014581Y017944D02*
X014534Y017898D01*
X014534Y017804D01*
X014581Y017758D01*
X015324Y019786D02*
X015324Y020066D01*
X015464Y020066D01*
X015511Y020019D01*
X015511Y019926D01*
X015464Y019879D01*
X015324Y019879D01*
X015417Y019879D02*
X015511Y019786D01*
X015618Y019832D02*
X015665Y019786D01*
X015759Y019786D01*
X015805Y019832D01*
X015805Y019879D01*
X015759Y019926D01*
X015618Y019926D01*
X015618Y019832D01*
X015618Y019926D02*
X015712Y020019D01*
X015805Y020066D01*
X016749Y021729D02*
X016936Y021729D01*
X016983Y021776D01*
X016983Y021869D01*
X016936Y021916D01*
X016983Y022024D02*
X016983Y022211D01*
X016983Y022117D02*
X016702Y022117D01*
X016796Y022024D01*
X016749Y021916D02*
X016702Y021869D01*
X016702Y021776D01*
X016749Y021729D01*
X016749Y022318D02*
X016702Y022365D01*
X016702Y022458D01*
X016749Y022505D01*
X016936Y022318D01*
X016983Y022365D01*
X016983Y022458D01*
X016936Y022505D01*
X016749Y022505D01*
X016749Y022318D02*
X016936Y022318D01*
X015931Y022562D02*
X015931Y022749D01*
X015884Y022795D01*
X015790Y022795D01*
X015744Y022749D01*
X015744Y022702D01*
X015790Y022655D01*
X015931Y022655D01*
X015931Y022562D02*
X015884Y022515D01*
X015790Y022515D01*
X015744Y022562D01*
X015636Y022515D02*
X015449Y022515D01*
X015543Y022515D02*
X015543Y022795D01*
X015449Y022702D01*
X015341Y022749D02*
X015295Y022795D01*
X015201Y022795D01*
X015154Y022749D01*
X015154Y022562D01*
X015201Y022515D01*
X015295Y022515D01*
X015341Y022562D01*
X014844Y024464D02*
X014844Y024558D01*
X014844Y024511D02*
X014564Y024511D01*
X014564Y024464D02*
X014564Y024558D01*
X014611Y024661D02*
X014797Y024661D01*
X014844Y024707D01*
X014844Y024801D01*
X014797Y024847D01*
X014797Y024955D02*
X014844Y025002D01*
X014844Y025095D01*
X014797Y025142D01*
X014751Y025142D01*
X014704Y025095D01*
X014704Y024955D01*
X014797Y024955D01*
X014704Y024955D02*
X014611Y025049D01*
X014564Y025142D01*
X014611Y024847D02*
X014564Y024801D01*
X014564Y024707D01*
X014611Y024661D01*
X015324Y026765D02*
X015324Y027045D01*
X015464Y027045D01*
X015511Y026999D01*
X015511Y026905D01*
X015464Y026859D01*
X015324Y026859D01*
X015417Y026859D02*
X015511Y026765D01*
X015618Y026812D02*
X015665Y026765D01*
X015759Y026765D01*
X015805Y026812D01*
X015805Y026905D01*
X015759Y026952D01*
X015712Y026952D01*
X015618Y026905D01*
X015618Y027045D01*
X015805Y027045D01*
X015845Y028670D02*
X015799Y028716D01*
X015799Y028763D01*
X015845Y028810D01*
X015939Y028810D01*
X015986Y028763D01*
X015986Y028716D01*
X015939Y028670D01*
X015845Y028670D01*
X015845Y028810D02*
X015799Y028856D01*
X015799Y028903D01*
X015845Y028950D01*
X015939Y028950D01*
X015986Y028903D01*
X015986Y028856D01*
X015939Y028810D01*
X015691Y028670D02*
X015504Y028670D01*
X015598Y028670D02*
X015598Y028950D01*
X015504Y028856D01*
X015396Y028903D02*
X015350Y028950D01*
X015256Y028950D01*
X015209Y028903D01*
X015209Y028716D01*
X015256Y028670D01*
X015350Y028670D01*
X015396Y028716D01*
X014854Y030564D02*
X014854Y030657D01*
X014854Y030610D02*
X014574Y030610D01*
X014574Y030564D02*
X014574Y030657D01*
X014621Y030760D02*
X014807Y030760D01*
X014854Y030807D01*
X014854Y030900D01*
X014807Y030947D01*
X014807Y031055D02*
X014854Y031101D01*
X014854Y031195D01*
X014807Y031241D01*
X014714Y031241D01*
X014667Y031195D01*
X014667Y031148D01*
X014714Y031055D01*
X014574Y031055D01*
X014574Y031241D01*
X014621Y030947D02*
X014574Y030900D01*
X014574Y030807D01*
X014621Y030760D01*
X015324Y032875D02*
X015324Y033155D01*
X015464Y033155D01*
X015511Y033108D01*
X015511Y033015D01*
X015464Y032968D01*
X015324Y032968D01*
X015417Y032968D02*
X015511Y032875D01*
X015618Y033015D02*
X015805Y033015D01*
X015759Y032875D02*
X015759Y033155D01*
X015618Y033015D01*
X020226Y032298D02*
X020366Y032158D01*
X020366Y032345D01*
X020506Y032298D02*
X020226Y032298D01*
X020273Y032050D02*
X020226Y032003D01*
X020226Y031910D01*
X020273Y031863D01*
X020460Y031863D01*
X020506Y031910D01*
X020506Y032003D01*
X020460Y032050D01*
X020506Y031760D02*
X020506Y031667D01*
X020506Y031713D02*
X020226Y031713D01*
X020226Y031667D02*
X020226Y031760D01*
X023331Y034098D02*
X023378Y034052D01*
X023565Y034052D01*
X023611Y034098D01*
X023611Y034192D01*
X023565Y034239D01*
X023611Y034346D02*
X023611Y034533D01*
X023611Y034440D02*
X023331Y034440D01*
X023424Y034346D01*
X023378Y034239D02*
X023331Y034192D01*
X023331Y034098D01*
X023331Y034641D02*
X023331Y034828D01*
X023378Y034828D01*
X023565Y034641D01*
X023611Y034641D01*
X024426Y034665D02*
X024706Y034665D01*
X024706Y034758D02*
X024706Y034571D01*
X024660Y034464D02*
X024706Y034417D01*
X024706Y034323D01*
X024660Y034277D01*
X024473Y034277D01*
X024426Y034323D01*
X024426Y034417D01*
X024473Y034464D01*
X024519Y034571D02*
X024426Y034665D01*
X024473Y034866D02*
X024426Y034913D01*
X024426Y035006D01*
X024473Y035053D01*
X024519Y035053D01*
X024566Y035006D01*
X024613Y035053D01*
X024660Y035053D01*
X024706Y035006D01*
X024706Y034913D01*
X024660Y034866D01*
X024566Y034959D02*
X024566Y035006D01*
X023207Y035587D02*
X023207Y035867D01*
X023067Y035727D01*
X023253Y035727D01*
X022959Y035587D02*
X022772Y035587D01*
X022865Y035587D02*
X022865Y035867D01*
X022772Y035774D01*
X022664Y035820D02*
X022617Y035867D01*
X022524Y035867D01*
X022477Y035820D01*
X022477Y035633D01*
X022524Y035587D01*
X022617Y035587D01*
X022664Y035633D01*
X022543Y036810D02*
X022590Y036857D01*
X022590Y036951D01*
X022543Y036997D01*
X022590Y037105D02*
X022590Y037292D01*
X022590Y037199D02*
X022310Y037199D01*
X022403Y037105D01*
X022356Y036997D02*
X022310Y036951D01*
X022310Y036857D01*
X022356Y036810D01*
X022543Y036810D01*
X022543Y037400D02*
X022590Y037446D01*
X022590Y037540D01*
X022543Y037587D01*
X022450Y037587D01*
X022403Y037540D01*
X022403Y037493D01*
X022450Y037400D01*
X022310Y037400D01*
X022310Y037587D01*
X025497Y037628D02*
X025543Y037581D01*
X025637Y037581D01*
X025683Y037628D01*
X025683Y037862D01*
X025791Y037815D02*
X025791Y037768D01*
X025838Y037721D01*
X025931Y037721D01*
X025978Y037675D01*
X025978Y037628D01*
X025931Y037581D01*
X025838Y037581D01*
X025791Y037628D01*
X025791Y037815D02*
X025838Y037862D01*
X025931Y037862D01*
X025978Y037815D01*
X026086Y037862D02*
X026226Y037862D01*
X026273Y037815D01*
X026273Y037768D01*
X026226Y037721D01*
X026086Y037721D01*
X026086Y037581D02*
X026226Y037581D01*
X026273Y037628D01*
X026273Y037675D01*
X026226Y037721D01*
X026086Y037581D02*
X026086Y037862D01*
X025497Y037862D02*
X025497Y037628D01*
X023305Y028226D02*
X023258Y028226D01*
X023211Y028179D01*
X023211Y028039D01*
X023305Y028039D01*
X023351Y028086D01*
X023351Y028179D01*
X023305Y028226D01*
X023118Y028133D02*
X023211Y028039D01*
X023118Y028133D02*
X023071Y028226D01*
X023071Y027838D02*
X023351Y027838D01*
X023351Y027931D02*
X023351Y027744D01*
X023305Y027637D02*
X023351Y027590D01*
X023351Y027497D01*
X023305Y027450D01*
X023118Y027450D01*
X023071Y027497D01*
X023071Y027590D01*
X023118Y027637D01*
X023164Y027744D02*
X023071Y027838D01*
X025006Y025924D02*
X025053Y025970D01*
X025099Y025970D01*
X025146Y025924D01*
X025146Y025830D01*
X025099Y025783D01*
X025053Y025783D01*
X025006Y025830D01*
X025006Y025924D01*
X025146Y025924D02*
X025193Y025970D01*
X025240Y025970D01*
X025286Y025924D01*
X025286Y025830D01*
X025240Y025783D01*
X025193Y025783D01*
X025146Y025830D01*
X025053Y025676D02*
X025006Y025629D01*
X025006Y025535D01*
X025053Y025489D01*
X025240Y025489D01*
X025286Y025535D01*
X025286Y025629D01*
X025240Y025676D01*
X021203Y024397D02*
X021016Y024397D01*
X021016Y024257D01*
X021110Y024303D01*
X021157Y024303D01*
X021203Y024257D01*
X021203Y024163D01*
X021157Y024116D01*
X021063Y024116D01*
X021016Y024163D01*
X020909Y024163D02*
X020862Y024116D01*
X020769Y024116D01*
X020722Y024163D01*
X020722Y024350D01*
X020769Y024397D01*
X020862Y024397D01*
X020909Y024350D01*
X020955Y023624D02*
X020955Y023437D01*
X020955Y023530D02*
X020675Y023530D01*
X020769Y023437D01*
X020722Y023329D02*
X020675Y023282D01*
X020675Y023189D01*
X020722Y023142D01*
X020909Y023142D01*
X020955Y023189D01*
X020955Y023282D01*
X020909Y023329D01*
X020909Y023034D02*
X020955Y022988D01*
X020955Y022894D01*
X020909Y022848D01*
X020815Y022894D02*
X020815Y022988D01*
X020862Y023034D01*
X020909Y023034D01*
X020815Y022894D02*
X020769Y022848D01*
X020722Y022848D01*
X020675Y022894D01*
X020675Y022988D01*
X020722Y023034D01*
X020722Y022740D02*
X020675Y022693D01*
X020675Y022600D01*
X020722Y022553D01*
X020909Y022553D01*
X020955Y022600D01*
X020955Y022693D01*
X020909Y022740D01*
X020722Y022740D01*
X021662Y021557D02*
X021616Y021511D01*
X021616Y021324D01*
X021662Y021277D01*
X021756Y021277D01*
X021802Y021324D01*
X021910Y021324D02*
X021957Y021277D01*
X022050Y021277D01*
X022097Y021324D01*
X022097Y021511D01*
X022050Y021557D01*
X021957Y021557D01*
X021910Y021511D01*
X021910Y021464D01*
X021957Y021417D01*
X022097Y021417D01*
X021802Y021511D02*
X021756Y021557D01*
X021662Y021557D01*
X027129Y016445D02*
X027129Y016258D01*
X027176Y016211D01*
X027269Y016211D01*
X027316Y016258D01*
X027424Y016211D02*
X027611Y016398D01*
X027611Y016445D01*
X027564Y016492D01*
X027470Y016492D01*
X027424Y016445D01*
X027316Y016445D02*
X027269Y016492D01*
X027176Y016492D01*
X027129Y016445D01*
X027424Y016211D02*
X027611Y016211D01*
X027718Y016258D02*
X027765Y016211D01*
X027859Y016211D01*
X027905Y016258D01*
X027905Y016352D01*
X027859Y016398D01*
X027812Y016398D01*
X027718Y016352D01*
X027718Y016492D01*
X027905Y016492D01*
X027852Y012642D02*
X027758Y012548D01*
X027852Y012642D02*
X027852Y012361D01*
X027945Y012361D02*
X027758Y012361D01*
X027651Y012361D02*
X027464Y012361D01*
X027557Y012361D02*
X027557Y012642D01*
X027464Y012548D01*
X027356Y012502D02*
X027309Y012455D01*
X027169Y012455D01*
X027263Y012455D02*
X027356Y012361D01*
X027356Y012502D02*
X027356Y012595D01*
X027309Y012642D01*
X027169Y012642D01*
X027169Y012361D01*
X029462Y008231D02*
X029342Y008111D01*
X029462Y008231D02*
X029462Y007871D01*
X029342Y007871D02*
X029582Y007871D01*
X029168Y007560D02*
X029168Y007280D01*
X029075Y007280D02*
X029262Y007280D01*
X029075Y007467D02*
X029168Y007560D01*
X028967Y007560D02*
X028780Y007280D01*
X028967Y007280D02*
X028780Y007560D01*
X034675Y011708D02*
X034675Y011802D01*
X034722Y011849D01*
X034909Y011849D01*
X034956Y011802D01*
X034956Y011708D01*
X034909Y011662D01*
X034722Y011662D01*
X034675Y011708D01*
X034862Y011755D02*
X034956Y011849D01*
X034909Y011956D02*
X034956Y012003D01*
X034956Y012096D01*
X034909Y012143D01*
X034862Y012143D01*
X034816Y012096D01*
X034816Y011956D01*
X034909Y011956D01*
X034816Y011956D02*
X034722Y012050D01*
X034675Y012143D01*
X034339Y013467D02*
X034245Y013467D01*
X034199Y013514D01*
X034199Y013607D02*
X034292Y013654D01*
X034339Y013654D01*
X034386Y013607D01*
X034386Y013514D01*
X034339Y013467D01*
X034199Y013607D02*
X034199Y013747D01*
X034386Y013747D01*
X034091Y013701D02*
X034044Y013747D01*
X033951Y013747D01*
X033904Y013701D01*
X033796Y013701D02*
X033796Y013607D01*
X033750Y013560D01*
X033609Y013560D01*
X033609Y013467D02*
X033609Y013747D01*
X033750Y013747D01*
X033796Y013701D01*
X033703Y013560D02*
X033796Y013467D01*
X033904Y013467D02*
X034091Y013654D01*
X034091Y013701D01*
X034091Y013467D02*
X033904Y013467D01*
X033947Y014592D02*
X034133Y014779D01*
X034133Y014825D01*
X034087Y014872D01*
X033993Y014872D01*
X033947Y014825D01*
X033839Y014825D02*
X033792Y014872D01*
X033699Y014872D01*
X033652Y014825D01*
X033652Y014638D01*
X033699Y014592D01*
X033792Y014592D01*
X033839Y014638D01*
X033947Y014592D02*
X034133Y014592D01*
X034241Y014638D02*
X034288Y014592D01*
X034381Y014592D01*
X034428Y014638D01*
X034428Y014825D01*
X034381Y014872D01*
X034288Y014872D01*
X034241Y014825D01*
X034241Y014779D01*
X034288Y014732D01*
X034428Y014732D01*
X035169Y013747D02*
X035310Y013747D01*
X035356Y013701D01*
X035356Y013607D01*
X035310Y013560D01*
X035169Y013560D01*
X035169Y013467D02*
X035169Y013747D01*
X035263Y013560D02*
X035356Y013467D01*
X035464Y013467D02*
X035651Y013467D01*
X035558Y013467D02*
X035558Y013747D01*
X035464Y013654D01*
X035759Y013701D02*
X035759Y013514D01*
X035946Y013701D01*
X035946Y013514D01*
X035899Y013467D01*
X035805Y013467D01*
X035759Y013514D01*
X035759Y013701D02*
X035805Y013747D01*
X035899Y013747D01*
X035946Y013701D01*
X036113Y012109D02*
X036067Y012062D01*
X036067Y011968D01*
X036113Y011922D01*
X036113Y011814D02*
X036300Y011814D01*
X036347Y011767D01*
X036347Y011674D01*
X036300Y011627D01*
X036113Y011627D01*
X036067Y011674D01*
X036067Y011767D01*
X036113Y011814D01*
X036254Y011720D02*
X036347Y011814D01*
X036347Y011922D02*
X036160Y012109D01*
X036113Y012109D01*
X036347Y012109D02*
X036347Y011922D01*
X037622Y012319D02*
X037622Y012412D01*
X037715Y012505D01*
X037818Y012505D02*
X038005Y012505D01*
X038005Y012459D01*
X037818Y012272D01*
X037818Y012225D01*
X037715Y012225D02*
X037622Y012319D01*
X038113Y012272D02*
X038300Y012459D01*
X038300Y012505D01*
X038113Y012505D01*
X038113Y012272D02*
X038113Y012225D01*
X038408Y012132D02*
X038501Y012225D01*
X038454Y012225D01*
X038454Y012272D01*
X038501Y012272D01*
X038501Y012225D01*
X038899Y012225D02*
X039086Y012225D01*
X038992Y012225D02*
X038992Y012505D01*
X038899Y012412D01*
X039193Y012365D02*
X039193Y012272D01*
X039240Y012225D01*
X039333Y012225D01*
X039380Y012272D01*
X039380Y012319D01*
X039333Y012365D01*
X039193Y012365D01*
X039287Y012459D01*
X039380Y012505D01*
X039488Y012505D02*
X039581Y012412D01*
X039581Y012319D01*
X039488Y012225D01*
X038363Y008239D02*
X038242Y008119D01*
X038363Y008239D02*
X038363Y007879D01*
X038483Y007879D02*
X038242Y007879D01*
X038006Y007518D02*
X037912Y007518D01*
X037866Y007471D01*
X037758Y007518D02*
X037571Y007237D01*
X037758Y007237D02*
X037571Y007518D01*
X037866Y007237D02*
X038052Y007424D01*
X038052Y007471D01*
X038006Y007518D01*
X038052Y007237D02*
X037866Y007237D01*
X017370Y006934D02*
X017277Y007027D01*
X017169Y007027D02*
X017169Y006981D01*
X016982Y006794D01*
X016982Y006747D01*
X016982Y007027D02*
X017169Y007027D01*
X017370Y006934D02*
X017370Y006840D01*
X017277Y006747D01*
X016585Y006747D02*
X016585Y006794D01*
X016538Y006794D01*
X016538Y006747D01*
X016585Y006747D01*
X016491Y006654D01*
X016383Y006747D02*
X016197Y006747D01*
X016290Y006747D02*
X016290Y007027D01*
X016197Y006934D01*
X016089Y006934D02*
X015902Y006747D01*
X016089Y006747D01*
X016089Y006934D02*
X016089Y006981D01*
X016042Y007027D01*
X015949Y007027D01*
X015902Y006981D01*
X015799Y007027D02*
X015705Y006934D01*
X015705Y006840D01*
X015799Y006747D01*
X015794Y008447D02*
X015981Y008447D01*
X015887Y008447D02*
X015887Y008727D01*
X015794Y008634D01*
X015686Y008634D02*
X015686Y008681D01*
X015639Y008727D01*
X015546Y008727D01*
X015499Y008681D01*
X015391Y008681D02*
X015345Y008727D01*
X015251Y008727D01*
X015204Y008681D01*
X015204Y008494D01*
X015251Y008447D01*
X015345Y008447D01*
X015391Y008494D01*
X015499Y008447D02*
X015686Y008634D01*
X015686Y008447D02*
X015499Y008447D01*
X014804Y010386D02*
X014804Y010479D01*
X014804Y010433D02*
X014524Y010433D01*
X014524Y010479D02*
X014524Y010386D01*
X014571Y010582D02*
X014757Y010582D01*
X014804Y010629D01*
X014804Y010722D01*
X014757Y010769D01*
X014757Y010877D02*
X014711Y010877D01*
X014664Y010924D01*
X014664Y011017D01*
X014711Y011064D01*
X014757Y011064D01*
X014804Y011017D01*
X014804Y010924D01*
X014757Y010877D01*
X014664Y010924D02*
X014617Y010877D01*
X014571Y010877D01*
X014524Y010924D01*
X014524Y011017D01*
X014571Y011064D01*
X014617Y011064D01*
X014664Y011017D01*
X014571Y010769D02*
X014524Y010722D01*
X014524Y010629D01*
X014571Y010582D01*
X015324Y012677D02*
X015324Y012957D01*
X015464Y012957D01*
X015511Y012910D01*
X015511Y012817D01*
X015464Y012770D01*
X015324Y012770D01*
X015417Y012770D02*
X015511Y012677D01*
X015618Y012677D02*
X015618Y012724D01*
X015805Y012910D01*
X015805Y012957D01*
X015618Y012957D01*
D16*
X023836Y020088D02*
X023836Y023749D01*
X027497Y023749D01*
X027497Y020088D01*
X023836Y020088D01*
D17*
X024190Y020442D03*
D18*
X023776Y019458D03*
D19*
X034559Y019161D02*
X034609Y019161D01*
X034709Y019211D01*
X034709Y019161D01*
X034759Y019161D01*
X034709Y019161D02*
X034709Y019111D01*
X034609Y019161D01*
X034709Y020011D02*
X034609Y020061D01*
X034559Y020061D01*
X034609Y020061D02*
X034709Y020111D01*
X034709Y020061D01*
X034759Y020061D01*
X034709Y020061D02*
X034709Y020011D01*
X034709Y020851D02*
X034609Y020901D01*
X034559Y020901D01*
X034609Y020901D02*
X034709Y020951D01*
X034709Y020901D01*
X034759Y020901D01*
X034709Y020901D02*
X034709Y020851D01*
X034709Y021751D02*
X034609Y021801D01*
X034559Y021801D01*
X034609Y021801D02*
X034709Y021851D01*
X034709Y021801D01*
X034759Y021801D01*
X034709Y021801D02*
X034709Y021751D01*
X034709Y022651D02*
X034609Y022701D01*
X034559Y022701D01*
X034609Y022701D02*
X034709Y022751D01*
X034709Y022701D01*
X034759Y022701D01*
X034709Y022701D02*
X034709Y022651D01*
X034709Y023551D02*
X034609Y023601D01*
X034559Y023601D01*
X034609Y023601D02*
X034709Y023651D01*
X034709Y023601D01*
X034759Y023601D01*
X034709Y023601D02*
X034709Y023551D01*
X034709Y024451D02*
X034609Y024501D01*
X034559Y024501D01*
X034609Y024501D02*
X034709Y024551D01*
X034709Y024501D01*
X034759Y024501D01*
X034709Y024501D02*
X034709Y024451D01*
X034709Y025351D02*
X034609Y025401D01*
X034559Y025401D01*
X034609Y025401D02*
X034709Y025451D01*
X034709Y025401D01*
X034759Y025401D01*
X034709Y025401D02*
X034709Y025351D01*
X034709Y018311D02*
X034609Y018261D01*
X034559Y018261D01*
X034609Y018261D02*
X034709Y018211D01*
X034709Y018261D01*
X034759Y018261D01*
X034709Y018261D02*
X034709Y018311D01*
X034709Y015911D02*
X034609Y015861D01*
X034559Y015861D01*
X034609Y015861D02*
X034709Y015811D01*
X034709Y015861D01*
X034759Y015861D01*
X034709Y015861D02*
X034709Y015911D01*
X013180Y036462D02*
X013130Y036462D01*
X013130Y036512D01*
X013030Y036462D01*
X012980Y036462D01*
X013030Y036462D02*
X013130Y036412D01*
X013130Y036462D01*
D20*
X017758Y038273D02*
X017758Y032564D01*
X020120Y032564D01*
X020120Y038273D01*
X017758Y038273D01*
X024110Y038599D02*
X024110Y039387D01*
X027653Y039387D01*
X027653Y038599D01*
X027653Y037733D02*
X027653Y036513D01*
X026623Y034404D02*
X026625Y034422D01*
X026631Y034440D01*
X026640Y034456D01*
X026652Y034469D01*
X026667Y034480D01*
X026684Y034488D01*
X026702Y034492D01*
X026720Y034492D01*
X026738Y034488D01*
X026755Y034480D01*
X026770Y034469D01*
X026782Y034456D01*
X026791Y034440D01*
X026797Y034422D01*
X026799Y034404D01*
X026797Y034386D01*
X026791Y034368D01*
X026782Y034352D01*
X026770Y034339D01*
X026755Y034328D01*
X026738Y034320D01*
X026720Y034316D01*
X026702Y034316D01*
X026684Y034320D01*
X026667Y034328D01*
X026652Y034339D01*
X026640Y034352D01*
X026631Y034368D01*
X026625Y034386D01*
X026623Y034404D01*
X026632Y034286D02*
X026632Y033617D01*
X025451Y033637D02*
X025451Y034286D01*
X024110Y036513D02*
X024110Y037733D01*
X028722Y029611D02*
X028724Y029631D01*
X028730Y029649D01*
X028739Y029667D01*
X028751Y029682D01*
X028766Y029694D01*
X028784Y029703D01*
X028802Y029709D01*
X028822Y029711D01*
X028842Y029709D01*
X028860Y029703D01*
X028878Y029694D01*
X028893Y029682D01*
X028905Y029667D01*
X028914Y029649D01*
X028920Y029631D01*
X028922Y029611D01*
X028920Y029591D01*
X028914Y029573D01*
X028905Y029555D01*
X028893Y029540D01*
X028878Y029528D01*
X028860Y029519D01*
X028842Y029513D01*
X028822Y029511D01*
X028802Y029513D01*
X028784Y029519D01*
X028766Y029528D01*
X028751Y029540D01*
X028739Y029555D01*
X028730Y029573D01*
X028724Y029591D01*
X028722Y029611D01*
X022316Y028719D02*
X022316Y028469D01*
X022066Y028719D01*
X022316Y028719D01*
X022066Y028719D01*
X021566Y028719D01*
X021316Y028469D01*
X021316Y028719D01*
X021566Y028719D01*
X021316Y028469D01*
X021316Y024969D01*
X021566Y024719D01*
X022066Y024719D01*
X022316Y024969D01*
X022316Y028469D01*
X022316Y028719D01*
X022316Y028682D02*
X022103Y028682D01*
X022066Y028719D02*
X022316Y028469D01*
X022316Y028488D02*
X022297Y028488D01*
X022316Y028537D02*
X022248Y028537D01*
X022200Y028585D02*
X022316Y028585D01*
X022316Y028634D02*
X022151Y028634D01*
X021530Y028682D02*
X021316Y028682D01*
X021316Y028634D02*
X021481Y028634D01*
X021433Y028585D02*
X021316Y028585D01*
X021316Y028537D02*
X021384Y028537D01*
X021336Y028488D02*
X021316Y028488D01*
X018470Y008644D02*
X018470Y005022D01*
X029493Y005022D01*
X029493Y007774D01*
X029493Y008325D02*
X029493Y008644D01*
X018470Y008644D01*
X030126Y008652D02*
X030126Y005030D01*
X038394Y005030D01*
X038394Y007782D01*
X038394Y008333D02*
X038394Y008652D01*
X030126Y008652D01*
D21*
X001925Y010742D03*
X001925Y017755D03*
X001925Y024780D03*
X001925Y031805D03*
D22*
X021078Y031337D03*
D23*
X021268Y023111D02*
X021268Y023032D01*
X022252Y023032D02*
X022252Y023111D01*
X009916Y023770D02*
X009916Y024020D01*
X009666Y024020D01*
X009666Y024520D01*
X009916Y024520D01*
X009916Y025020D01*
X009666Y025020D01*
X009666Y025520D01*
X009916Y025520D01*
X009916Y025770D01*
X008666Y025770D01*
X008666Y025420D01*
X006216Y025420D01*
X006076Y025290D01*
X005516Y025270D02*
X005316Y025170D01*
X005316Y024790D01*
X005316Y024750D01*
X005316Y024790D02*
X005316Y024370D01*
X005516Y024270D01*
X008666Y024270D01*
X008666Y023770D01*
X009916Y023770D01*
X008666Y024120D02*
X006216Y024120D01*
X006076Y024250D01*
X005516Y025270D02*
X008666Y025270D01*
X008666Y025420D02*
X008666Y024270D01*
X008666Y018721D02*
X008666Y018371D01*
X006216Y018371D01*
X006076Y018241D01*
X005516Y018221D02*
X005316Y018121D01*
X005316Y017741D01*
X005316Y017701D01*
X005316Y017741D02*
X005316Y017321D01*
X005516Y017221D01*
X008666Y017221D01*
X008666Y016721D01*
X009916Y016721D01*
X009916Y016971D01*
X009666Y016971D01*
X009666Y017471D01*
X009916Y017471D01*
X009916Y017971D01*
X009666Y017971D01*
X009666Y018471D01*
X009916Y018471D01*
X009916Y018721D01*
X008666Y018721D01*
X008666Y018371D02*
X008666Y017221D01*
X008666Y017071D02*
X006216Y017071D01*
X006076Y017201D01*
X005516Y018221D02*
X008666Y018221D01*
X008666Y011732D02*
X008666Y011382D01*
X006216Y011382D01*
X006076Y011252D01*
X005516Y011232D02*
X005316Y011132D01*
X005316Y010752D01*
X005316Y010712D01*
X005316Y010752D02*
X005316Y010332D01*
X005516Y010232D01*
X008666Y010232D01*
X008666Y009732D01*
X009916Y009732D01*
X009916Y009982D01*
X009666Y009982D01*
X009666Y010482D01*
X009916Y010482D01*
X009916Y010982D01*
X009666Y010982D01*
X009666Y011482D01*
X009916Y011482D01*
X009916Y011732D01*
X008666Y011732D01*
X008666Y011382D02*
X008666Y010232D01*
X008666Y010082D02*
X006216Y010082D01*
X006076Y010212D01*
X005516Y011232D02*
X008666Y011232D01*
X008666Y030800D02*
X008666Y031300D01*
X005516Y031300D01*
X005316Y031400D01*
X005316Y031820D01*
X005316Y031780D01*
X005316Y031820D02*
X005316Y032200D01*
X005516Y032300D01*
X008666Y032300D01*
X008666Y032450D02*
X006216Y032450D01*
X006076Y032320D01*
X006076Y031280D02*
X006216Y031150D01*
X008666Y031150D01*
X008666Y031300D02*
X008666Y032450D01*
X008666Y032800D01*
X009916Y032800D01*
X009916Y032550D01*
X009666Y032550D01*
X009666Y032050D01*
X009916Y032050D01*
X009916Y031550D01*
X009666Y031550D01*
X009666Y031050D01*
X009916Y031050D01*
X009916Y030800D01*
X008666Y030800D01*
D24*
X021445Y023938D03*
D25*
X033734Y034155D03*
X033724Y034185D03*
X033724Y034195D03*
X033724Y034205D03*
X033714Y034285D03*
X033724Y034375D03*
X033724Y034385D03*
X034604Y033135D03*
X035504Y032665D03*
X035504Y032655D03*
X035504Y032645D03*
X035504Y032635D03*
X035504Y032625D03*
X035504Y032615D03*
X035504Y032605D03*
X035504Y032595D03*
X035504Y032585D03*
X035504Y032575D03*
X035504Y032565D03*
X035504Y032555D03*
X035504Y032545D03*
X035504Y032535D03*
X035504Y032525D03*
X035504Y032515D03*
X035504Y032505D03*
X035504Y032495D03*
X035504Y032485D03*
X035504Y032475D03*
X035504Y032465D03*
X035504Y032455D03*
X035504Y032445D03*
X035504Y032435D03*
X035504Y032425D03*
X035504Y032415D03*
X035504Y032405D03*
X035504Y032395D03*
X035504Y032385D03*
X035504Y032375D03*
X035504Y032365D03*
X035504Y032355D03*
X035504Y032345D03*
X035504Y032335D03*
X035504Y032325D03*
X035504Y032315D03*
X035504Y032305D03*
X035504Y032295D03*
X035504Y032285D03*
X035504Y032275D03*
X035504Y032265D03*
X035504Y032255D03*
X035504Y032245D03*
X035504Y032235D03*
X035504Y032225D03*
X035504Y032215D03*
X035504Y032205D03*
X035504Y032195D03*
X035504Y032185D03*
X035504Y032175D03*
X035504Y032165D03*
X035504Y032155D03*
X035504Y032145D03*
X035504Y032135D03*
X035504Y032125D03*
X035504Y032115D03*
X035504Y032105D03*
X035504Y032095D03*
X035504Y032085D03*
X035504Y032075D03*
X035504Y032065D03*
X035504Y032055D03*
X035504Y032045D03*
X035504Y032035D03*
X035504Y032025D03*
X035504Y032015D03*
X035504Y032005D03*
X035504Y034215D03*
X035504Y034225D03*
X035504Y034235D03*
X035504Y034245D03*
X035504Y034255D03*
X035504Y034265D03*
X035504Y034275D03*
X035504Y034285D03*
X035504Y034295D03*
X035504Y034305D03*
X035504Y034315D03*
X035504Y034325D03*
X035504Y034335D03*
X035504Y034345D03*
X035504Y034355D03*
D26*
X035509Y034365D03*
X035509Y034375D03*
X035509Y034385D03*
X035509Y034395D03*
X035509Y034405D03*
X035509Y034415D03*
X035519Y034435D03*
X035519Y034445D03*
X035519Y034455D03*
X035509Y034205D03*
X035509Y034195D03*
X035509Y034185D03*
X035509Y034175D03*
X035509Y034165D03*
X035509Y034155D03*
X035509Y032725D03*
X035509Y032715D03*
X035509Y032705D03*
X035509Y032695D03*
X035509Y032685D03*
X035509Y032675D03*
X033739Y034105D03*
X033729Y034135D03*
X033729Y034165D03*
X033729Y034175D03*
X033719Y034215D03*
X033719Y034225D03*
X033719Y034235D03*
X033719Y034245D03*
X033719Y034255D03*
X033719Y034265D03*
X033719Y034275D03*
X033719Y034295D03*
X033719Y034305D03*
X033719Y034315D03*
X033719Y034325D03*
X033719Y034335D03*
X033719Y034345D03*
X033719Y034355D03*
X033719Y034365D03*
X033729Y034395D03*
X033729Y034405D03*
X033729Y034415D03*
X033729Y034425D03*
X033729Y034435D03*
X033739Y034465D03*
X034609Y035435D03*
D27*
X033744Y034495D03*
X033744Y034485D03*
X033744Y034475D03*
X033734Y034455D03*
X033734Y034445D03*
X033734Y034125D03*
X033734Y034115D03*
X033744Y034095D03*
X033744Y034085D03*
X033744Y034075D03*
X035514Y034115D03*
X035514Y034125D03*
X035514Y034135D03*
X035514Y034145D03*
X035514Y034425D03*
X035524Y034465D03*
X035524Y034475D03*
X035524Y034485D03*
X035534Y034505D03*
X036394Y035435D03*
X035514Y032765D03*
X035514Y032755D03*
X035514Y032745D03*
X035514Y032735D03*
D28*
X035519Y032775D03*
X035519Y032785D03*
X035519Y032795D03*
X035519Y034085D03*
X035519Y034095D03*
X035519Y034105D03*
X035529Y034495D03*
X035539Y034515D03*
X035539Y034525D03*
X033769Y034565D03*
X033759Y034545D03*
X033759Y034535D03*
X033759Y034525D03*
X033749Y034515D03*
X033749Y034505D03*
X033749Y034065D03*
X033749Y034055D03*
X033759Y034045D03*
X033759Y034035D03*
X033759Y034025D03*
D29*
X033764Y034015D03*
X033774Y034005D03*
X033774Y033995D03*
X033764Y034555D03*
X033774Y034575D03*
X035544Y034545D03*
X035544Y034535D03*
X035554Y034555D03*
X035554Y034565D03*
X035524Y034075D03*
X035524Y034065D03*
X035524Y032825D03*
X035524Y032815D03*
X035524Y032805D03*
D30*
X035529Y032835D03*
X035529Y032845D03*
X035529Y034045D03*
X035529Y034055D03*
X035559Y034575D03*
X035559Y034585D03*
X035569Y034595D03*
X035569Y034605D03*
X033789Y034605D03*
X033779Y034595D03*
X033779Y034585D03*
X033779Y033985D03*
X033779Y033975D03*
X033789Y033965D03*
D31*
X033794Y033955D03*
X033794Y033945D03*
X033804Y033935D03*
X033794Y034615D03*
X033794Y034625D03*
X033804Y034635D03*
X035574Y034615D03*
X035584Y034625D03*
X035584Y034635D03*
X035534Y034035D03*
X035534Y034025D03*
X035534Y032865D03*
X035534Y032855D03*
D32*
X035539Y032875D03*
X035539Y032885D03*
X035539Y034005D03*
X035539Y034015D03*
X035589Y034645D03*
X034609Y035425D03*
X033809Y034655D03*
X033809Y034645D03*
X033809Y033925D03*
X033809Y033915D03*
X033819Y033905D03*
D33*
X033824Y033895D03*
X033814Y034665D03*
X033824Y034675D03*
X035594Y034655D03*
X035604Y034665D03*
X035544Y033995D03*
X035544Y033985D03*
X035544Y032895D03*
D34*
X035549Y032905D03*
X035549Y032915D03*
X035549Y033965D03*
X035549Y033975D03*
X035609Y034675D03*
X035619Y034685D03*
X035619Y034695D03*
X033839Y034695D03*
X033829Y034685D03*
X033829Y033885D03*
X033839Y033875D03*
D35*
X033844Y033865D03*
X033844Y034705D03*
X035624Y034705D03*
X035634Y034715D03*
X035554Y033955D03*
X035554Y032935D03*
X035554Y032925D03*
X036394Y035425D03*
D36*
X035639Y034725D03*
X035559Y033945D03*
X035559Y033935D03*
X035559Y032945D03*
X033859Y033845D03*
X033849Y033855D03*
X033849Y034715D03*
X033859Y034725D03*
D37*
X033864Y034735D03*
X033874Y034745D03*
X033864Y033835D03*
X033874Y033825D03*
X033944Y033775D03*
X035564Y033925D03*
X035564Y032955D03*
D38*
X035569Y032965D03*
X035569Y033915D03*
X035649Y034735D03*
X035659Y034745D03*
X034609Y033155D03*
D39*
X033884Y033815D03*
X033884Y034755D03*
X035664Y034755D03*
X035674Y034765D03*
X035574Y033905D03*
X035574Y032985D03*
X035574Y032975D03*
D40*
X035579Y032995D03*
X035579Y033895D03*
X033929Y033735D03*
X033899Y033795D03*
X033889Y033805D03*
X033889Y034765D03*
X033899Y034775D03*
X034609Y035415D03*
D41*
X035684Y034775D03*
X035694Y034785D03*
X036394Y035415D03*
X035584Y033885D03*
X035584Y033875D03*
X035584Y033005D03*
D42*
X035589Y033015D03*
X035589Y033865D03*
X033909Y033785D03*
X033909Y034785D03*
X033919Y034795D03*
D43*
X035704Y034795D03*
X035594Y033855D03*
X035594Y033025D03*
D44*
X035599Y033035D03*
X034609Y033165D03*
X033929Y033765D03*
X033929Y034805D03*
D45*
X033944Y034815D03*
X033944Y033755D03*
X035604Y033845D03*
X035604Y033045D03*
X035714Y034805D03*
X035724Y034815D03*
D46*
X035609Y033835D03*
X035609Y033055D03*
X034609Y035405D03*
D47*
X033969Y034835D03*
X035619Y033815D03*
X035619Y033065D03*
D48*
X035624Y033075D03*
X035754Y034835D03*
D49*
X035769Y034845D03*
X035629Y033805D03*
X035629Y033085D03*
X034609Y033175D03*
X034609Y035395D03*
D50*
X035639Y033785D03*
X035639Y033095D03*
X036399Y035395D03*
D51*
X035784Y034855D03*
X034004Y034855D03*
X034004Y033715D03*
X035644Y033105D03*
D52*
X035009Y033755D03*
X034609Y033105D03*
X035009Y034815D03*
X036799Y034815D03*
D53*
X035654Y033115D03*
D54*
X034979Y033715D03*
X034609Y033115D03*
X034979Y034855D03*
X036769Y034855D03*
D55*
X036394Y035385D03*
X035664Y033125D03*
X034024Y033705D03*
D56*
X034609Y033125D03*
D57*
X035674Y033135D03*
D58*
X035684Y033145D03*
X034054Y033695D03*
X034054Y034875D03*
X035834Y034875D03*
D59*
X034519Y033145D03*
D60*
X034854Y033145D03*
D61*
X035694Y033155D03*
D62*
X035709Y033165D03*
D63*
X035724Y033175D03*
D64*
X035749Y033185D03*
X034609Y035345D03*
D65*
X034609Y035385D03*
X034679Y035355D03*
X034019Y034865D03*
X034609Y033185D03*
X035659Y033765D03*
X035809Y034865D03*
D66*
X035929Y033685D03*
X035929Y033255D03*
X035929Y033245D03*
X035929Y033235D03*
X035929Y033225D03*
X035929Y033215D03*
X035929Y033205D03*
X035929Y033195D03*
D67*
X035679Y033745D03*
X034609Y033195D03*
X034609Y035375D03*
D68*
X034609Y035365D03*
X035699Y033725D03*
X034609Y033205D03*
D69*
X034609Y033215D03*
D70*
X034609Y033225D03*
D71*
X034609Y033235D03*
D72*
X034609Y033245D03*
X034609Y035325D03*
D73*
X036394Y035315D03*
X034614Y033255D03*
D74*
X035939Y033265D03*
X035939Y033665D03*
X034609Y035235D03*
D75*
X036394Y035305D03*
X036034Y033475D03*
X034614Y033265D03*
D76*
X034614Y033325D03*
X035944Y033275D03*
X035944Y033655D03*
X036394Y035245D03*
D77*
X036024Y033495D03*
X036024Y033395D03*
X034614Y033275D03*
D78*
X035954Y033285D03*
X035954Y033635D03*
D79*
X036004Y033535D03*
X036004Y033355D03*
X034614Y033285D03*
X036394Y035285D03*
D80*
X036399Y035255D03*
X035959Y033625D03*
X035959Y033295D03*
D81*
X035994Y033345D03*
X035994Y033555D03*
X034614Y033295D03*
D82*
X035969Y033305D03*
X035969Y033605D03*
X034609Y035255D03*
D83*
X035974Y033595D03*
X035974Y033315D03*
X034614Y033305D03*
X036394Y035265D03*
D84*
X035964Y033615D03*
X034614Y033315D03*
D85*
X035984Y033325D03*
X035984Y033575D03*
X036394Y035275D03*
D86*
X035989Y033565D03*
X035989Y033335D03*
X034609Y035275D03*
D87*
X035934Y033675D03*
X034614Y033335D03*
X036394Y035235D03*
D88*
X034614Y035225D03*
X034614Y033345D03*
D89*
X034614Y033355D03*
X036394Y035215D03*
D90*
X036009Y033525D03*
X036009Y033365D03*
X034609Y035285D03*
D91*
X036394Y035205D03*
X034614Y033365D03*
D92*
X036014Y033375D03*
X036014Y033515D03*
D93*
X034614Y033375D03*
X036394Y035195D03*
D94*
X036399Y035295D03*
X036019Y033505D03*
X036019Y033385D03*
D95*
X034614Y033385D03*
D96*
X034609Y033395D03*
X034609Y035175D03*
X036399Y035175D03*
D97*
X036029Y033485D03*
X036029Y033405D03*
X034609Y035295D03*
D98*
X034609Y035165D03*
X034609Y033405D03*
D99*
X036039Y033415D03*
X036039Y033465D03*
X034609Y035305D03*
D100*
X034414Y034905D03*
X034404Y034895D03*
X034404Y033675D03*
X034414Y033665D03*
X034614Y033465D03*
X034614Y033415D03*
X036184Y034885D03*
X036394Y035155D03*
D101*
X036044Y033455D03*
X036044Y033425D03*
D102*
X034614Y033425D03*
X034464Y033605D03*
X034454Y033615D03*
X034444Y033625D03*
X034444Y034945D03*
X034454Y034955D03*
X034464Y034965D03*
X036214Y034925D03*
X036224Y034935D03*
X036394Y035145D03*
D103*
X036049Y033445D03*
X036049Y033435D03*
D104*
X034614Y033435D03*
X034554Y033505D03*
X034544Y033515D03*
X034534Y033525D03*
X034524Y033535D03*
X034514Y033545D03*
X034504Y033555D03*
X034504Y035015D03*
X034514Y035025D03*
X034524Y035035D03*
X034534Y035045D03*
X034544Y035055D03*
X034554Y035065D03*
X036264Y034985D03*
X036274Y034995D03*
X036284Y035005D03*
X036294Y035015D03*
X036394Y035135D03*
D105*
X036349Y035075D03*
X036339Y035065D03*
X036329Y035055D03*
X036319Y035045D03*
X036309Y035035D03*
X036299Y035025D03*
X034609Y035125D03*
X034599Y035115D03*
X034589Y035105D03*
X034579Y035095D03*
X034569Y035085D03*
X034559Y035075D03*
X034559Y033495D03*
X034569Y033485D03*
X034579Y033475D03*
X034599Y033455D03*
X034609Y033445D03*
D106*
X035029Y033845D03*
X035029Y034725D03*
X033559Y033775D03*
X033769Y033465D03*
X036819Y034725D03*
D107*
X035999Y033545D03*
D108*
X036229Y034945D03*
X036239Y034955D03*
X036249Y034965D03*
X036259Y034975D03*
X034609Y035135D03*
X034499Y035005D03*
X034489Y034995D03*
X034479Y034985D03*
X034469Y034975D03*
X034469Y033595D03*
X034479Y033585D03*
X034489Y033575D03*
X034499Y033565D03*
D109*
X035979Y033585D03*
X034609Y035265D03*
D110*
X034609Y035145D03*
X034439Y034935D03*
X034429Y034925D03*
X034419Y034915D03*
X034419Y033655D03*
X034429Y033645D03*
X034439Y033635D03*
X036189Y034895D03*
X036199Y034905D03*
X036209Y034915D03*
D111*
X035949Y033645D03*
X034609Y035245D03*
D112*
X034609Y035155D03*
X034399Y034885D03*
X034399Y033685D03*
D113*
X035764Y033695D03*
X034614Y035335D03*
D114*
X034609Y035445D03*
X034949Y033695D03*
D115*
X035734Y033705D03*
X036394Y035355D03*
D116*
X036754Y034865D03*
X034964Y033705D03*
D117*
X035714Y033715D03*
X036394Y035365D03*
D118*
X035634Y033795D03*
X033984Y033725D03*
X033984Y034845D03*
D119*
X034989Y034845D03*
X034989Y033725D03*
X036779Y034845D03*
D120*
X036399Y035375D03*
X035689Y033735D03*
D121*
X034344Y033735D03*
D122*
X034999Y033735D03*
X034999Y034835D03*
D123*
X035734Y034825D03*
X036394Y035405D03*
X035614Y033825D03*
X033954Y033745D03*
X033954Y034825D03*
D124*
X035004Y034825D03*
X035004Y033745D03*
X036794Y034825D03*
D125*
X035669Y033755D03*
D126*
X035014Y033765D03*
X035014Y034805D03*
X036804Y034805D03*
D127*
X035649Y033775D03*
D128*
X035019Y033775D03*
X035019Y034795D03*
D129*
X035019Y034785D03*
X035019Y033785D03*
X036809Y034785D03*
D130*
X035024Y034775D03*
X035024Y033795D03*
D131*
X035024Y033805D03*
X035024Y034765D03*
X034154Y035355D03*
X036814Y034765D03*
D132*
X036814Y034755D03*
X035024Y033815D03*
D133*
X035029Y033825D03*
X035029Y034745D03*
X036399Y035475D03*
D134*
X036819Y034735D03*
X035029Y034735D03*
X035029Y033835D03*
D135*
X035029Y033855D03*
X035029Y034715D03*
X036819Y034715D03*
D136*
X033434Y034145D03*
D137*
X033739Y034145D03*
D138*
X036814Y034745D03*
D139*
X035029Y034755D03*
D140*
X036809Y034775D03*
D141*
X036804Y034795D03*
D142*
X036784Y034835D03*
D143*
X036399Y035455D03*
X034969Y034865D03*
D144*
X034944Y034875D03*
X036734Y034875D03*
D145*
X036394Y035125D03*
X036384Y035115D03*
X036374Y035105D03*
X036364Y035095D03*
X036354Y035085D03*
D146*
X036394Y035165D03*
D147*
X036399Y035185D03*
D148*
X034609Y035185D03*
D149*
X034609Y035195D03*
D150*
X034609Y035205D03*
D151*
X034609Y035215D03*
D152*
X036399Y035225D03*
D153*
X034609Y035315D03*
D154*
X036399Y035325D03*
D155*
X036394Y035335D03*
D156*
X036394Y035345D03*
D157*
X036394Y035445D03*
D158*
X034609Y035455D03*
D159*
X036394Y035465D03*
D160*
X034609Y035465D03*
D161*
X013773Y035888D02*
X012391Y035888D01*
X012391Y036986D01*
X013773Y036986D01*
X013773Y035888D01*
X013342Y035728D02*
X006991Y035728D01*
X006991Y037146D01*
X013342Y037146D01*
X013342Y035728D01*
D162*
X031045Y035723D02*
X031047Y035767D01*
X031053Y035811D01*
X031063Y035855D01*
X031076Y035897D01*
X031093Y035938D01*
X031114Y035977D01*
X031138Y036014D01*
X031166Y036049D01*
X031196Y036082D01*
X031229Y036111D01*
X031265Y036138D01*
X031302Y036161D01*
X031342Y036181D01*
X031383Y036198D01*
X031426Y036210D01*
X031470Y036219D01*
X031514Y036224D01*
X031558Y036225D01*
X031602Y036222D01*
X031646Y036215D01*
X031689Y036204D01*
X031731Y036190D01*
X031772Y036172D01*
X031811Y036150D01*
X031847Y036125D01*
X031882Y036097D01*
X031914Y036066D01*
X031942Y036032D01*
X031968Y035996D01*
X031991Y035958D01*
X032010Y035918D01*
X032025Y035876D01*
X032037Y035833D01*
X032045Y035789D01*
X032049Y035745D01*
X032049Y035701D01*
X032045Y035657D01*
X032037Y035613D01*
X032025Y035570D01*
X032010Y035528D01*
X031991Y035488D01*
X031968Y035450D01*
X031942Y035414D01*
X031914Y035380D01*
X031882Y035349D01*
X031847Y035321D01*
X031811Y035296D01*
X031772Y035274D01*
X031731Y035256D01*
X031689Y035242D01*
X031646Y035231D01*
X031602Y035224D01*
X031558Y035221D01*
X031514Y035222D01*
X031470Y035227D01*
X031426Y035236D01*
X031383Y035248D01*
X031342Y035265D01*
X031302Y035285D01*
X031265Y035308D01*
X031229Y035335D01*
X031196Y035364D01*
X031166Y035397D01*
X031138Y035432D01*
X031114Y035469D01*
X031093Y035508D01*
X031076Y035549D01*
X031063Y035591D01*
X031053Y035635D01*
X031047Y035679D01*
X031045Y035723D01*
X038132Y011313D02*
X038134Y011357D01*
X038140Y011401D01*
X038150Y011445D01*
X038163Y011487D01*
X038180Y011528D01*
X038201Y011567D01*
X038225Y011604D01*
X038253Y011639D01*
X038283Y011672D01*
X038316Y011701D01*
X038352Y011728D01*
X038389Y011751D01*
X038429Y011771D01*
X038470Y011788D01*
X038513Y011800D01*
X038557Y011809D01*
X038601Y011814D01*
X038645Y011815D01*
X038689Y011812D01*
X038733Y011805D01*
X038776Y011794D01*
X038818Y011780D01*
X038859Y011762D01*
X038898Y011740D01*
X038934Y011715D01*
X038969Y011687D01*
X039001Y011656D01*
X039029Y011622D01*
X039055Y011586D01*
X039078Y011548D01*
X039097Y011508D01*
X039112Y011466D01*
X039124Y011423D01*
X039132Y011379D01*
X039136Y011335D01*
X039136Y011291D01*
X039132Y011247D01*
X039124Y011203D01*
X039112Y011160D01*
X039097Y011118D01*
X039078Y011078D01*
X039055Y011040D01*
X039029Y011004D01*
X039001Y010970D01*
X038969Y010939D01*
X038934Y010911D01*
X038898Y010886D01*
X038859Y010864D01*
X038818Y010846D01*
X038776Y010832D01*
X038733Y010821D01*
X038689Y010814D01*
X038645Y010811D01*
X038601Y010812D01*
X038557Y010817D01*
X038513Y010826D01*
X038470Y010838D01*
X038429Y010855D01*
X038389Y010875D01*
X038352Y010898D01*
X038316Y010925D01*
X038283Y010954D01*
X038253Y010987D01*
X038225Y011022D01*
X038201Y011059D01*
X038180Y011098D01*
X038163Y011139D01*
X038150Y011181D01*
X038140Y011225D01*
X038134Y011269D01*
X038132Y011313D01*
X016085Y007770D02*
X016087Y007814D01*
X016093Y007858D01*
X016103Y007902D01*
X016116Y007944D01*
X016133Y007985D01*
X016154Y008024D01*
X016178Y008061D01*
X016206Y008096D01*
X016236Y008129D01*
X016269Y008158D01*
X016305Y008185D01*
X016342Y008208D01*
X016382Y008228D01*
X016423Y008245D01*
X016466Y008257D01*
X016510Y008266D01*
X016554Y008271D01*
X016598Y008272D01*
X016642Y008269D01*
X016686Y008262D01*
X016729Y008251D01*
X016771Y008237D01*
X016812Y008219D01*
X016851Y008197D01*
X016887Y008172D01*
X016922Y008144D01*
X016954Y008113D01*
X016982Y008079D01*
X017008Y008043D01*
X017031Y008005D01*
X017050Y007965D01*
X017065Y007923D01*
X017077Y007880D01*
X017085Y007836D01*
X017089Y007792D01*
X017089Y007748D01*
X017085Y007704D01*
X017077Y007660D01*
X017065Y007617D01*
X017050Y007575D01*
X017031Y007535D01*
X017008Y007497D01*
X016982Y007461D01*
X016954Y007427D01*
X016922Y007396D01*
X016887Y007368D01*
X016851Y007343D01*
X016812Y007321D01*
X016771Y007303D01*
X016729Y007289D01*
X016686Y007278D01*
X016642Y007271D01*
X016598Y007268D01*
X016554Y007269D01*
X016510Y007274D01*
X016466Y007283D01*
X016423Y007295D01*
X016382Y007312D01*
X016342Y007332D01*
X016305Y007355D01*
X016269Y007382D01*
X016236Y007411D01*
X016206Y007444D01*
X016178Y007479D01*
X016154Y007516D01*
X016133Y007555D01*
X016116Y007596D01*
X016103Y007638D01*
X016093Y007682D01*
X016087Y007726D01*
X016085Y007770D01*
M02*
