G75*
%MOIN*%
%OFA0B0*%
%FSLAX24Y24*%
%IPPOS*%
%LPD*%
%AMOC8*
5,1,8,0,0,1.08239X$1,22.5*
%
%ADD10C,0.0000*%
D10*
X008365Y007190D02*
X008365Y037019D01*
X008367Y037077D01*
X008373Y037134D01*
X008382Y037191D01*
X008395Y037247D01*
X008412Y037302D01*
X008432Y037356D01*
X008456Y037408D01*
X008483Y037459D01*
X008513Y037508D01*
X008547Y037555D01*
X008583Y037599D01*
X008623Y037641D01*
X008665Y037681D01*
X008709Y037717D01*
X008756Y037751D01*
X008805Y037781D01*
X008856Y037808D01*
X008908Y037832D01*
X008962Y037852D01*
X009017Y037869D01*
X009073Y037882D01*
X009130Y037891D01*
X009187Y037897D01*
X009245Y037899D01*
X016928Y037899D01*
X016928Y038837D01*
X016930Y038878D01*
X016935Y038918D01*
X016945Y038957D01*
X016958Y038996D01*
X016974Y039033D01*
X016994Y039069D01*
X017017Y039102D01*
X017043Y039133D01*
X017072Y039162D01*
X017103Y039188D01*
X017136Y039211D01*
X017172Y039231D01*
X017209Y039247D01*
X017248Y039260D01*
X017287Y039270D01*
X017327Y039275D01*
X017368Y039277D01*
X028200Y039277D01*
X028241Y039275D01*
X028281Y039270D01*
X028320Y039260D01*
X028359Y039247D01*
X028396Y039231D01*
X028432Y039211D01*
X028465Y039188D01*
X028496Y039162D01*
X028525Y039133D01*
X028551Y039102D01*
X028574Y039069D01*
X028594Y039033D01*
X028610Y038996D01*
X028623Y038957D01*
X028633Y038918D01*
X028638Y038878D01*
X028640Y038837D01*
X028640Y037899D01*
X038981Y037899D01*
X039039Y037897D01*
X039096Y037891D01*
X039153Y037882D01*
X039209Y037869D01*
X039264Y037852D01*
X039318Y037832D01*
X039370Y037808D01*
X039421Y037781D01*
X039470Y037751D01*
X039517Y037717D01*
X039561Y037681D01*
X039603Y037641D01*
X039643Y037599D01*
X039679Y037555D01*
X039713Y037508D01*
X039743Y037459D01*
X039770Y037408D01*
X039794Y037356D01*
X039814Y037302D01*
X039831Y037247D01*
X039844Y037191D01*
X039853Y037134D01*
X039859Y037077D01*
X039861Y037019D01*
X039861Y007283D01*
X039859Y007225D01*
X039853Y007168D01*
X039844Y007111D01*
X039831Y007055D01*
X039814Y007000D01*
X039794Y006946D01*
X039770Y006894D01*
X039743Y006843D01*
X039713Y006794D01*
X039679Y006747D01*
X039643Y006703D01*
X039603Y006661D01*
X039561Y006621D01*
X039517Y006585D01*
X039470Y006551D01*
X039421Y006521D01*
X039370Y006494D01*
X039318Y006470D01*
X039264Y006450D01*
X039209Y006433D01*
X039153Y006420D01*
X039096Y006411D01*
X039039Y006405D01*
X038981Y006403D01*
X038842Y006403D01*
X038815Y006401D01*
X038788Y006396D01*
X038762Y006387D01*
X038738Y006375D01*
X038715Y006360D01*
X038695Y006342D01*
X038677Y006322D01*
X038662Y006299D01*
X038650Y006275D01*
X038641Y006249D01*
X038636Y006222D01*
X038634Y006195D01*
X038634Y005801D01*
X038632Y005746D01*
X038626Y005691D01*
X038616Y005636D01*
X038603Y005582D01*
X038585Y005530D01*
X038564Y005479D01*
X038539Y005429D01*
X038511Y005381D01*
X038479Y005336D01*
X038444Y005293D01*
X038407Y005252D01*
X038366Y005215D01*
X038323Y005180D01*
X038278Y005148D01*
X038230Y005120D01*
X038180Y005095D01*
X038129Y005074D01*
X038077Y005056D01*
X038023Y005043D01*
X037968Y005033D01*
X037913Y005027D01*
X037858Y005025D01*
X018938Y005025D01*
X018883Y005027D01*
X018828Y005033D01*
X018773Y005043D01*
X018719Y005056D01*
X018667Y005074D01*
X018616Y005095D01*
X018566Y005120D01*
X018518Y005148D01*
X018473Y005180D01*
X018430Y005215D01*
X018389Y005252D01*
X018352Y005293D01*
X018317Y005336D01*
X018285Y005381D01*
X018257Y005429D01*
X018232Y005479D01*
X018211Y005530D01*
X018193Y005582D01*
X018180Y005636D01*
X018170Y005691D01*
X018164Y005746D01*
X018162Y005801D01*
X018162Y006195D01*
X018160Y006222D01*
X018155Y006249D01*
X018146Y006275D01*
X018134Y006299D01*
X018119Y006322D01*
X018101Y006342D01*
X018081Y006360D01*
X018058Y006375D01*
X018034Y006387D01*
X018008Y006396D01*
X017981Y006401D01*
X017954Y006403D01*
X009152Y006403D01*
X009098Y006405D01*
X009045Y006410D01*
X008992Y006419D01*
X008940Y006432D01*
X008888Y006448D01*
X008838Y006468D01*
X008790Y006491D01*
X008743Y006518D01*
X008698Y006547D01*
X008655Y006580D01*
X008615Y006615D01*
X008577Y006653D01*
X008542Y006693D01*
X008509Y006736D01*
X008480Y006781D01*
X008453Y006828D01*
X008430Y006876D01*
X008410Y006926D01*
X008394Y006978D01*
X008381Y007030D01*
X008372Y007083D01*
X008367Y007136D01*
X008365Y007190D01*
X016790Y009356D02*
X016792Y009406D01*
X016798Y009456D01*
X016808Y009505D01*
X016822Y009553D01*
X016839Y009600D01*
X016860Y009645D01*
X016885Y009689D01*
X016913Y009730D01*
X016945Y009769D01*
X016979Y009806D01*
X017016Y009840D01*
X017056Y009870D01*
X017098Y009897D01*
X017142Y009921D01*
X017188Y009942D01*
X017235Y009958D01*
X017283Y009971D01*
X017333Y009980D01*
X017382Y009985D01*
X017433Y009986D01*
X017483Y009983D01*
X017532Y009976D01*
X017581Y009965D01*
X017629Y009950D01*
X017675Y009932D01*
X017720Y009910D01*
X017763Y009884D01*
X017804Y009855D01*
X017843Y009823D01*
X017879Y009788D01*
X017911Y009750D01*
X017941Y009710D01*
X017968Y009667D01*
X017991Y009623D01*
X018010Y009577D01*
X018026Y009529D01*
X018038Y009480D01*
X018046Y009431D01*
X018050Y009381D01*
X018050Y009331D01*
X018046Y009281D01*
X018038Y009232D01*
X018026Y009183D01*
X018010Y009135D01*
X017991Y009089D01*
X017968Y009045D01*
X017941Y009002D01*
X017911Y008962D01*
X017879Y008924D01*
X017843Y008889D01*
X017804Y008857D01*
X017763Y008828D01*
X017720Y008802D01*
X017675Y008780D01*
X017629Y008762D01*
X017581Y008747D01*
X017532Y008736D01*
X017483Y008729D01*
X017433Y008726D01*
X017382Y008727D01*
X017333Y008732D01*
X017283Y008741D01*
X017235Y008754D01*
X017188Y008770D01*
X017142Y008791D01*
X017098Y008815D01*
X017056Y008842D01*
X017016Y008872D01*
X016979Y008906D01*
X016945Y008943D01*
X016913Y008982D01*
X016885Y009023D01*
X016860Y009067D01*
X016839Y009112D01*
X016822Y009159D01*
X016808Y009207D01*
X016798Y009256D01*
X016792Y009306D01*
X016790Y009356D01*
X016790Y028057D02*
X016792Y028107D01*
X016798Y028157D01*
X016808Y028206D01*
X016822Y028254D01*
X016839Y028301D01*
X016860Y028346D01*
X016885Y028390D01*
X016913Y028431D01*
X016945Y028470D01*
X016979Y028507D01*
X017016Y028541D01*
X017056Y028571D01*
X017098Y028598D01*
X017142Y028622D01*
X017188Y028643D01*
X017235Y028659D01*
X017283Y028672D01*
X017333Y028681D01*
X017382Y028686D01*
X017433Y028687D01*
X017483Y028684D01*
X017532Y028677D01*
X017581Y028666D01*
X017629Y028651D01*
X017675Y028633D01*
X017720Y028611D01*
X017763Y028585D01*
X017804Y028556D01*
X017843Y028524D01*
X017879Y028489D01*
X017911Y028451D01*
X017941Y028411D01*
X017968Y028368D01*
X017991Y028324D01*
X018010Y028278D01*
X018026Y028230D01*
X018038Y028181D01*
X018046Y028132D01*
X018050Y028082D01*
X018050Y028032D01*
X018046Y027982D01*
X018038Y027933D01*
X018026Y027884D01*
X018010Y027836D01*
X017991Y027790D01*
X017968Y027746D01*
X017941Y027703D01*
X017911Y027663D01*
X017879Y027625D01*
X017843Y027590D01*
X017804Y027558D01*
X017763Y027529D01*
X017720Y027503D01*
X017675Y027481D01*
X017629Y027463D01*
X017581Y027448D01*
X017532Y027437D01*
X017483Y027430D01*
X017433Y027427D01*
X017382Y027428D01*
X017333Y027433D01*
X017283Y027442D01*
X017235Y027455D01*
X017188Y027471D01*
X017142Y027492D01*
X017098Y027516D01*
X017056Y027543D01*
X017016Y027573D01*
X016979Y027607D01*
X016945Y027644D01*
X016913Y027683D01*
X016885Y027724D01*
X016860Y027768D01*
X016839Y027813D01*
X016822Y027860D01*
X016808Y027908D01*
X016798Y027957D01*
X016792Y028007D01*
X016790Y028057D01*
X018624Y034139D02*
X018626Y034174D01*
X018632Y034209D01*
X018642Y034243D01*
X018655Y034276D01*
X018672Y034307D01*
X018693Y034335D01*
X018716Y034362D01*
X018743Y034385D01*
X018771Y034406D01*
X018802Y034423D01*
X018835Y034436D01*
X018869Y034446D01*
X018904Y034452D01*
X018939Y034454D01*
X018974Y034452D01*
X019009Y034446D01*
X019043Y034436D01*
X019076Y034423D01*
X019107Y034406D01*
X019135Y034385D01*
X019162Y034362D01*
X019185Y034335D01*
X019206Y034307D01*
X019223Y034276D01*
X019236Y034243D01*
X019246Y034209D01*
X019252Y034174D01*
X019254Y034139D01*
X019252Y034104D01*
X019246Y034069D01*
X019236Y034035D01*
X019223Y034002D01*
X019206Y033971D01*
X019185Y033943D01*
X019162Y033916D01*
X019135Y033893D01*
X019107Y033872D01*
X019076Y033855D01*
X019043Y033842D01*
X019009Y033832D01*
X018974Y033826D01*
X018939Y033824D01*
X018904Y033826D01*
X018869Y033832D01*
X018835Y033842D01*
X018802Y033855D01*
X018771Y033872D01*
X018743Y033893D01*
X018716Y033916D01*
X018693Y033943D01*
X018672Y033971D01*
X018655Y034002D01*
X018642Y034035D01*
X018632Y034069D01*
X018626Y034104D01*
X018624Y034139D01*
X018624Y036895D02*
X018626Y036930D01*
X018632Y036965D01*
X018642Y036999D01*
X018655Y037032D01*
X018672Y037063D01*
X018693Y037091D01*
X018716Y037118D01*
X018743Y037141D01*
X018771Y037162D01*
X018802Y037179D01*
X018835Y037192D01*
X018869Y037202D01*
X018904Y037208D01*
X018939Y037210D01*
X018974Y037208D01*
X019009Y037202D01*
X019043Y037192D01*
X019076Y037179D01*
X019107Y037162D01*
X019135Y037141D01*
X019162Y037118D01*
X019185Y037091D01*
X019206Y037063D01*
X019223Y037032D01*
X019236Y036999D01*
X019246Y036965D01*
X019252Y036930D01*
X019254Y036895D01*
X019252Y036860D01*
X019246Y036825D01*
X019236Y036791D01*
X019223Y036758D01*
X019206Y036727D01*
X019185Y036699D01*
X019162Y036672D01*
X019135Y036649D01*
X019107Y036628D01*
X019076Y036611D01*
X019043Y036598D01*
X019009Y036588D01*
X018974Y036582D01*
X018939Y036580D01*
X018904Y036582D01*
X018869Y036588D01*
X018835Y036598D01*
X018802Y036611D01*
X018771Y036628D01*
X018743Y036649D01*
X018716Y036672D01*
X018693Y036699D01*
X018672Y036727D01*
X018655Y036758D01*
X018642Y036791D01*
X018632Y036825D01*
X018626Y036860D01*
X018624Y036895D01*
X024995Y036867D02*
X024997Y036894D01*
X025003Y036921D01*
X025012Y036947D01*
X025025Y036971D01*
X025041Y036994D01*
X025060Y037013D01*
X025082Y037030D01*
X025106Y037044D01*
X025131Y037054D01*
X025158Y037061D01*
X025185Y037064D01*
X025213Y037063D01*
X025240Y037058D01*
X025266Y037050D01*
X025290Y037038D01*
X025313Y037022D01*
X025334Y037004D01*
X025351Y036983D01*
X025366Y036959D01*
X025377Y036934D01*
X025385Y036908D01*
X025389Y036881D01*
X025389Y036853D01*
X025385Y036826D01*
X025377Y036800D01*
X025366Y036775D01*
X025351Y036751D01*
X025334Y036730D01*
X025313Y036712D01*
X025291Y036696D01*
X025266Y036684D01*
X025240Y036676D01*
X025213Y036671D01*
X025185Y036670D01*
X025158Y036673D01*
X025131Y036680D01*
X025106Y036690D01*
X025082Y036704D01*
X025060Y036721D01*
X025041Y036740D01*
X025025Y036763D01*
X025012Y036787D01*
X025003Y036813D01*
X024997Y036840D01*
X024995Y036867D01*
X026373Y036867D02*
X026375Y036894D01*
X026381Y036921D01*
X026390Y036947D01*
X026403Y036971D01*
X026419Y036994D01*
X026438Y037013D01*
X026460Y037030D01*
X026484Y037044D01*
X026509Y037054D01*
X026536Y037061D01*
X026563Y037064D01*
X026591Y037063D01*
X026618Y037058D01*
X026644Y037050D01*
X026668Y037038D01*
X026691Y037022D01*
X026712Y037004D01*
X026729Y036983D01*
X026744Y036959D01*
X026755Y036934D01*
X026763Y036908D01*
X026767Y036881D01*
X026767Y036853D01*
X026763Y036826D01*
X026755Y036800D01*
X026744Y036775D01*
X026729Y036751D01*
X026712Y036730D01*
X026691Y036712D01*
X026669Y036696D01*
X026644Y036684D01*
X026618Y036676D01*
X026591Y036671D01*
X026563Y036670D01*
X026536Y036673D01*
X026509Y036680D01*
X026484Y036690D01*
X026460Y036704D01*
X026438Y036721D01*
X026419Y036740D01*
X026403Y036763D01*
X026390Y036787D01*
X026381Y036813D01*
X026375Y036840D01*
X026373Y036867D01*
X030176Y028057D02*
X030178Y028107D01*
X030184Y028157D01*
X030194Y028206D01*
X030208Y028254D01*
X030225Y028301D01*
X030246Y028346D01*
X030271Y028390D01*
X030299Y028431D01*
X030331Y028470D01*
X030365Y028507D01*
X030402Y028541D01*
X030442Y028571D01*
X030484Y028598D01*
X030528Y028622D01*
X030574Y028643D01*
X030621Y028659D01*
X030669Y028672D01*
X030719Y028681D01*
X030768Y028686D01*
X030819Y028687D01*
X030869Y028684D01*
X030918Y028677D01*
X030967Y028666D01*
X031015Y028651D01*
X031061Y028633D01*
X031106Y028611D01*
X031149Y028585D01*
X031190Y028556D01*
X031229Y028524D01*
X031265Y028489D01*
X031297Y028451D01*
X031327Y028411D01*
X031354Y028368D01*
X031377Y028324D01*
X031396Y028278D01*
X031412Y028230D01*
X031424Y028181D01*
X031432Y028132D01*
X031436Y028082D01*
X031436Y028032D01*
X031432Y027982D01*
X031424Y027933D01*
X031412Y027884D01*
X031396Y027836D01*
X031377Y027790D01*
X031354Y027746D01*
X031327Y027703D01*
X031297Y027663D01*
X031265Y027625D01*
X031229Y027590D01*
X031190Y027558D01*
X031149Y027529D01*
X031106Y027503D01*
X031061Y027481D01*
X031015Y027463D01*
X030967Y027448D01*
X030918Y027437D01*
X030869Y027430D01*
X030819Y027427D01*
X030768Y027428D01*
X030719Y027433D01*
X030669Y027442D01*
X030621Y027455D01*
X030574Y027471D01*
X030528Y027492D01*
X030484Y027516D01*
X030442Y027543D01*
X030402Y027573D01*
X030365Y027607D01*
X030331Y027644D01*
X030299Y027683D01*
X030271Y027724D01*
X030246Y027768D01*
X030225Y027813D01*
X030208Y027860D01*
X030194Y027908D01*
X030184Y027957D01*
X030178Y028007D01*
X030176Y028057D01*
X011171Y036437D02*
X011173Y036475D01*
X011179Y036513D01*
X011188Y036551D01*
X011202Y036587D01*
X011219Y036621D01*
X011239Y036654D01*
X011263Y036685D01*
X011289Y036712D01*
X011318Y036737D01*
X011350Y036759D01*
X011384Y036778D01*
X011419Y036793D01*
X011456Y036805D01*
X011493Y036813D01*
X011532Y036817D01*
X011570Y036817D01*
X011609Y036813D01*
X011646Y036805D01*
X011683Y036793D01*
X011718Y036778D01*
X011752Y036759D01*
X011784Y036737D01*
X011813Y036712D01*
X011839Y036685D01*
X011863Y036654D01*
X011883Y036621D01*
X011900Y036587D01*
X011914Y036551D01*
X011923Y036513D01*
X011929Y036475D01*
X011931Y036437D01*
X011929Y036399D01*
X011923Y036361D01*
X011914Y036323D01*
X011900Y036287D01*
X011883Y036253D01*
X011863Y036220D01*
X011839Y036189D01*
X011813Y036162D01*
X011784Y036137D01*
X011752Y036115D01*
X011718Y036096D01*
X011683Y036081D01*
X011646Y036069D01*
X011609Y036061D01*
X011570Y036057D01*
X011532Y036057D01*
X011493Y036061D01*
X011456Y036069D01*
X011419Y036081D01*
X011384Y036096D01*
X011350Y036115D01*
X011318Y036137D01*
X011289Y036162D01*
X011263Y036189D01*
X011239Y036220D01*
X011219Y036253D01*
X011202Y036287D01*
X011188Y036323D01*
X011179Y036361D01*
X011173Y036399D01*
X011171Y036437D01*
X010001Y036437D02*
X010003Y036475D01*
X010009Y036513D01*
X010018Y036551D01*
X010032Y036587D01*
X010049Y036621D01*
X010069Y036654D01*
X010093Y036685D01*
X010119Y036712D01*
X010148Y036737D01*
X010180Y036759D01*
X010214Y036778D01*
X010249Y036793D01*
X010286Y036805D01*
X010323Y036813D01*
X010362Y036817D01*
X010400Y036817D01*
X010439Y036813D01*
X010476Y036805D01*
X010513Y036793D01*
X010548Y036778D01*
X010582Y036759D01*
X010614Y036737D01*
X010643Y036712D01*
X010669Y036685D01*
X010693Y036654D01*
X010713Y036621D01*
X010730Y036587D01*
X010744Y036551D01*
X010753Y036513D01*
X010759Y036475D01*
X010761Y036437D01*
X010759Y036399D01*
X010753Y036361D01*
X010744Y036323D01*
X010730Y036287D01*
X010713Y036253D01*
X010693Y036220D01*
X010669Y036189D01*
X010643Y036162D01*
X010614Y036137D01*
X010582Y036115D01*
X010548Y036096D01*
X010513Y036081D01*
X010476Y036069D01*
X010439Y036061D01*
X010400Y036057D01*
X010362Y036057D01*
X010323Y036061D01*
X010286Y036069D01*
X010249Y036081D01*
X010214Y036096D01*
X010180Y036115D01*
X010148Y036137D01*
X010119Y036162D01*
X010093Y036189D01*
X010069Y036220D01*
X010049Y036253D01*
X010032Y036287D01*
X010018Y036323D01*
X010009Y036361D01*
X010003Y036399D01*
X010001Y036437D01*
M02*
