%
M48
M72
T01C0.0138
T02C0.0197
T03C0.0354
T04C0.0394
T05C0.0400
T06C0.0433
T07C0.0472
T08C0.0591
T09C0.0630
T10C0.0760
T11C0.0787
T12C0.1260
%
T01
X8819Y6859
X13319Y11392
X14819Y9892
X14819Y9392
X14819Y8892
X14228Y7309
X16707Y10207
X17409Y11561
X19499Y12531
X19499Y13031
X19499Y13531
X21299Y13531
X21299Y13031
X21299Y12531
X23039Y12471
X23039Y12971
X23039Y13471
X24989Y13471
X24989Y12971
X24989Y12471
X26739Y12471
X26739Y12971
X26739Y13471
X28679Y13677
X27919Y15401
X28659Y16061
X28659Y17061
X27939Y17721
X27659Y18061
X27659Y19061
X28659Y19061
X29439Y19161
X29079Y20121
X28659Y20061
X29079Y20901
X29439Y21261
X29799Y21621
X30159Y21861
X30319Y22311
X29819Y22311
X30879Y20901
X30659Y19561
X30659Y18561
X30659Y17561
X29799Y18321
X28659Y18061
X26759Y16601
X26579Y15821
X26820Y15453
X25879Y15401
X24759Y15821
X24780Y16323
X23959Y15341
X23219Y15821
X22800Y15463
X22719Y16121
X22800Y16463
X21240Y16373
X21179Y15848
X21240Y15313
X20309Y15401
X19112Y15863
X19409Y16431
X20659Y18061
X21659Y18061
X21659Y19061
X20659Y19061
X20659Y20061
X21659Y20061
X22659Y20061
X22659Y19061
X22659Y18061
X23659Y18061
X23659Y19061
X24659Y21061
X25659Y21061
X25159Y23061
X26199Y23301
X26679Y23301
X27159Y23301
X27459Y24861
X26659Y25061
X26659Y26061
X26659Y27061
X25671Y25864
X25059Y25261
X24351Y25674
X24659Y26061
X24609Y26921
X24019Y27561
X23659Y27061
X23659Y26061
X22599Y24621
X22479Y24116
X21319Y24811
X20989Y24651
X20659Y25061
X20659Y26061
X20659Y27061
X20659Y28061
X21659Y29061
X22359Y29301
X22659Y29921
X23019Y29921
X23939Y28919
X24579Y29929
X24719Y30439
X26316Y31297
X27529Y31049
X27659Y32579
X27719Y33439
X28719Y33439
X28719Y34439
X29719Y34439
X29719Y35439
X29719Y36439
X29719Y37439
X28719Y36499
X27719Y35439
X26026Y35147
X25319Y35319
X24719Y35439
X24359Y35299
X23689Y35509
X22539Y34439
X22809Y34139
X21999Y35159
X21719Y35439
X21719Y36439
X21719Y37439
X20719Y37439
X19719Y37439
X19719Y38439
X20719Y38439
X21719Y38439
X22719Y38439
X23719Y38439
X19719Y34439
X19719Y33439
X19916Y32636
X20719Y32439
X21076Y31547
X21576Y31547
X21719Y32439
X22719Y32439
X23111Y32637
X23719Y32439
X22719Y31439
X21469Y30019
X20719Y30439
X20211Y31341
X18705Y31455
X17099Y32439
X15419Y33739
X16717Y35225
X18312Y34833
X16493Y37160
X14159Y36477
X8819Y37311
X13319Y30290
X14819Y29790
X14819Y29390
X14819Y29040
X13319Y27714
X16717Y29304
X18659Y28061
X18659Y27061
X18659Y26061
X18659Y25061
X20239Y23401
X20239Y22901
X19839Y22221
X20659Y22061
X21069Y22061
X20819Y23811
X24159Y23061
X28259Y25821
X29319Y24981
X28959Y24621
X28959Y23901
X29319Y23901
X30009Y25371
X28979Y26941
X27479Y28381
X26699Y28381
X27659Y29461
X28919Y28921
X29459Y30961
X30299Y31201
X24719Y33439
X24189Y34269
X22759Y28381
X22659Y27761
X16707Y23186
X16707Y22706
X17319Y21061
X17319Y20561
X17159Y18811
X15356Y20924
X14819Y22820
X14819Y23320
X14819Y23820
X13319Y22320
X13319Y19351
X14819Y16851
X14819Y16351
X14819Y15851
X13713Y14461
X16707Y16316
X17659Y7369
X25409Y7389
X30629Y12451
X31649Y14851
X30159Y15861
X26179Y18111
X25839Y18111
X33759Y21741
X33759Y22701
X36379Y27099
X37169Y30539
X39362Y37311
X36479Y15417
X34739Y13677
X34679Y12701
X35539Y11081
X36039Y11081
X36809Y11311
T02
X25647Y21919
T03
X21816Y25219
X21816Y26219
X21816Y27219
X21816Y28219
X13351Y30805
X13351Y31805
X13351Y24780
X13351Y23780
X13351Y17755
X13351Y16755
X13351Y10742
X13351Y9742
T04
X25192Y36867
X26570Y36867
T05
X10666Y32300
X10666Y31300
X10666Y25270
X10666Y24270
X10666Y18221
X10666Y17221
X10666Y11232
X10666Y10232
T06
X19159Y8172
X20537Y8172
X21915Y8172
X23293Y8172
X24671Y8172
X26049Y8172
X27427Y8172
X28804Y8172
T07
X30815Y8179
X32193Y8179
X33571Y8179
X34949Y8179
X36327Y8179
X37705Y8179
T08
X27318Y36080
X27318Y38166
X24444Y38166
X24444Y36080
T09
X18939Y36895
X18939Y34139
T10
X11551Y36437
X10381Y36437
T11
X11351Y33805
X11351Y29805
X11351Y26780
X11351Y22780
X11351Y19755
X11351Y15755
X11351Y12742
X11351Y8742
T12
X17420Y9356
X17420Y28057
X30806Y28057
M30
