<?xml version="1.0" encoding="UTF-8" standalone="no"?>
<!-- Created with Inkscape (http://www.inkscape.org/) -->

<svg
   xmlns:dc="http://purl.org/dc/elements/1.1/"
   xmlns:cc="http://creativecommons.org/ns#"
   xmlns:rdf="http://www.w3.org/1999/02/22-rdf-syntax-ns#"
   xmlns:svg="http://www.w3.org/2000/svg"
   xmlns="http://www.w3.org/2000/svg"
   xmlns:sodipodi="http://sodipodi.sourceforge.net/DTD/sodipodi-0.dtd"
   xmlns:inkscape="http://www.inkscape.org/namespaces/inkscape"
   id="svg4133"
   version="1.1"
   inkscape:version="0.91 r13725"
   xml:space="preserve"
   width="138.4101mm"
   height="148.1189mm"
   viewBox="0 0 490.42948 524.83075"
   sodipodi:docname="Sync_1238_Acril_Cover-Top_Bottom_LR.svg"><metadata
     id="metadata4139"><rdf:RDF><cc:Work
         rdf:about=""><dc:format>image/svg+xml</dc:format><dc:type
           rdf:resource="http://purl.org/dc/dcmitype/StillImage" /><dc:title></dc:title></cc:Work></rdf:RDF></metadata><defs
     id="defs4137" /><sodipodi:namedview
     pagecolor="#ffffff"
     bordercolor="#666666"
     borderopacity="1"
     objecttolerance="10"
     gridtolerance="10"
     guidetolerance="10"
     inkscape:pageopacity="0"
     inkscape:pageshadow="2"
     inkscape:window-width="1920"
     inkscape:window-height="1003"
     id="namedview4135"
     showgrid="false"
     showguides="true"
     inkscape:guide-bbox="true"
     inkscape:document-units="mm"
     units="mm"
     fit-margin-top="0"
     fit-margin-left="0"
     fit-margin-right="0"
     fit-margin-bottom="0"
     inkscape:zoom="0.54227038"
     inkscape:cx="996.91004"
     inkscape:cy="-160.93772"
     inkscape:window-x="-9"
     inkscape:window-y="-9"
     inkscape:window-maximized="1"
     inkscape:current-layer="g4141" /><g
     id="g4141"
     inkscape:groupmode="layer"
     inkscape:label="Sync_1238_Acril_Cover-Top_Bottom"
     transform="matrix(1.25,0,0,-1.25,-55.452507,1429.8622)"><g
       id="g4151"
       style="stroke-width:0.02834646;stroke-miterlimit:4;stroke-dasharray:none"><g
         transform="translate(215.9524,1047.7576)"
         id="g4143"
         style="stroke-width:0.02834646;stroke-miterlimit:4;stroke-dasharray:none"><path
           inkscape:connector-curvature="0"
           id="path4145"
           style="fill:none;stroke:#000000;stroke-width:0.02834646;stroke-linecap:round;stroke-linejoin:round;stroke-miterlimit:4;stroke-dasharray:none;stroke-opacity:1"
           d="m 0,0 12.756,0 m 0,0 0,54.204 m 0,0 -12.756,0 m 0,0 L 0,0 m 28.975,-54.685 -0.163,1.186 -0.476,1.097 -0.756,0.928 -0.977,0.69 -1.128,0.401 -1.193,0.082 -1.172,-0.244 -1.062,-0.55 -0.875,-0.817 -0.621,-1.022 -0.323,-1.153 0,-1.196 0.323,-1.152 0.621,-1.023 0.875,-0.816 1.062,-0.551 1.172,-0.243 1.193,0.081 1.128,0.401 0.977,0.69 0.756,0.928 0.476,1.098 0.163,1.185 m -181.417,136.063 -0.163,1.186 -0.477,1.097 -0.755,0.928 -0.977,0.69 -1.128,0.401 -1.194,0.082 -1.171,-0.244 -1.063,-0.55 -0.874,-0.817 -0.622,-1.022 -0.323,-1.153 0,-1.196 0.323,-1.152 0.622,-1.023 0.874,-0.816 1.063,-0.551 1.171,-0.243 1.194,0.081 1.128,0.401 0.977,0.69 0.755,0.928 0.477,1.098 0.163,1.185 m 362.835,0 -0.163,1.186 -0.477,1.097 -0.755,0.928 -0.978,0.69 -1.127,0.401 -1.194,0.082 -1.172,-0.244 -1.062,-0.55 -0.874,-0.817 -0.622,-1.022 -0.323,-1.153 0,-1.196 0.323,-1.152 0.622,-1.023 0.874,-0.816 1.062,-0.551 1.172,-0.243 1.194,0.081 1.127,0.401 0.978,0.69 0.755,0.928 0.477,1.098 0.163,1.185 m -51.024,-178.582 -0.163,1.185 -0.477,1.097 -0.755,0.929 -0.977,0.69 -1.128,0.4 -1.194,0.082 -1.171,-0.244 -1.063,-0.55 -0.874,-0.817 -0.622,-1.022 -0.323,-1.152 0,-1.197 0.323,-1.152 0.622,-1.022 0.874,-0.817 1.063,-0.551 1.171,-0.243 1.194,0.082 1.128,0.4 0.977,0.69 0.755,0.929 0.477,1.097 0.163,1.186 m -260.788,0 -0.162,1.185 -0.477,1.097 -0.755,0.929 -0.978,0.69 -1.127,0.4 -1.194,0.082 -1.172,-0.244 -1.062,-0.55 -0.874,-0.817 -0.622,-1.022 -0.323,-1.152 0,-1.197 0.323,-1.152 0.622,-1.022 0.874,-0.817 1.062,-0.551 1.172,-0.243 1.194,0.082 1.127,0.4 0.978,0.69 0.755,0.929 0.477,1.097 0.162,1.186 m -64.488,-12.473 7.022,0 m -12.691,5.669 0.109,-1.106 0.323,-1.063 0.523,-0.98 0.705,-0.859 0.86,-0.705 0.98,-0.524 1.063,-0.323 1.106,-0.109 m -5.669,200.126 0,-194.457 m 5.669,200.126 -1.106,-0.109 -1.063,-0.322 -0.98,-0.524 -0.86,-0.705 -0.705,-0.859 -0.523,-0.98 -0.323,-1.064 -0.109,-1.106 m 386.646,5.669 -380.977,0 m 386.646,-5.669 -0.109,1.106 -0.323,1.064 -0.524,0.98 -0.705,0.859 -0.859,0.705 -0.98,0.524 -1.063,0.322 -1.106,0.109 m 5.669,-44.935 0,39.266 m -2.835,-42.1 0.553,0.054 0.532,0.162 0.49,0.262 0.43,0.352 0.352,0.43 0.262,0.49 0.162,0.531 0.054,0.553 m -3.402,-2.834 0.567,0 m -0.567,-82.772 0,82.772 m 0.567,-82.772 -0.567,0 m 3.402,-2.834 -0.054,0.553 -0.162,0.531 -0.262,0.49 -0.352,0.43 -0.43,0.352 -0.49,0.262 -0.532,0.162 -0.553,0.054 m 2.835,-69.585 0,66.751 m -5.669,-72.42 1.106,0.109 1.063,0.323 0.98,0.524 0.859,0.705 0.705,0.859 0.524,0.98 0.323,1.063 0.109,1.106 m -10.128,-5.669 4.459,0 m -4.459,42.165 0,-42.165 m -43.512,42.165 43.512,0 m -43.512,-42.165 0,42.165 m -21.685,-42.165 21.685,0 m -21.685,42.165 0,-42.165 m -43.512,42.165 43.512,0 m -43.512,-42.165 0,42.165 m -21.685,-42.165 21.685,0 m -21.685,42.165 0,-42.165 m -43.512,42.165 43.512,0 m -43.512,-42.165 0,42.165 m -21.685,-42.165 21.685,0 m -21.685,42.165 0,-42.165 m -43.512,42.165 43.512,0 m -43.512,-42.165 0,42.165 m -21.685,-42.165 21.685,0 m -21.685,42.165 0,-42.165 m -43.511,42.165 43.511,0 m -43.511,-42.165 0,42.165 m -21.685,-42.165 21.685,0 m -21.685,42.165 0,-42.165 m -43.512,42.165 43.512,0 m -43.512,-42.165 0,42.165 m 187.86,-29.692 -0.163,1.185 -0.476,1.097 -0.756,0.929 -0.977,0.69 -1.128,0.4 -1.193,0.082 -1.172,-0.244 -1.062,-0.55 -0.875,-0.817 -0.621,-1.022 -0.323,-1.152 0,-1.197 0.323,-1.152 0.621,-1.022 0.875,-0.817 1.062,-0.551 1.172,-0.243 1.193,0.082 1.128,0.4 0.977,0.69 0.756,0.929 0.476,1.097 0.163,1.186 m 181.418,42.519 -0.163,1.186 -0.477,1.097 -0.755,0.928 -0.978,0.69 -1.127,0.401 -1.194,0.082 -1.172,-0.244 -1.062,-0.55 -0.874,-0.817 -0.622,-1.022 -0.323,-1.153 0,-1.196 0.323,-1.152 0.622,-1.023 0.874,-0.816 1.062,-0.551 1.172,-0.243 1.194,0.081 1.127,0.401 0.978,0.69 0.755,0.928 0.477,1.098 0.163,1.185 m -362.835,0 -0.163,1.186 -0.477,1.097 -0.755,0.928 -0.977,0.69 -1.128,0.401 -1.194,0.082 -1.171,-0.244 -1.063,-0.55 -0.874,-0.817 -0.622,-1.022 -0.323,-1.153 0,-1.196 0.323,-1.152 0.622,-1.023 0.874,-0.816 1.063,-0.551 1.171,-0.243 1.194,0.081 1.128,0.401 0.977,0.69 0.755,0.928 0.477,1.098 0.163,1.185 m 181.417,136.063 -0.163,1.186 -0.476,1.097 -0.756,0.928 -0.977,0.69 -1.128,0.401 -1.193,0.082 -1.172,-0.244 -1.062,-0.55 -0.875,-0.817 -0.621,-1.022 -0.323,-1.153 0,-1.196 0.323,-1.152 0.621,-1.023 0.875,-0.816 1.062,-0.551 1.172,-0.243 1.193,0.081 1.128,0.401 0.977,0.69 0.756,0.928 0.476,1.098 0.163,1.185 m -99.014,-86.364 -35.433,0 m 0,0 0,-12.756 m 0,0 35.433,0 m 0,0 0,12.756" /></g><g
         transform="translate(63.5102,779.0314)"
         id="g4147"
         style="stroke-width:0.02834646;stroke-miterlimit:4;stroke-dasharray:none"><path
           inkscape:connector-curvature="0"
           id="path4149"
           style="fill:none;stroke:#000000;stroke-width:0.02834646;stroke-linecap:round;stroke-linejoin:round;stroke-miterlimit:4;stroke-dasharray:none;stroke-opacity:1"
           d="M 0,0 -0.163,1.185 -0.64,2.283 -1.395,3.211 -2.372,3.901 -3.5,4.302 -4.694,4.383 -5.865,4.14 -6.927,3.589 -7.802,2.773 -8.424,1.75 -8.746,0.598 l 0,-1.196 0.322,-1.152 0.622,-1.023 0.875,-0.817 1.062,-0.55 1.171,-0.244 1.194,0.082 1.128,0.401 0.977,0.69 0.755,0.928 0.477,1.098 L 0,0 m 362.835,136.063 -0.163,1.185 -0.477,1.098 -0.755,0.928 -0.978,0.69 -1.127,0.401 -1.194,0.081 -1.171,-0.243 -1.063,-0.551 -0.874,-0.816 -0.622,-1.023 -0.323,-1.152 0,-1.196 0.323,-1.152 0.622,-1.023 0.874,-0.817 1.063,-0.55 1.171,-0.244 1.194,0.082 1.127,0.401 0.978,0.69 0.755,0.928 0.477,1.098 0.163,1.185 m 0,-136.063 -0.163,1.185 -0.477,1.098 -0.755,0.928 -0.978,0.69 -1.127,0.401 -1.194,0.081 -1.171,-0.243 -1.063,-0.551 -0.874,-0.816 -0.622,-1.023 -0.323,-1.152 0,-1.196 0.323,-1.152 0.622,-1.023 0.874,-0.817 1.063,-0.55 1.171,-0.244 1.194,0.082 1.127,0.401 0.978,0.69 0.755,0.928 0.477,1.098 0.163,1.185 m -51.024,-42.52 -0.163,1.186 -0.477,1.097 -0.755,0.928 -0.977,0.69 -1.128,0.401 -1.194,0.082 -1.171,-0.244 -1.062,-0.55 -0.875,-0.817 -0.622,-1.022 -0.322,-1.152 0,-1.197 0.322,-1.152 0.622,-1.023 0.875,-0.816 1.062,-0.551 1.171,-0.243 1.194,0.081 1.128,0.401 0.977,0.69 0.755,0.928 0.477,1.098 0.163,1.185 m -130.394,0 -0.163,1.186 -0.476,1.097 -0.755,0.928 -0.978,0.69 -1.127,0.401 -1.194,0.082 -1.172,-0.244 -1.062,-0.55 -0.875,-0.817 -0.621,-1.022 -0.323,-1.152 0,-1.197 0.323,-1.152 0.621,-1.023 0.875,-0.816 1.062,-0.551 1.172,-0.243 1.194,0.081 1.127,0.401 0.978,0.69 0.755,0.928 0.476,1.098 0.163,1.185 m -130.393,0 -0.163,1.186 -0.477,1.097 -0.755,0.928 -0.978,0.69 -1.127,0.401 -1.194,0.082 -1.171,-0.244 -1.063,-0.55 -0.874,-0.817 -0.622,-1.022 -0.323,-1.152 0,-1.197 0.323,-1.152 0.622,-1.023 0.874,-0.816 1.063,-0.551 1.171,-0.243 1.194,0.081 1.127,0.401 0.978,0.69 0.755,0.928 0.477,1.098 0.163,1.185 M 181.417,0 l -0.163,1.185 -0.476,1.098 -0.755,0.928 -0.978,0.69 -1.127,0.401 -1.194,0.081 -1.172,-0.243 -1.062,-0.551 -0.875,-0.816 -0.621,-1.023 -0.323,-1.152 0,-1.196 0.323,-1.152 0.621,-1.023 0.875,-0.817 1.062,-0.55 1.172,-0.244 1.194,0.082 1.127,0.401 0.978,0.69 0.755,0.928 0.476,1.098 L 181.417,0 M 0,136.063 l -0.163,1.185 -0.477,1.098 -0.755,0.928 -0.977,0.69 -1.128,0.401 -1.194,0.081 -1.171,-0.243 -1.062,-0.551 -0.875,-0.816 -0.622,-1.023 -0.322,-1.152 0,-1.196 0.322,-1.152 0.622,-1.023 0.875,-0.817 1.062,-0.55 1.171,-0.244 1.194,0.082 1.128,0.401 0.977,0.69 0.755,0.928 0.477,1.098 0.163,1.185 m 181.417,0 -0.163,1.185 -0.476,1.098 -0.755,0.928 -0.978,0.69 -1.127,0.401 -1.194,0.081 -1.172,-0.243 -1.062,-0.551 -0.875,-0.816 -0.621,-1.023 -0.323,-1.152 0,-1.196 0.323,-1.152 0.621,-1.023 0.875,-0.817 1.062,-0.55 1.172,-0.244 1.194,0.082 1.127,0.401 0.978,0.69 0.755,0.928 0.476,1.098 0.163,1.185 m 191.764,-185.386 0,194.457 m 0,0 -0.109,1.106 -0.322,1.063 -0.524,0.98 -0.705,0.86 -0.859,0.705 -0.981,0.524 -1.063,0.322 -1.106,0.109 m 0,0 -380.977,0 m 0,0 -1.106,-0.109 -1.063,-0.322 -0.98,-0.524 -0.859,-0.705 -0.705,-0.86 -0.524,-0.98 -0.323,-1.063 -0.109,-1.106 m 0,0 0,-194.457 m 0,0 0.109,-1.106 0.323,-1.063 0.524,-0.981 0.705,-0.859 0.859,-0.705 0.98,-0.524 1.063,-0.322 1.106,-0.109 m 0,0 380.977,0 m 0,0 1.106,0.109 1.063,0.322 0.981,0.524 0.859,0.705 0.705,0.859 0.524,0.981 0.322,1.063 0.109,1.106" /></g></g></g></svg>